<svg xmlns="http://www.w3.org/2000/svg" xmlns:xlink="http://www.w3.org/1999/xlink" viewBox="0 0 60 40"><defs><style>.cls-1,.cls-34{fill:none;}.cls-2{isolation:isolate;}.cls-17,.cls-24,.cls-3{fill:#233254;}.cls-20,.cls-21,.cls-4,.cls-5,.cls-9{fill:#0e192d;}.cls-11,.cls-17,.cls-20,.cls-21,.cls-22,.cls-25,.cls-26,.cls-27,.cls-32,.cls-33,.cls-34,.cls-36,.cls-38,.cls-39,.cls-40,.cls-41,.cls-5{mix-blend-mode:multiply;}.cls-6{clip-path:url(#clip-path);}.cls-7{fill:#c3bfbe;}.cls-8{fill:url(#radial-gradient);}.cls-20,.cls-9{opacity:0.38;}.cls-10{fill:#605f5f;}.cls-11,.cls-28,.cls-32,.cls-33,.cls-39,.cls-40,.cls-41{fill:#dbd9d5;}.cls-12{fill:#eae8e4;}.cls-13{fill:#fc8900;}.cls-14{fill:#f95900;}.cls-15{fill:#f9b800;}.cls-16{fill:#fff;}.cls-17{opacity:0.45;}.cls-18{fill:url(#Chrome);}.cls-19{fill:#4f4e4e;}.cls-21{opacity:0.5;}.cls-22{fill:#a3a2a0;}.cls-23{fill:#a4b6c1;}.cls-24,.cls-38,.cls-40{opacity:0.43;}.cls-25,.cls-35{fill:#a8a7a7;}.cls-26{fill:url(#linear-gradient);}.cls-29{fill:#1a2944;}.cls-30{fill:#ff2a00;}.cls-31{fill:#e52505;}.cls-32{opacity:0.42;}.cls-33{opacity:0.47;}.cls-34{stroke:#dbd9d5;stroke-miterlimit:10;stroke-width:0.15px;}.cls-36{fill:#898989;}.cls-37{opacity:0.61;}.cls-39{opacity:0.51;}.cls-41{opacity:0.29;}</style><clipPath id="clip-path"><path class="cls-1" d="M9.387,23.872c-.149-1.088-.566-1.908-.933-1.83l-.013.007c-.005,0-.01,0-.015,0-.3.068-.464.752-.412,1.614.008.159.02.322.043.491.148,1.088.566,1.907.933,1.83l.009,0h.009c.205-.046.343-.377.4-.849A4.9,4.9,0,0,0,9.387,23.872Z"/></clipPath><radialGradient id="radial-gradient" cx="8.412" cy="20.354" r="13.782" gradientUnits="userSpaceOnUse"><stop offset="0" stop-color="#e5e2df"/><stop offset="0" stop-color="#d6d7d7"/><stop offset="0" stop-color="#d1d3d4"/><stop offset="0.044" stop-color="#e2e4e4"/><stop offset="0.107" stop-color="#fff"/><stop offset="0.13" stop-color="#f5f5f6"/><stop offset="0.17" stop-color="#dbdcdd"/><stop offset="0.22" stop-color="#b1b2b4"/><stop offset="0.247" stop-color="#97999c"/><stop offset="0.272" stop-color="#9a9c9e"/><stop offset="0.287" stop-color="#a2a4a7"/><stop offset="0.299" stop-color="#b0b2b4"/><stop offset="0.309" stop-color="#c4c6c8"/><stop offset="0.315" stop-color="#d1d3d4"/><stop offset="0.364" stop-color="#c7c9ca"/><stop offset="0.446" stop-color="#adafb0"/><stop offset="0.552" stop-color="#838586"/><stop offset="0.646" stop-color="#58595b"/><stop offset="0.678" stop-color="#616265"/><stop offset="0.731" stop-color="#7a7c7f"/><stop offset="0.742" stop-color="#808285"/><stop offset="0.743" stop-color="#797a7d"/><stop offset="0.75" stop-color="#5a595c"/><stop offset="0.757" stop-color="#424041"/><stop offset="0.765" stop-color="#312d2f"/><stop offset="0.773" stop-color="#262324"/><stop offset="0.781" stop-color="#231f20"/><stop offset="0.79" stop-color="#4b4848"/><stop offset="0.802" stop-color="#7a7878"/><stop offset="0.815" stop-color="#a3a1a2"/><stop offset="0.827" stop-color="#c4c3c3"/><stop offset="0.84" stop-color="#dedede"/><stop offset="0.853" stop-color="#f0f0f0"/><stop offset="0.867" stop-color="#fbfbfb"/><stop offset="0.882" stop-color="#fff"/><stop offset="0.897" stop-color="#eaebec"/><stop offset="0.921" stop-color="#d0d2d3"/><stop offset="0.946" stop-color="#bebfc2"/><stop offset="0.972" stop-color="#b3b5b7"/><stop offset="1" stop-color="#afb1b4"/></radialGradient><linearGradient id="Chrome" x1="30.03" y1="46.17" x2="33.201" y2="54.64" gradientTransform="translate(-13.132 -3.471) rotate(-19.332)" gradientUnits="userSpaceOnUse"><stop offset="0" stop-color="#e5e2df"/><stop offset="0" stop-color="#d6d7d7"/><stop offset="0" stop-color="#d1d3d4"/><stop offset="0.068" stop-color="#edeeee"/><stop offset="0.107" stop-color="#fff"/><stop offset="0.13" stop-color="#f5f5f6"/><stop offset="0.17" stop-color="#dbdcdd"/><stop offset="0.22" stop-color="#b1b2b4"/><stop offset="0.247" stop-color="#97999c"/><stop offset="0.272" stop-color="#9a9c9e"/><stop offset="0.287" stop-color="#a2a4a7"/><stop offset="0.299" stop-color="#b0b2b4"/><stop offset="0.309" stop-color="#c4c6c8"/><stop offset="0.315" stop-color="#d1d3d4"/><stop offset="0.364" stop-color="#c7c9ca"/><stop offset="0.446" stop-color="#adafb0"/><stop offset="0.552" stop-color="#838586"/><stop offset="0.646" stop-color="#58595b"/><stop offset="0.678" stop-color="#616265"/><stop offset="0.731" stop-color="#7a7c7f"/><stop offset="0.742" stop-color="#808285"/><stop offset="0.743" stop-color="#797a7d"/><stop offset="0.75" stop-color="#5a595c"/><stop offset="0.757" stop-color="#424041"/><stop offset="0.765" stop-color="#312d2f"/><stop offset="0.773" stop-color="#262324"/><stop offset="0.781" stop-color="#231f20"/><stop offset="0.79" stop-color="#4b4848"/><stop offset="0.802" stop-color="#7a7878"/><stop offset="0.815" stop-color="#a3a1a2"/><stop offset="0.827" stop-color="#c4c3c3"/><stop offset="0.84" stop-color="#dedede"/><stop offset="0.853" stop-color="#f0f0f0"/><stop offset="0.867" stop-color="#fbfbfb"/><stop offset="0.882" stop-color="#fff"/><stop offset="0.897" stop-color="#eaebec"/><stop offset="0.921" stop-color="#d0d2d3"/><stop offset="0.946" stop-color="#bebfc2"/><stop offset="0.972" stop-color="#b3b5b7"/><stop offset="1" stop-color="#afb1b4"/></linearGradient><linearGradient id="linear-gradient" x1="28.383" y1="24.566" x2="28.161" y2="25.301" gradientUnits="userSpaceOnUse"><stop offset="0"/><stop offset="1" stop-color="#fff"/></linearGradient></defs><title>Icon Set sample</title><g class="cls-2"><g id="Layer_1" data-name="Layer 1"><path class="cls-3" d="M1.739,17.854l.211,3.551s-.124.231.567.135,6.139-.926,6.139-.926S1.711,17.382,1.739,17.854Z"/><path class="cls-4" d="M7.428,20.61a3.935,3.935,0,0,0-.478.1c-.248.083-.546.154-.658.183S7.406,20.8,7.406,20.8,7.585,20.579,7.428,20.61Z"/><path class="cls-4" d="M2.335,17.263l.034,3.557s-.135.224.559.163,6.179-.518,6.179-.518S2.331,16.791,2.335,17.263Z"/><path class="cls-4" d="M7.89,20.439a.469.469,0,0,0-.4.352,8.865,8.865,0,0,0-.233,1.7,8.746,8.746,0,0,0,.021,1.166c.043.3.123.724.141.806s.16.711.5.643-.326-2.259.152-3.067.809-1.108.725-1.325A.712.712,0,0,0,7.89,20.439Z"/><path class="cls-5" d="M7.427,22.061c.091-.751.107-.845.286-1.009.034-.032.2-.092.091.108A2.412,2.412,0,0,0,7.6,22.171c-.041.552.069-.36.329-.679s.673-.68.661-.768-.308-.22-.457-.2a1.666,1.666,0,0,0-.556.3A11.357,11.357,0,0,0,7.3,22.018a3.54,3.54,0,0,0-.028.757c0,.128.054.548.054.548S7.349,22.711,7.427,22.061Z"/><path class="cls-3" d="M8.069,20.583a1.053,1.053,0,0,0-.554.63,8.665,8.665,0,0,0-.159,2.513c.1,1.117-.16-.191-.16-1.4a4.418,4.418,0,0,1,.319-1.976C7.623,20.13,8.388,20.355,8.069,20.583Z"/><path class="cls-5" d="M2.517,20.731a3.074,3.074,0,0,1,.2-.844c.167-.391,1.7-.143,2.178.264s1.8.418,2.864.362,0-.139-1-.386-2.386-.838-3.1-1.013-1.3-.24-1.322,0S2.311,21.01,2.517,20.731Z"/><path class="cls-3" d="M13.172,24.505a7.052,7.052,0,0,0-.069-1.244,4.965,4.965,0,0,0-.819-2.274c-.009-.011-.018-.031-.026-.041s-.018-.009-.023-.015a.609.609,0,0,0-.5-.261c-.018,0-.033.018-.051.023a9.334,9.334,0,0,0-2.964.019c-.48.128-.677.168-.885.571s.663.957.663.957.843.982.851,1.4A5.974,5.974,0,0,1,8.939,25.1s-.989.511-.508,1.3c0,0,.252.376.442.426s.474.245,1.9-.143a7.268,7.268,0,0,0,1.711-.552c.014,0,.028.007.042,0,.288-.041.492-.437.589-1.021,0-.015.008-.025.011-.04.006-.034.005-.076.01-.112.012-.092.022-.187.028-.288C13.167,24.616,13.172,24.563,13.172,24.505Z"/><ellipse class="cls-3" cx="8.7" cy="23.882" rx="1.073" ry="3.018" transform="translate(-3.327 1.49) rotate(-8.224)"/><g class="cls-6"><path class="cls-7" d="M8.989,25.761c-.315.072-.69-.659-.837-1.632s-.012-1.822.3-1.894.69.658.837,1.632.012,1.821-.3,1.894Z"/><path class="cls-3" d="M8.75,22.773l-.067.493s-.007.116-.039.124-.067-.066-.067-.066l-.215-.464a.215.215,0,0,1-.017-.118.233.233,0,0,1,.167-.16A.184.184,0,0,1,8.75,22.773Z"/><path class="cls-3" d="M9.1,25.131,8.9,24.7s-.04-.106-.072-.1-.043.09-.043.09l-.069.527a.223.223,0,0,0,.018.119.2.2,0,0,0,.2.077A.219.219,0,0,0,9.1,25.131Z"/><path class="cls-3" d="M8.238,23.5l.214.373a.372.372,0,0,1,.061.158.527.527,0,0,1,0,.172l-.1.463s-.014.064-.039.009a2.863,2.863,0,0,1-.122-.547C8.207,23.839,8.169,23.408,8.238,23.5Z"/><path class="cls-3" d="M9.022,23.323l-.094.441a.423.423,0,0,0-.012.175.517.517,0,0,0,.05.161l.228.388s.032.054.04-.009a2.966,2.966,0,0,0-.043-.564C9.148,23.627,9.059,23.207,9.022,23.323Z"/><path class="cls-4" d="M9.387,23.872c-.149-1.088-.566-1.908-.933-1.83l-.013.007c-.005,0-.01,0-.015,0-.3.068-.464.752-.412,1.614.008.159.02.322.043.491.148,1.088.566,1.907.933,1.83l.009,0h.009c.205-.046.343-.377.4-.849A4.9,4.9,0,0,0,9.387,23.872Z"/><path class="cls-8" d="M9.358,23.872c-.132-.974-.506-1.707-.834-1.637l-.012.006a.057.057,0,0,0-.013,0c-.272.061-.415.673-.369,1.444.007.142.018.288.039.439.132.974.506,1.707.834,1.638l.009,0H9.02c.183-.042.307-.338.355-.761A4.409,4.409,0,0,0,9.358,23.872Z"/><path class="cls-4" d="M9.237,22.819l-.106.7s-.012.164-.058.174-.1-.094-.1-.094l-.3-.66a.306.306,0,0,1-.023-.168c.019-.075.072-.3.21-.325A.364.364,0,0,1,9.237,22.819Z"/><path class="cls-4" d="M9.529,24.971l-.3-.651s-.059-.159-.107-.149-.069.135-.069.135l-.114.789a.336.336,0,0,0,.024.178c.04.066.173.247.319.217A.428.428,0,0,0,9.529,24.971Z"/><path class="cls-4" d="M8.611,23.046l.354.627a.617.617,0,0,1,.1.265.9.9,0,0,1-.006.288L8.876,25s-.026.108-.067.014a3.717,3.717,0,0,1-.232-.907C8.512,23.622,8.5,22.892,8.611,23.046Z"/><path class="cls-4" d="M9.3,22.907l-.167.732a.689.689,0,0,0-.025.29.838.838,0,0,0,.082.268l.374.649s.053.09.067-.014a3.918,3.918,0,0,0-.021-.946C9.547,23.406,9.368,22.716,9.3,22.907Z"/><ellipse class="cls-7" cx="9.077" cy="24.015" rx="0.15" ry="0.576" transform="translate(-3.342 1.545) rotate(-8.224)"/><ellipse class="cls-4" cx="9.075" cy="24.021" rx="0.065" ry="0.267" transform="translate(-3.385 1.569) rotate(-8.332)"/><ellipse class="cls-4" cx="9.159" cy="23.851" rx="0.025" ry="0.077" transform="translate(-4.319 2.146) rotate(-10.832)"/><ellipse class="cls-4" cx="8.954" cy="23.882" rx="0.025" ry="0.078" transform="translate(-1.65 0.685) rotate(-4.014)"/><ellipse class="cls-4" cx="9.008" cy="23.584" rx="0.025" ry="0.078" transform="translate(-2.829 1.285) rotate(-7.058)"/><ellipse class="cls-4" cx="9.201" cy="24.157" rx="0.024" ry="0.078" transform="translate(-1.874 0.8) rotate(-4.517)"/><ellipse class="cls-4" cx="9.005" cy="24.191" rx="0.025" ry="0.077" transform="translate(-4.156 1.985) rotate(-10.237)"/><ellipse class="cls-4" cx="9.137" cy="24.446" rx="0.024" ry="0.079" transform="translate(-3.036 1.361) rotate(-7.311)"/></g><path class="cls-4" d="M10.568,26.726a1.047,1.047,0,0,0,.645-.495,1.986,1.986,0,0,0,.309-.9,3.063,3.063,0,0,1-.367,1.249l-.2.051S10.772,26.687,10.568,26.726Z"/><path class="cls-9" d="M11.614,24.918a1.714,1.714,0,0,1-.99.191c-.425-.106-.557-.415-.555-1.149s.321-1.32-.093-1.756-.649-.152-.532-1.31,1.617.375,1.617.375a6.333,6.333,0,0,1,.478,1.978C11.671,24.521,11.9,24.8,11.614,24.918Z"/><path class="cls-4" d="M12.027,24.857a1.71,1.71,0,0,1-.989.192c-.426-.106-.558-.415-.556-1.149s.322-1.32-.093-1.756-.649-.153-.532-1.31,1.617.375,1.617.375a6.333,6.333,0,0,1,.478,1.978C12.084,24.461,12.317,24.737,12.027,24.857Z"/><path class="cls-4" d="M11,24.79a2.213,2.213,0,0,1,.361.491.926.926,0,0,1,0,.64.459.459,0,0,1,.3-.223c.21-.012.414.367.558.406s.353.209.661-.249c.235-.349-.264-.463-.264-.463S11.138,25.209,11,24.79Z"/><path class="cls-3" d="M11,21.407s.319,3.489.33,3.7.053.277.383.436S19.4,28.886,20,29.077s.542.165,1.127-.1,1.852-.79,1.852-.79a6.827,6.827,0,0,0,1.648-2.351c.277-1.054-2.3-1.532-2.3-1.532S10.906,20.408,11,21.407Z"/><path class="cls-3" d="M23.385,27.787c-.015,0,1.356.615,1.412.639a3.546,3.546,0,0,0,1.628.263,2.324,2.324,0,0,0,1-.511c.152-.215.559-.367.651-.526s.331-.5.458-.734.169-.486.372-.63.626-.016.658-.547a.979.979,0,0,0-.16-.727s-.894.715-1.269.547-.566-.048-.606.1a14.7,14.7,0,0,1-1.316,1.683c-.24.24-.28-.4-.08-.788s-.6-.643-.643-.641-1.36-.092-1.3.341S24,27.939,23.385,27.787Z"/><path class="cls-4" d="M22.81,25.741a4.741,4.741,0,0,1,.91-.283c.327-.04,1.811-.224,1.923-.216s1.955.069,1.955.069.048.25.112.482.238,1.727-.28,2.028a2.787,2.787,0,0,1-1.747.406c-.319-.144-.713-.9-.293-1.3s-.375-.867-.848-.306-.905-.406-.905-.406S22.785,26.216,22.81,25.741Z"/><path class="cls-5" d="M23.417,25.08a4.787,4.787,0,0,1,.911-.284c.327-.04,1.811-.223,1.922-.215s1.955.068,1.955.068.048.251.112.482.238,1.728-.28,2.029a2.794,2.794,0,0,1-1.747.406c-.319-.145-.712-.9-.292-1.3s-.375-.866-.849-.306-.905-.4-.905-.4S23.393,25.555,23.417,25.08Z"/><path class="cls-5" d="M27.743,25.487s.029,1.2.089,1.449a3.379,3.379,0,0,0,.168.672c.084.157.583-.69.625-.806s.013-.381.286-.514a1.032,1.032,0,0,1,.537-.1,2.191,2.191,0,0,0,.2-.637c0-.216.012-.456.012-.456s-.585.643-.86.528S27.63,25.246,27.743,25.487Z"/><path class="cls-10" d="M22.816,25.833v2a.243.243,0,0,0,.132.216L24.6,28.9a.241.241,0,0,0,.352-.215V26.556a.237.237,0,0,0-.149-.223C24.3,26.131,22.7,25.509,22.816,25.833Z"/><path class="cls-4" d="M20.476,29.183s.117-2.645.234-3.12a1.559,1.559,0,0,1,.936-1.152,3.23,3.23,0,0,1,1.393,0,1.979,1.979,0,0,1,.447.56c-.018.064-.368.265-.4.4s-.071.869-.071.932-.071,1.439-.942,1.757c-.246.09-.849.4-1.026.474C20.6,29.219,20.474,29.232,20.476,29.183Z"/><path class="cls-5" d="M21.36,28.61s.116-2.646.233-3.121a1.558,1.558,0,0,1,.936-1.151,3.219,3.219,0,0,1,1.394,0,1.961,1.961,0,0,1,.447.559c-.019.065-.369.266-.4.4s-.071.87-.071.932-.071,1.439-.942,1.758c-.247.09-.85.4-1.027.473C21.485,28.645,21.357,28.658,21.36,28.61Z"/><path class="cls-11" d="M22.871,25.9V27.67a.213.213,0,0,0,.124.191l1.566.751a.228.228,0,0,0,.333-.19V26.538a.212.212,0,0,0-.141-.2C24.276,26.161,22.76,25.611,22.871,25.9Z"/><path class="cls-12" d="M22.87,25.933v1.724a.206.206,0,0,0,.119.185l1.491.731a.218.218,0,0,0,.318-.185V26.556a.2.2,0,0,0-.134-.192C24.21,26.19,22.765,25.655,22.87,25.933Z"/><path class="cls-9" d="M11.847,26.23a.191.191,0,0,0,.25.147.274.274,0,0,0,.2-.257c.018-.13-.026-1.585,0-1.782s.068-.972.506-1.278a1.944,1.944,0,0,1,1.911.288c.42.385.422,3.19.424,3.545a3.109,3.109,0,0,0,.07.768.282.282,0,0,0,.377.129c.258-.086.006-2,.03-2.484s.066-1.158.432-1.311a1.238,1.238,0,0,1,1.538.4,1.88,1.88,0,0,1,.343,1.015,1.609,1.609,0,0,1,.288-.8c.24-.252.691.138.733.853s.025,2.29.078,2.908a1.921,1.921,0,0,0,.227.969.394.394,0,0,0,.287,0,4.088,4.088,0,0,0,.176-1.25c0-.319-.1-.42-.152-1.279s.192-1.8.615-1.816.423,1.145.423,1.145-.056-1.081.582-1.161-2.9-1.277-4.1-1.676S12.5,22.1,12.5,22.1l-.782-.167-.367-.081s-.1.166-.069.176a3.453,3.453,0,0,1,.564,2.011C11.936,25.458,11.766,25.934,11.847,26.23Z"/><rect class="cls-12" x="23.19" y="25.382" width="0.195" height="0.681"/><path class="cls-11" d="M25.984,27.171a9.716,9.716,0,0,1-1.007.381l-.028,0a2.455,2.455,0,0,1-.88-.374,2.955,2.955,0,0,1,0-.72l0-.1c.016-.462-.053-.5-.077-.517a.051.051,0,0,0-.052,0,.032.032,0,0,0-.015.025c0,.005-.017.456-.017.8a1.5,1.5,0,0,1-.057.456c-.191-.061-.936-.307-1.026-.327-.017-.007-.03.006-.034.021a.03.03,0,0,0,.018.037,3.538,3.538,0,0,1,1.088.559,5.04,5.04,0,0,1,.063,1.166.032.032,0,0,0,.029.031h0a.032.032,0,0,0,.031-.029c0-.008.031-.787.031-.964a.373.373,0,0,1,.03-.188l0,0a2.355,2.355,0,0,0,.817.313l.017,0a11.937,11.937,0,0,0,1.088-.519.029.029,0,0,0,.013-.039A.031.031,0,0,0,25.984,27.171Z"/><path class="cls-3" d="M22.809,26.819c.1.021,1.069.343,1.069.343a1.294,1.294,0,0,0,.069-.494c0-.344.017-.8.017-.8s.1-.063.083.491a3.225,3.225,0,0,0,0,.832,2.251,2.251,0,0,0,.939.386,11.763,11.763,0,0,0,1.17-.465s-1.1.577-1.237.6a2.325,2.325,0,0,1-.8-.3c-.041-.06-.087.023-.087.2s-.031.962-.031.962a5.4,5.4,0,0,0-.068-1.182A5.493,5.493,0,0,0,22.809,26.819Z"/><path class="cls-4" d="M23.373,27.04s.491.173.551.185.056-.717.056-.717.007.69.03.717a5.728,5.728,0,0,0,.706.343.713.713,0,0,0,.306.024.493.493,0,0,1-.364.007c-.243-.065-.543-.33-.623-.257s-.024.34-.024.34A1.582,1.582,0,0,0,23.9,27.3a6.187,6.187,0,0,0-.781-.34Z"/><path class="cls-13" d="M22.929,25.847a2.69,2.69,0,0,0,.528.154c.2.023.193,0,.163.161s.092.413-.1.392a2.128,2.128,0,0,1-.469-.127C22.946,26.392,22.939,26.393,22.929,25.847Z"/><path class="cls-14" d="M23.114,26.149c.141,0,.387-.071.368-.025.076-.181.144-.1.12.039-.012.065,0,.22-.011.257s-.2.066-.239.082a.3.3,0,0,0,.091-.25c-.03-.138-.109.04-.121.094s.019-.119-.08-.087S23.041,26.152,23.114,26.149Z"/><path class="cls-15" d="M22.964,25.919a2.845,2.845,0,0,0,.375.143c.136.033.062.2.014.292s-.1.108-.218.074S23.227,26.118,22.964,25.919Z"/><path class="cls-16" d="M23.249,26.034c-.1-.057.151.061.135.175a.235.235,0,0,1-.17.2c-.057,0-.089,0-.087-.064s.086-.027.1,0S23.429,26.134,23.249,26.034Z"/><path class="cls-4" d="M11.847,25.943a.19.19,0,0,0,.25.146.272.272,0,0,0,.2-.256c.018-.131-.026-1.585,0-1.782s.068-.972.506-1.278a1.942,1.942,0,0,1,1.911.288c.42.385.422,3.19.424,3.545a3.109,3.109,0,0,0,.07.768.282.282,0,0,0,.377.129c.258-.086.006-2,.03-2.485s.066-1.157.432-1.31a1.239,1.239,0,0,1,1.538.4,1.882,1.882,0,0,1,.343,1.016,1.609,1.609,0,0,1,.288-.8c.24-.253.691.138.733.853s.025,2.29.078,2.907a1.923,1.923,0,0,0,.227.97.394.394,0,0,0,.287,0,4.093,4.093,0,0,0,.176-1.25c0-.319-.1-.42-.152-1.279s.192-1.8.615-1.816.423,1.145.423,1.145-.056-1.082.582-1.161-2.9-1.277-4.1-1.676-4.58-1.2-4.58-1.2l-.782-.167-.367-.081s-.1.166-.069.176a3.449,3.449,0,0,1,.564,2.011C11.936,25.17,11.766,25.646,11.847,25.943Z"/><path class="cls-3" d="M11.8,25.178l.02-2.974c0-.3,0-.6.128-.641s.223-.115.207.641-.012,2.847,0,3.222a1.527,1.527,0,0,1-.051.653c-.044.056-.3.052-.3-.381S11.8,25.178,11.8,25.178Z"/><path class="cls-3" d="M15.136,26.5s.02-2.916.022-3.238,0-.656.139-.7.243-.125.226.7-.014,3.1,0,3.507a1.671,1.671,0,0,1-.055.711c-.048.061-.327.057-.332-.414S15.136,26.5,15.136,26.5Z"/><path class="cls-3" d="M19.07,27.989s.021-3.151.023-3.5,0-.709.151-.755.263-.135.244.755-.015,3.35,0,3.792a1.788,1.788,0,0,1-.06.769c-.051.066-.353.061-.358-.448S19.07,27.989,19.07,27.989Z"/><path class="cls-12" d="M1.723,17.958,1.962,21.6s.04.183.12.048S1.9,17.9,1.9,17.9,1.687,17.408,1.723,17.958Z"/><path class="cls-5" d="M2.515,20.838a4.042,4.042,0,0,1,.165-1.189c.168-.391,1.7-.144,2.178.263a4.548,4.548,0,0,0,2.741.679c1.065-.056.124-.455-.873-.7s-2.386-.837-3.1-1.013-1.3-.239-1.323,0S2.309,21.117,2.515,20.838Z"/><path class="cls-12" d="M2.086,17.294l.264,3.64s.047.184.146.049-.19-3.744-.19-3.744S2.046,16.744,2.086,17.294Z"/><path class="cls-12" d="M9.933,23.854S24.119,29.3,24.965,29.662a2.513,2.513,0,0,0,2.41.148c.654-.467.484-1.607.484-1.607s-.133.039-.963.247-.91.159-2.49-.415-14.194-5.154-14.194-5.154l.018-.054s-.306.03-.354.132A2.012,2.012,0,0,0,9.933,23.854Z"/><path class="cls-11" d="M9.918,23s-.048.132.714.415,14.322,5.274,14.812,5.359a7.821,7.821,0,0,0,1.021.127,1.747,1.747,0,0,0,.737-.267c.274-.211.228.2.228.2l-.114.977a1.37,1.37,0,0,1-.628.108,5.686,5.686,0,0,1-.989-.16s1.343.272,1.521-.191.021-.554-.457-.5-2.533-.494-6.607-2.075-9.87-3.691-10.088-3.715-.108.373.078.517a.631.631,0,0,1-.3-.611s-.031-.234.083-.278a.34.34,0,0,1,.155-.036S9.9,22.9,9.918,23Z"/><path class="cls-4" d="M29.652,25.011a8.844,8.844,0,0,1-.064.973c-.043.128-.5.253-.6.274a.641.641,0,0,0-.407.468,3.245,3.245,0,0,1-.72,1.245,2.668,2.668,0,0,0-.66,1.4c.016.335-.08,2.883-.08,2.883s.133.34.689.029a9.685,9.685,0,0,1,1.67-.61s.162-3.4,1.136-3.9a5.54,5.54,0,0,1,2.4-.407l1.276-.031s.185-.062,0-.407A8.539,8.539,0,0,0,32.249,25.6C31.587,25.218,29.727,24.532,29.652,25.011Z"/><path class="cls-5" d="M27.165,30.616v1.1a3.052,3.052,0,0,1,.1-.841c.1-.223.248-.3.339-.479s-.122-.3-.128-.284S27.135,30.15,27.165,30.616Z"/><path class="cls-5" d="M28.081,27.722a8.732,8.732,0,0,1,.586-1.036,2.205,2.205,0,0,1,.585-.564c.106-.045.462-.141.433-.37s-.037-.607-.037-.607a1.612,1.612,0,0,1,1.33,0,19.484,19.484,0,0,1,2.48.977c.23.168.54.671.337.68a11.6,11.6,0,0,0-2.161.328c-.559.2-1.2.522-1.2.522A5.933,5.933,0,0,1,31.8,26.545c.808-.468.319-.7,0-.9a2.052,2.052,0,0,0-1.713.021,2.909,2.909,0,0,0-1.181,1.99c-.1,1.021-.1,1.991-.1,1.991a10.49,10.49,0,0,1-.216-1.81c.064-.341-.554.148-.6,1.031a2.925,2.925,0,0,1-.415,1.592c-.2.281-.121-.911-.121-.911a6.389,6.389,0,0,1,.3-1.606A1.314,1.314,0,0,1,28.081,27.722Z"/><path class="cls-3" d="M33.79,26.56a8.773,8.773,0,0,0-1.837.23,3.668,3.668,0,0,0-2.2,1.3,9.269,9.269,0,0,0,0,2.836c0,.075,1.551,5.735,2.271,6.153a3.609,3.609,0,0,0,3.518.369c1.543-.713,2.193-1.151,2.5-1.794s-1.405-2.607-1.405-2.607a4.419,4.419,0,0,1-1.691-.639C34.4,31.96,33.79,26.56,33.79,26.56Z"/><ellipse class="cls-3" cx="35.186" cy="31.635" rx="3.017" ry="5.263" transform="translate(-8.766 14.112) rotate(-20.222)"/><path class="cls-17" d="M33.4,26.5a8.043,8.043,0,0,1,1.464,1.414,8.4,8.4,0,0,1,.848,1.225,5.9,5.9,0,0,0-1.638-1.808c-.793-.4-.541-.613-.541-.613a4.723,4.723,0,0,0-1.3.013C31.723,26.848,33.4,26.5,33.4,26.5Z"/><ellipse class="cls-3" cx="32.496" cy="32.52" rx="3.107" ry="5.42" transform="translate(-9.238 13.237) rotate(-20.222)"/><path class="cls-4" d="M31.227,29.051c-.028.009-.05.031-.077.042a1.388,1.388,0,0,0-.33.142c-.97.635-1.144,2.451-.481,4.25.013.038.019.075.033.114.737,2.09,2.316,3.442,3.525,3.02.027-.01.048-.03.074-.041a1.325,1.325,0,0,0,.338-.146c.977-.638,1.145-2.476.465-4.288-.008-.024-.013-.049-.021-.073C34.015,29.981,32.436,28.629,31.227,29.051Z"/><path class="cls-18" d="M31.482,29.367c-.026.009-.045.029-.07.039a1.185,1.185,0,0,0-.3.129c-.878.573-1.035,2.216-.435,3.844.011.034.017.068.029.1.668,1.891,2.095,3.114,3.19,2.732.024-.009.043-.027.066-.037a1.2,1.2,0,0,0,.306-.132c.884-.577,1.036-2.239.42-3.878-.007-.023-.011-.045-.019-.067C34,30.209,32.576,28.986,31.482,29.367Z"/><path class="cls-4" d="M32.915,30.363l-.2,1.5s0,.345-.157.4-.342-.121-.342-.121l-1.16-1.13a.384.384,0,0,1-.115-.326,1.11,1.11,0,0,1,.634-.815C32.035,29.71,32.925,29.867,32.915,30.363Z"/><path class="cls-4" d="M34.387,34.541l-1.162-1.109s-.232-.281-.4-.225-.2.325-.2.325l-.207,1.694a.406.406,0,0,0,.121.345,1.339,1.339,0,0,0,1.126.21C34.155,35.611,34.726,34.944,34.387,34.541Z"/><path class="cls-4" d="M30.849,31.285l1.338,1.02a.94.94,0,0,1,.4.468,1.165,1.165,0,0,1,.045.592l-.445,1.71s-.065.238-.223.077a4.783,4.783,0,0,1-.989-1.683C30.644,32.532,30.431,31.052,30.849,31.285Z"/><path class="cls-4" d="M33.156,30.5l-.4,1.616a.93.93,0,0,0-.018.61,1.166,1.166,0,0,0,.336.487l1.411,1.051s.2.145.222-.077a4.764,4.764,0,0,0-.283-1.915C34.094,31.335,33.335,30.057,33.156,30.5Z"/><ellipse class="cls-7" cx="32.643" cy="32.921" rx="0.518" ry="1.176" transform="translate(-9.636 13.9) rotate(-21.021)"/><ellipse class="cls-4" cx="32.639" cy="32.935" rx="0.224" ry="0.545" transform="translate(-9.671 13.965) rotate(-21.109)"/><ellipse class="cls-4" cx="32.325" cy="32.117" rx="0.084" ry="0.161" transform="translate(-8.873 12.645) rotate(-19.518)"/><ellipse class="cls-4" cx="32.884" cy="32.526" rx="0.085" ry="0.158" transform="translate(-11.228 18.617) rotate(-27.186)"/><ellipse class="cls-4" cx="32.198" cy="32.74" rx="0.085" ry="0.158" transform="translate(-6.315 7.732) rotate(-12.481)"/><ellipse class="cls-4" cx="33.093" cy="33.121" rx="0.085" ry="0.159" transform="translate(-6.85 8.694) rotate(-13.576)"/><ellipse class="cls-4" cx="32.44" cy="33.333" rx="0.085" ry="0.159" transform="translate(-11.283 17.466) rotate(-25.832)"/><ellipse class="cls-4" cx="32.944" cy="33.757" rx="0.084" ry="0.161" transform="matrix(0.943, -0.334, 0.334, 0.943, -9.385, 12.946)"/><path class="cls-3" d="M29.479,25.083v.881s-.813.076-.916.587a1.835,1.835,0,0,1-1.077,1.372c-.574.16-.3,4.327-.3,4.327l.016-1.5s.611-.188.609-1.163-.25-.981.273-1.752A9.8,9.8,0,0,0,28.89,26.4a1.559,1.559,0,0,1,.589-.108c.193.039.3-1.329.3-1.329S29.612,24.616,29.479,25.083Z"/><path class="cls-4" d="M56.229,16.092a1.71,1.71,0,0,0,.825.1,2.956,2.956,0,0,0,.395-.163.135.135,0,0,1-.07.189,2.2,2.2,0,0,1-.891.106C56.212,16.279,55.845,16.116,56.229,16.092Z"/><path class="cls-19" d="M27.635,25.311s.011,1.6.043,1.862.266.415.3,0-.1-1.862-.1-1.862S27.632,24.937,27.635,25.311Z"/><path class="cls-3" d="M57.284,12.986s.1,2.729.1,3.378.255.1.361-.787a15.649,15.649,0,0,0,0-2.287C57.741,13.024,57.348,12.458,57.284,12.986Z"/><path class="cls-4" d="M57.583,16.032s.016.139.064.509.04.779-.837,1.067-.508.337.04.137a1.9,1.9,0,0,0,.813-.453,2.063,2.063,0,0,0,.092-1.057c-.039-.472-.068-.545-.132-.557S57.557,15.818,57.583,16.032Z"/><path class="cls-10" d="M37.6,34.324a8,8,0,0,0,.623,1.185c.292.409,1.3.324,2.59-.23S37.6,34.324,37.6,34.324Z"/><path class="cls-20" d="M37.74,34.063a7.953,7.953,0,0,0,.622,1.185c.292.409,1.3.323,2.59-.23S37.74,34.063,37.74,34.063Z"/><path class="cls-21" d="M37.848,33.932a7.953,7.953,0,0,0,.622,1.185c.293.408,1.3.323,2.59-.23S37.848,33.932,37.848,33.932Z"/><path class="cls-21" d="M38.312,33.776a7.954,7.954,0,0,0,.623,1.184c.292.409,1.3.324,2.59-.229S38.312,33.776,38.312,33.776Z"/><path class="cls-10" d="M36.174,29.974s.073.76.161,1.169a14.294,14.294,0,0,1,.287,1.694c.048.591-.021,1.285.779,1.549s3.537,1.021,3.864,1.1a1.431,1.431,0,0,0,.974-.2,8.635,8.635,0,0,0-.165-2.154c-.027-.287-.027-.79.129-.87s.407-.319.086-.494a10.531,10.531,0,0,0-1.223-.471c-.327-.12-2.119-.65-2.472-.78s-.632-.193-.815-.273A5.085,5.085,0,0,0,36.174,29.974Z"/><path class="cls-11" d="M42.666,31.811a13.2,13.2,0,0,0-2.233-.741c-.25-.112-3.372-1.343-3.909-1.1a.168.168,0,0,0-.062.035s.4,1.923.471,2.37a1.522,1.522,0,0,0,1.085,1.238,31.461,31.461,0,0,0,3.831.753A10.353,10.353,0,0,0,42.666,31.811Z"/><path class="cls-11" d="M36.534,29.861s.426,2.606.6,3.067,1.277-.41,1.832-.091.52.535.267,0,2.036-.028,2.526.776.513-.584.446-.711.279-.979.279-.979a1.676,1.676,0,0,0-.64-.41c-.494-.215-2.91-.8-3.064-.876s-.851-.34-1-.392A7.609,7.609,0,0,0,36.534,29.861Z"/><path class="cls-11" d="M36.377,29.227s.427,2.606.6,3.068.809-.185,1.363.135c.277.16.941.592.97.619a1.521,1.521,0,0,1-.235-.845c.062-.588,2.036-.029,2.526.776s.514-.584.446-.712.279-.979.279-.979a1.669,1.669,0,0,0-.64-.409c-.494-.216-2.91-.8-3.064-.876s-.85-.34-1-.393A7.551,7.551,0,0,0,36.377,29.227Z"/><path class="cls-11" d="M36.234,28.657s.426,2.606.6,3.067.809-.184,1.364.136c.277.159.941.591.97.618a1.508,1.508,0,0,1-.235-.845c.061-.588,2.036-.028,2.526.776s.513-.584.446-.711.279-.979.279-.979a1.676,1.676,0,0,0-.64-.41c-.494-.215-2.91-.8-3.064-.876s-.851-.34-1-.392A7.609,7.609,0,0,0,36.234,28.657Z"/><path class="cls-11" d="M36.062,28.248s.426,2.606.6,3.068.809-.184,1.363.135c.278.16.941.592.97.619a1.53,1.53,0,0,1-.235-.845c.062-.588,2.036-.029,2.526.776s.514-.584.446-.712.279-.979.279-.979a1.669,1.669,0,0,0-.64-.409c-.493-.216-2.91-.8-3.064-.876s-.85-.34-1-.393A7.572,7.572,0,0,0,36.062,28.248Z"/><path class="cls-11" d="M36.062,27.839s.426,2.606.6,3.067.809-.184,1.363.136c.278.159.941.591.97.618a1.527,1.527,0,0,1-.235-.845c.062-.588,2.036-.028,2.526.776s.514-.584.446-.711.279-.979.279-.979a1.676,1.676,0,0,0-.64-.41c-.493-.215-2.91-.8-3.064-.876s-.85-.34-1-.392A7.572,7.572,0,0,0,36.062,27.839Z"/><path class="cls-11" d="M36.462,30.005s.35,1.6.538,2.218l.132.487s-.3-1.869-.335-2.277a1.368,1.368,0,0,0-.2-.648S36.311,29.591,36.462,30.005Z"/><path class="cls-11" d="M56.339,25.5a9.717,9.717,0,0,1-1.119.918c-.2.078-3.366,2.01-5.126,2.959A19.92,19.92,0,0,1,44.175,31.7a5,5,0,0,1-2.469-.236c-.075-.015-2.545-.753-4-1.172-.613-.176-1.047-.271-1.047-.271a5.8,5.8,0,0,1,1.63.881,5,5,0,0,1,.519,1.248.8.8,0,0,0,.371.635s-.435-1.034-.233-1.321a.277.277,0,0,1,.125-.1,6.686,6.686,0,0,1,1.072-.054c.958-.06,1.276.773,1.74.987a12.816,12.816,0,0,0,4.181-.3A49.251,49.251,0,0,0,52.6,28.77c1.832-1.014,3.855-2.437,3.93-2.767A.5.5,0,0,0,56.339,25.5Z"/><path class="cls-4" d="M36.333,29.328s.35,1.586.524,2.191l.125.48s-.332-1.853-.38-2.259a1.715,1.715,0,0,0-.187-.637S36.2,28.921,36.333,29.328Z"/><path class="cls-12" d="M2.093,18.875l21.851,6.809.351.436.8.223,4.212-1.564,3.7.809,2.766,3.276,5.873,1.958s3.532.723,4.808,0,9.922-5.813,9.922-5.813a18.15,18.15,0,0,0,.951-4.979,7.5,7.5,0,0,0-.644-3.275,45.537,45.537,0,0,0-2.773-5.337C52.316,8.774,51.566,7.5,49.619,7.084A47.045,47.045,0,0,0,42.6,6.253V5.288L34.929,3.176l-11.065.81L23.22,4.1V15.064l-8.611-.384L1.39,15.162l.2,2.851.415.1Z"/><path class="cls-11" d="M25.093,26.343s-.1-5.968-.1-6.159V18.032H23.959L23.864,3.986l11.065-.81L42.6,5.288v.965a83.476,83.476,0,0,0-10.527.271c-4.106.511-3.372,1.511-3.845,4.426a45.743,45.743,0,0,0-.74,6.788c-.074,2.382-.009,4.548,0,4.885s-.063.423.1.528.075.114,0,.165-.093.226-.087.313.035,1.808.035,1.808L25.22,26.3Z"/><path class="cls-4" d="M37,30.024s4.614,1.3,4.72,1.319a5.041,5.041,0,0,0,2.467.234A19.93,19.93,0,0,0,50.1,29.263c1.758-.941,4.916-2.859,5.122-2.936a9.716,9.716,0,0,0,1.118-.912.493.493,0,0,1,.189.505c-.075.327-2.1,1.739-3.926,2.746a49.334,49.334,0,0,1-6.532,3.209,9.431,9.431,0,0,1-3.695.117,4.4,4.4,0,0,0-2.22-.8c-.957.059-1.287.017-1.329.155s.215.516-.233-.2A2.952,2.952,0,0,0,37,30.024Z"/><path class="cls-10" d="M33.11,24.911s6.568,1.713,8.131,2.019a9.82,9.82,0,0,0,4.772,0,34.03,34.03,0,0,0,5.617-2.019,48.482,48.482,0,0,0,4.76-2.222,3.072,3.072,0,0,0,.631-.622s.144-.067.017.491a18.529,18.529,0,0,1-.733,2.966,18.982,18.982,0,0,1-4.723,3.043c-2.255,1.127-4.234,2.574-6.085,2.914a10.127,10.127,0,0,1-4.341-.138c-.957-.245-4.333-1.319-4.333-1.319A4.314,4.314,0,0,1,36.014,29c-.078-.31-1.827-2.728-2.018-3.094A5.545,5.545,0,0,0,33.11,24.911Z"/><path class="cls-3" d="M42.118,27.987a3.034,3.034,0,0,0,1.868.271,22.4,22.4,0,0,0,3.389-.706c.616-.172,1.729-.875,1.957-.694a3.253,3.253,0,0,1-.575,2.709c-.7.724-3.223,1.478-4.547,1.576s-2.142.112-2.136-.812A12.986,12.986,0,0,1,42.118,27.987Z"/><path class="cls-3" d="M39.284,8.992c.928,2.131,2.489,5.809,3.064,7.553A10.568,10.568,0,0,0,44.241,20.5c.915,1.042,1.937.83,4.32.383a51.011,51.011,0,0,0,7.468-2.3c.978-.426,1.064-.426.957-.936a19.572,19.572,0,0,0-1.558-3.572c-.747-1.36-2.966-5.365-4.2-6.227s-10.037-.829-11.271-.7S38.819,7.925,39.284,8.992Z"/><polygon class="cls-22" points="23.241 18.031 25.013 21.327 24.997 18.032 23.241 18.031"/><path class="cls-3" d="M56.784,22.905c.094-.031.368-.168.237.151a10.233,10.233,0,0,1-.939,1.574,2.455,2.455,0,0,0-.5.882c-.055.257.019.572-.155.739s.091-1.473.208-1.621a.54.54,0,0,0,.117-.436c-.011-.181-.053-.276.128-.447A5.936,5.936,0,0,1,56.784,22.905Z"/><path class="cls-10" d="M42.22,27.13a10.243,10.243,0,0,0,5-.536c2.787-.986,6-2.342,7.33-2.969a6.392,6.392,0,0,0,2.306-1.36c.325-.441.273-.162.155.429s-1.087,1.287-1.5,1.543-5.01,2.465-6.43,3a20.986,20.986,0,0,1-4.245,1.189,5.356,5.356,0,0,1-2.281,0C41.832,28.241,42.161,27.285,42.22,27.13Z"/><path class="cls-4" d="M39.215,8.215s2.154,4.947,2.776,6.719.894,4.2,3.766,3.75a40.1,40.1,0,0,1,6.766-.766c1.085.127,2.33-1.1,3.335-1.484,0,0,.454-.2.518-.231s-.117-.5-.258-.766-3.022-5.5-3.971-6.726S50.13,7.462,47.7,7.384s-7.053-.254-7.627-.142S39.146,7.439,39.215,8.215Z"/><path class="cls-11" d="M30.493,8.79c3.559-.077,4.956-.058,5.668-.074a1.928,1.928,0,0,1,2.085.943c.483.977,2.067,4.841,2.287,5.669a18.274,18.274,0,0,1,.576,4.2c-.05,1.258-.877,1.623-2.64,1.01a44.343,44.343,0,0,1-8.026-4.424c-1.263-1.059-.957-1.671-.864-3.111S29.5,8.812,30.493,8.79Z"/><path class="cls-23" d="M39.5,8.567c.371.844,2.234,4.994,2.841,6.957s.957,3.048,2.441,3.064A46.877,46.877,0,0,0,52.747,17.2c1.516-.463,3.494-.894,3.622-1.054a26.338,26.338,0,0,0-2.218-4.34A32.965,32.965,0,0,0,51.327,7.9,38.919,38.919,0,0,0,44.5,7.4C42.2,7.418,38.86,7.1,39.5,8.567Z"/><path class="cls-3" d="M30.609,8.959c3.477-.076,4.843-.057,5.538-.073a1.88,1.88,0,0,1,2.037.926c.472.959,2.02,4.754,2.235,5.566a18.078,18.078,0,0,1,.563,4.128c-.05,1.235-.662,1.5-2.384.894a45.466,45.466,0,0,1-7.989-4.6c-1.234-1.04-.934-1.642-.844-3.055S29.641,8.98,30.609,8.959Z"/><path class="cls-23" d="M30.813,9.061c3.351-.074,4.668-.056,5.338-.072a1.8,1.8,0,0,1,1.963.91c.455.941,1.947,4.668,2.154,5.465a18.087,18.087,0,0,1,.543,4.054c-.048,1.212-.639,1.468-2.3.877a43.582,43.582,0,0,1-7.7-4.516c-1.189-1.021-.9-1.611-.813-3S29.881,9.082,30.813,9.061Z"/><path class="cls-3" d="M35.257,12.556c.814-.016,1.309-.032,1.74,0s.59.016.558,1.5-.079,3.3-.143,4.1.032.989-1.181,1.085-1.8.287-1.771-1.085.111-3.252.143-3.988S34.571,12.57,35.257,12.556Z"/><path class="cls-4" d="M35.257,12.556a.553.553,0,0,0-.546.459c.087-.2.663-.279.632-.109-.042.234-.346.118-.112-.052s.488,1.058.488,1.058c-1.872.16-.7,2.258-.275,3.6.154.486.306,2.008-.277,1.488a3.072,3.072,0,0,1-.663-1.849c-.022,1.509.041,1.74.239,1.948s1.1.176,1.1.176-.032-4.754.011-5.3a2.423,2.423,0,0,1,.68-1.3c.025-.017.027-.074.02-.144C36.219,12.535,35.816,12.545,35.257,12.556Z"/><path class="cls-3" d="M55.34,25.317s.5.7-.088,1.1-6.529,3.673-7.307,3.932.958-.7,1.36-1.341.6-1.532,1.447-1.966S55.209,24.453,55.34,25.317Z"/><path class="cls-24" d="M28.48,20.03a.413.413,0,0,1,.618-.213c.3.167.395.43.381,1.133a4.7,4.7,0,0,1-.166,1.523c-.111.16-.462.032-.67-.087s-.152-.415-.152-.75A9.969,9.969,0,0,1,28.48,20.03Z"/><path class="cls-4" d="M36.954,12.537s.362.253.415.391c0,0-.936-.287-1.053.436s.532,2.49.787,3.692.126,2.021-1.017,2.17c0,0-.259.149-.259-.947a40.423,40.423,0,0,1,.138-4.84C36.146,12.758,36.563,12.476,36.954,12.537Z"/><path class="cls-4" d="M36.247,29.187l.44,2.018.217,1.009a2.622,2.622,0,0,0,.29.951,1.331,1.331,0,0,0,.827.494l1,.239,2.017.426-2.031-.359L38,33.759a1.448,1.448,0,0,1-.914-.516,2.75,2.75,0,0,1-.346-1l-.242-1-.49-2Z"/><path class="cls-22" d="M27.309,24.056a11.418,11.418,0,0,1-2.246.421l.03,1.866,1.8-.67.636-.236-.1-1.445S27.594,23.928,27.309,24.056Z"/><path class="cls-10" d="M27.489,23.5c.05-.053.21-.062.21-.062s4.383,1.021,5.17,1.33,2.617,3.021,3.16,4.1a2.5,2.5,0,0,0,1.2,1.3,5.229,5.229,0,0,0-.689-.153,1.609,1.609,0,0,0-.338.012s-1.489-3.149-3.6-3.947a8.46,8.46,0,0,0-3.021-.8c-.2.011-.255.5-.479.554a6.955,6.955,0,0,1-1.51-.309c-.076-.02-.158-.046-.191-.218a4.431,4.431,0,0,1-.012-.856C27.412,24.024,27.381,23.617,27.489,23.5Z"/><path class="cls-25" d="M28.457,25.393c.08.019.248.087.247-.239,0-.31.083-.522-.412-.594s-.546-.117-.543.185c0,.18-.034.319.055.436C27.882,25.283,28.294,25.353,28.457,25.393Z"/><path class="cls-26" d="M28.292,24.56a2.664,2.664,0,0,0-.416-.047.606.606,0,0,0-.011.136c0,.18-.034.318.055.436.078.1.49.172.653.211a.415.415,0,0,0,.107.014.431.431,0,0,0,.024-.156C28.7,24.844,28.787,24.632,28.292,24.56Z"/><path class="cls-11" d="M27.534,23.71s2.7.694,4.221,1.125a3.624,3.624,0,0,1,2.681,1.9,33.469,33.469,0,0,1,1.9,2.931,30.247,30.247,0,0,0-2.817-3.718c-.937-.855-4.1-1.723-4.81-1.787s-.849.112-.849.112A.591.591,0,0,1,27.534,23.71Z"/><g class="cls-27"><path class="cls-3" d="M28.083,23.521l3.36.8a9.154,9.154,0,0,1,1.669.475,3.647,3.647,0,0,1,1.128,1.32l-.012.009c-.385-.419-.674-.97-1.183-1.2a12.891,12.891,0,0,0-1.638-.495l-3.328-.9Z"/></g><path class="cls-11" d="M27.486,23.035s.053.191.436.223.33.128.564.181S41.358,26.577,41.72,26.62"/><g class="cls-27"><path class="cls-28" d="M28.216,23.386a64.015,64.015,0,0,1,.617-12.1l.2-1.5.1-.752a1.23,1.23,0,0,1,.267-.732,1.407,1.407,0,0,1,.754-.2c.253-.018.506-.026.759-.032l1.516-.021,3.032-.051c.5,0,1.01-.053,1.517,0a1.852,1.852,0,0,1,1.392.581,6.108,6.108,0,0,1,.719,1.346l.619,1.384c.408.925.8,1.86,1.125,2.82a23.65,23.65,0,0,1,1.355,5.914c.113,2.031,0,4.053-.012,6.075l-.007.365c-.008.108.113.162.158.328a.451.451,0,0,1-.1.4.624.624,0,0,0-.091.33l-.025,1.512c-.021,1.01-.005,2.021-.056,3.029h-.02c.032-1.011,0-2.021,0-3.031l0-1.517a.71.71,0,0,1,.106-.39.337.337,0,0,0,.074-.307c-.008-.086-.161-.179-.168-.343V26.1l-.01-3.026c-.015-1.008.043-2.017-.041-3.018a23.512,23.512,0,0,0-1.333-5.87c-.327-.952-.7-1.889-1.094-2.818l-.6-1.391a5.981,5.981,0,0,0-.682-1.33,1.752,1.752,0,0,0-1.317-.557c-.5-.057-1.007-.007-1.511-.015l-3.028.049-1.514.04a3.365,3.365,0,0,0-1.44.227,1.168,1.168,0,0,0-.221.67l-.092.752-.185,1.5c-.234,2-.56,4-.61,6.018-.088,2.016-.1,4.037-.137,6.057Z"/></g><path class="cls-14" d="M36.88,29.535c-.022-.2-.213-.628.255-.522s4.638,1.32,4.713,1.437a4.052,4.052,0,0,1,.064.893l-.564-.045s-1.532-.41-3.175-1.023c-.3-.111-1.219-.464-1.219-.464Z"/><path class="cls-4" d="M28.505,20.35c-.006.756-.008,1.452,0,1.712s.381.411.491.411.144-.176.034-.553a4.986,4.986,0,0,1-.1-1.57.82.82,0,0,0,.085-.528C28.954,19.662,28.51,19.763,28.505,20.35Z"/><path class="cls-29" d="M28.93,22.366s-.319-.084-.352-.34a12.743,12.743,0,0,1,.032-1.646s-.044.917-.008,1.217S29.277,22.476,28.93,22.366Z"/><path class="cls-13" d="M36.981,29.146l2.5.815s-.709.056-.741.173-.093-.154-.175-.314-.3-.113-.351.075-.048-.562-.184-.179-.207-.614-.319-.143-.208-.415-.271.008-.209-.58-.216-.08-.207-.367-.159.08S36.669,28.962,36.981,29.146Z"/><g class="cls-27"><path class="cls-28" d="M42.263,26.779a9.719,9.719,0,0,0,3.95-.19,32.062,32.062,0,0,0,3.747-1.356c1.236-.492,2.467-1,3.687-1.531.61-.267,1.218-.537,1.818-.825a4.291,4.291,0,0,0,1.628-1.1,4.309,4.309,0,0,1-1.6,1.164c-.6.3-1.2.575-1.809.85q-1.823.822-3.673,1.579a32.266,32.266,0,0,1-3.778,1.314,9.756,9.756,0,0,1-1.984.276A10.779,10.779,0,0,1,42.263,26.779Z"/></g><path class="cls-13" d="M40.266,30.843a4.821,4.821,0,0,1-1.114,0c-.535-.074-.591-.287-.591-.287v-.532a.4.4,0,0,1,.352-.234C39.2,29.758,40.6,29.875,40.266,30.843Z"/><path class="cls-3" d="M38.337,21.875s.04,1.34.064,1.524a1.323,1.323,0,0,0,.5.79c.295.191.47.3.694.215s.287-.766.367-1.915.136-1.468-.455-1.5-.862-.063-.878,0,.008.734.008.734S38.335,21.8,38.337,21.875Z"/><path class="cls-15" d="M38.778,29.91c-.019,0,.384.048.57.09s.127.565.09.625-.075.182-.348.162a1.128,1.128,0,0,1-.5-.173s.557.114.718-.122S39.414,30.012,38.778,29.91Z"/><path class="cls-30" d="M36.868,29.044s-.034-.132,1.139.208,2.843.839,3.205.96a2.318,2.318,0,0,1,.636.238c.019.054-.271.109-.289.181s.054-.03-.15-.151a23.953,23.953,0,0,0-2.529-.895C38.477,29.5,36.677,29.278,36.868,29.044Z"/><path class="cls-31" d="M41.912,31.343s0-.468-.017-.636-.005-.3-.126-.269a.292.292,0,0,0-.234.269,1.549,1.549,0,0,0-.036.436C41.512,31.217,41.912,31.343,41.912,31.343Z"/><path class="cls-11" d="M42.812,27.426a10.22,10.22,0,0,0,2.705-.161,48.736,48.736,0,0,0,5.656-1.891c1.774-.755,3.2-1.431,3.945-1.83s1.268-.691,1.412-.788a1.927,1.927,0,0,0,.491-.518c.041-.116.083-.172.079-.1a2.707,2.707,0,0,1-.172.784,3.874,3.874,0,0,1-1.336,1.265,12.915,12.915,0,0,1-2.67.741c-1.032.27-2.674,1.7-4.191,2.323a14.912,14.912,0,0,1-5.772,1.26C41.348,28.343,42.812,27.426,42.812,27.426Z"/><path class="cls-14" d="M38.778,29.91a1.974,1.974,0,0,1,.844,0,.889.889,0,0,1,.614.678s.016.112-.04.159c0,0,.176-.373-.295-.577s-.367.306-.287.442a.487.487,0,0,0,.287.177h-.774s.266-.14.287-.23a1.2,1.2,0,0,0,.024-.265.549.549,0,0,0-.07-.231C39.348,30,38.961,29.927,38.778,29.91Z"/><path class="cls-4" d="M38.337,21.875a7.825,7.825,0,0,0,.869.287c.184.024.247,1.006.216,1.548s.008,1.213.176-.351a14.22,14.22,0,0,0,.1-2.019.755.755,0,0,1-.192.543c-.207.2-.766.192-.87-.16C38.64,21.723,38.335,21.792,38.337,21.875Z"/><path class="cls-4" d="M38.964,20.958l.441.026.123.007a.316.316,0,0,0-.249.3,1.511,1.511,0,0,0-.012.441c.009.058-.236.16-.3-.146A1.7,1.7,0,0,1,38.964,20.958Z"/><path class="cls-3" d="M35.7,14.169c-.08,1.786-.048,4.052,0,4.8s.1,1.643.942,1.5,1.308-.208,1.771-.271c.426-.059.576-.027.547,1.043a1.656,1.656,0,0,0,0,.345A.524.524,0,0,0,39,21.7c.031.044.185.222.2-.111a5.433,5.433,0,0,0,0-1.261c-.071-.3-.294-.578-1.467-.3s-1.524.154-1.6-.221a48.068,48.068,0,0,1-.088-5.131c.088-1.157.192-1.588.535-1.891s2.4-.215,2.624-.215.248-.168.248-.287a5.927,5.927,0,0,0-2.417,0c-.942.183-1.173.446-1.261,1.133A4.536,4.536,0,0,0,35.7,14.169Z"/><path class="cls-11" d="M46.7,21.476a1.617,1.617,0,0,0,.367.447,7.192,7.192,0,0,1,.1,3.75A11.7,11.7,0,0,0,46.7,21.476Z"/><path class="cls-11" d="M57.094,18.492s-.15,2.277-.14,2.984,0,.3,0,.3A16.636,16.636,0,0,0,57.094,18.492Z"/><path class="cls-14" d="M42.133,30.54a9.128,9.128,0,0,0,3.784-.191c1.309-.559,2.489-1.022,2.713-1.134s.34-.183.3.164-.1.571-1.422,1.177a8.958,8.958,0,0,1-4.149.957,6.864,6.864,0,0,1-1.181-.17C42.076,31.258,42.133,30.54,42.133,30.54Z"/><path class="cls-13" d="M42.122,27.31a6.5,6.5,0,0,0,1.29.15c.431-.032.4-.08.4.271s.063.766-.351.8a4.449,4.449,0,0,1-1.022-.079C42.215,28.418,42.046,28.435,42.122,27.31Z"/><path class="cls-14" d="M42.848,27.576a3.343,3.343,0,0,0,.739,0c.112-.028.223-.06.224.092a2.16,2.16,0,0,1-.1.574c-.04.08-.247.153-.351.18,0,0,.344-.222.3-.539s-.292.064-.338.184.083-.264-.181-.216S42.659,27.563,42.848,27.576Z"/><path class="cls-15" d="M42.223,27.444a3.4,3.4,0,0,0,.678.136c.295.016.207.4.144.6s-.168.264-.423.24S42.845,27.755,42.223,27.444Z"/><path class="cls-16" d="M42.7,27.557c-.238-.079.336.067.349.31a.5.5,0,0,1-.275.479c-.116.032-.187.027-.206-.1s.167-.088.206-.028S43.116,27.694,42.7,27.557Z"/><g class="cls-27"><path class="cls-3" d="M42.084,27.7q.036,1.8-.01,3.6Q42.037,29.5,42.084,27.7Z"/></g><path class="cls-16" d="M42.733,28.609a11.8,11.8,0,0,0,1.82,0c.446-.048.183.263.151.6a3.586,3.586,0,0,1-.207,1.225c-.159.215-.878.115-1.389.075s-.833.056-.823-.391-.026-.981,0-1.205S42.23,28.575,42.733,28.609Z"/><path class="cls-16" d="M44.983,30.349c.777-.173,1.612-.289,1.812-.564a3.6,3.6,0,0,0,.175-1.631c-.072-.095.008-.143-.893.1a7.446,7.446,0,0,1-1.094.247,5.539,5.539,0,0,0-.173.9c-.018.343-.05.657-.066.764S44.6,30.435,44.983,30.349Z"/><path class="cls-16" d="M47.037,29.705c.739-.237,1.513-.374,1.736-.708a3.488,3.488,0,0,0,.266-1.6,5.612,5.612,0,0,0-1.478.479s-.323.118-.408.141-.039.728-.071,1.107S46.874,29.757,47.037,29.705Z"/><path class="cls-11" d="M47.425,28.2a3.073,3.073,0,0,1,.965.4c.152.19.2.493-.414.461a.91.91,0,0,0-.838.319,2.373,2.373,0,0,1,.87-.159c.464.012.759-.1.844-.384a1.7,1.7,0,0,0-.158-1.085C48.566,27.676,47.648,27.684,47.425,28.2Z"/><path class="cls-11" d="M47.948,27.793c.354-.122.965-.359,1.056-.385s.052.385.022.579-.144.679-.144.679a.456.456,0,0,0-.2-.492.848.848,0,0,0-.835-.1,1.5,1.5,0,0,1-.418.126A.848.848,0,0,1,47.948,27.793Z"/><path class="cls-16" d="M47.946,28.037c.164-.042.661-.123.827.125a.688.688,0,0,1-.042.692c-.064.064-.064-.4-.383-.492S47.437,28.166,47.946,28.037Z"/><path class="cls-32" d="M45.428,28.693s.794.388.911.632.107.6-.518.452a.918.918,0,0,0-.925.214,2.272,2.272,0,0,1,.926-.025c.475.1.8.02.945-.287a2.163,2.163,0,0,0,.054-1.269C46.706,28.3,45.761,28.14,45.428,28.693Z"/><path class="cls-33" d="M43.782,29.884s.292.143.335.233.039.221-.191.166a.337.337,0,0,0-.34.079.846.846,0,0,1,.341-.009c.174.036.294.007.347-.106a.783.783,0,0,0,.02-.467C44.252,29.738,43.9,29.681,43.782,29.884Z"/><path class="cls-32" d="M45.481,28.973c.354-.122.964-.359,1.055-.385s.053.385.023.58-.145.678-.145.678a.455.455,0,0,0-.2-.492.854.854,0,0,0-.835-.1,1.525,1.525,0,0,1-.418.127A.847.847,0,0,1,45.481,28.973Z"/><path class="cls-33" d="M43.52,29.256c.354-.122.964-.359,1.055-.385s.053.385.023.58-.145.679-.145.679a.456.456,0,0,0-.2-.493.853.853,0,0,0-.835-.1,1.516,1.516,0,0,1-.418.127A.851.851,0,0,1,43.52,29.256Z"/><path class="cls-16" d="M46.226,28.8c.06-.021.242-.062.3.064a.467.467,0,0,1-.016.351c-.023.033-.023-.2-.14-.249S46.04,28.865,46.226,28.8Z"/><path class="cls-13" d="M40.094,30.108a3.1,3.1,0,0,0,.818.618c.446.213.5.462.5.462a3.546,3.546,0,0,0-1.146-.345c-.357.028.3-.2-.172-.68"/><path class="cls-30" d="M42.263,30.655a7.814,7.814,0,0,0,2.957,0,8.314,8.314,0,0,0,2.075-.794c.734-.3,1.489-.637,1.489-.637a20.6,20.6,0,0,1-2.532,1.209,14.782,14.782,0,0,1-3.293.963c-.65-.011-.842-.133-.841-.337s.015-.519.015-.519A.213.213,0,0,0,42.263,30.655Z"/><path class="cls-13" d="M44.465,30.876a24.854,24.854,0,0,0,3.681-1.164c.542-.316.773-.337.509-.05A14.14,14.14,0,0,1,45.1,31.016a15.672,15.672,0,0,1-1.688.127C42.852,31.155,43.749,30.967,44.465,30.876Z"/><path class="cls-16" d="M45.571,30.789a24.377,24.377,0,0,0,2.99-1.146,7.432,7.432,0,0,1-1.442.711A10.56,10.56,0,0,1,45.571,30.789Z"/><path class="cls-31" d="M42.133,30.54a13.26,13.26,0,0,0,2.706.068,9.253,9.253,0,0,0,1.433-.409,5.566,5.566,0,0,1-2.586.677c-1.37-.029-1.312-.09-1.423.109a.239.239,0,0,0,.027.313S42.01,31.17,42.133,30.54Z"/><path class="cls-11" d="M42.409,28.618a2.89,2.89,0,0,1,.769.014,10.4,10.4,0,0,0,1.282-.014,9.008,9.008,0,0,0-1.352.555.688.688,0,0,0,.128,1.137c.548.251.237.214-.183.194s-.767.084-.768-.387-.019-.844-.01-1.024S42.247,28.638,42.409,28.618Z"/><g class="cls-27"><path class="cls-3" d="M42.376,27.358a9.109,9.109,0,0,0,3.869-.294c1.257-.35,2.485-.8,3.7-1.264s2.434-.944,3.616-1.5c.591-.276,1.17-.578,1.75-.878l.861-.465a2.44,2.44,0,0,0,.78-.576,2.432,2.432,0,0,1-.773.587l-.856.477c-.576.307-1.152.616-1.74.9-1.178.567-2.384,1.071-3.6,1.544-1.225.453-2.461.883-3.725,1.218A9.118,9.118,0,0,1,42.376,27.358Z"/></g><path class="cls-12" d="M48.935,29.379a4.212,4.212,0,0,0,.486-2.282s.564-.224,1.583-.693,4.335-1.982,4.807-2.351-.366,1.057-.335,1.62.007-.05-.136-.356-.519-.155-1.3.292-2.026,1.037-2.768,1.4a2.956,2.956,0,0,0-1.593,1.409C49.324,29.152,49.31,29.256,48.935,29.379Z"/><path class="cls-11" d="M49.6,27.024s-.077.064-.169.678-.071.928.084.471A2.906,2.906,0,0,1,51.22,26.62c1.128-.532,3.873-1.947,3.915-1.99s-4.489,2.171-5,2.394S49.612,27.343,49.6,27.024Z"/><path class="cls-11" d="M33.79,25.518s5.281,1.465,6.606,1.792,1.453.242,1.453.242v2.233a2.563,2.563,0,0,0-1.835-2.323C38.21,26.918,35.881,28.49,33.79,25.518Z"/><g class="cls-27"><path class="cls-3" d="M34.305,26.258c.548.637,1.047,1.311,1.542,1.99a6.779,6.779,0,0,1,.629,1.092,1.517,1.517,0,0,0,.854.856,1.416,1.416,0,0,1-.914-.824,7.212,7.212,0,0,0-.65-1.068C35.3,27.608,34.786,26.946,34.305,26.258Z"/></g><g class="cls-27"><path class="cls-3" d="M34.652,25.311q3.189.691,6.334,1.567Q37.8,26.185,34.652,25.311Z"/></g><path class="cls-12" d="M49.866,28.584s5.241-2.859,5.294-2.891-.142-.27-.435-.145S49.693,27.749,49.866,28.584Z"/><path class="cls-11" d="M50.383,28.248c.352-.193,2.343-1.395,2.7-1.659a11.926,11.926,0,0,1,1.031-.667,30.069,30.069,0,0,0-3.476,1.758c-.747.56-.8.725-.781.853S50.189,28.355,50.383,28.248Z"/><path class="cls-28" d="M49.284,29.712c.474-.258,4.285-2.364,4.915-2.707a5.247,5.247,0,0,0,1.023-.678c.126-.112-.161-.319-.425-.191s-4.667,2.6-5.05,2.84-.562.662-.812.838S48.661,30.049,49.284,29.712Z"/><path class="cls-11" d="M49,29.862s.957-.615,1.683-1.125a32.725,32.725,0,0,1,3.655-2.019,9.377,9.377,0,0,0-1.947.834c-1.133.642-2.318,1.206-2.559,1.375a2.4,2.4,0,0,0-.57.533C49.033,29.73,48.435,30.164,49,29.862Z"/><g class="cls-27"><path class="cls-3" d="M43.953,27.22a16.656,16.656,0,0,0,2.915-.569,25.7,25.7,0,0,0,2.812-.979c1.84-.751,3.64-1.584,5.484-2.333l0,.009c-1.8.847-3.6,1.686-5.468,2.375-.933.343-1.86.7-2.81,1a11.491,11.491,0,0,1-2.936.507Z"/></g><path class="cls-11" d="M41.933,34.159a2.144,2.144,0,0,0-.534.215.876.876,0,0,0-.2.638.3.3,0,0,1-.23.314,2.028,2.028,0,0,0,.659.173C41.912,35.5,42.688,34.242,41.933,34.159Z"/><path class="cls-11" d="M42.092,34.21a2.131,2.131,0,0,0-.534.214.878.878,0,0,0-.2.638.3.3,0,0,1-.229.315,1.493,1.493,0,0,0,.528.111C41.941,35.491,42.847,34.292,42.092,34.21Z"/><path class="cls-4" d="M42.118,34.087a2.133,2.133,0,0,0-.5.279.874.874,0,0,0-.12.658.3.3,0,0,1-.189.34.682.682,0,0,0,.688.047C42.254,35.3,42.877,34.075,42.118,34.087Z"/><path class="cls-16" d="M56.13,23.886a6.519,6.519,0,0,0-.45.963c-.143.429-.2.64-.14.76s.4-.08.59-.255a3.621,3.621,0,0,0,.638-1.165,11.365,11.365,0,0,0,.332-1.2c.035-.231-.214.043-.35.279A3.343,3.343,0,0,1,56.13,23.886Z"/><path class="cls-14" d="M55.611,25.643a.918.918,0,0,0-.056.325c.008.16-.255.575.3.064s.838-.774.846-1.013-.058-.467-.207-.208S55.866,25.662,55.611,25.643Z"/><path class="cls-31" d="M56.614,24.881a2.983,2.983,0,0,0-.659.685,5.751,5.751,0,0,1-.415.625,1.168,1.168,0,0,1,.089-.493c.09-.1.787-.844.868-.887S56.722,24.623,56.614,24.881Z"/><path class="cls-30" d="M55.69,25.984s.588-.622.756-.778.415-.5.138-.3A2.608,2.608,0,0,0,55.69,25.984Z"/><path class="cls-13" d="M56.6,24.934s-.576.632-.741.791-.407.5-.133.3A2.6,2.6,0,0,0,56.6,24.934Z"/><path class="cls-16" d="M55.725,25.959c.1-.167.255-.28.37-.432a2.716,2.716,0,0,1,.389-.414l0,0a2.679,2.679,0,0,1-.371.432,5.454,5.454,0,0,1-.389.415Z"/><g class="cls-27"><path class="cls-3" d="M43.543,28.537a14.667,14.667,0,0,0,4.313-.9c.7-.241,1.369-.55,2.052-.829s1.364-.567,2.052-.84q-1.005.461-2.024.9c-.681.289-1.348.609-2.046.862A13.261,13.261,0,0,1,43.543,28.537Z"/></g><path class="cls-12" d="M42.614,31.928a7.188,7.188,0,0,0,3.539-.191,64.024,64.024,0,0,0,8.333-4.2,9.4,9.4,0,0,0,1.968-1.552.348.348,0,0,0-.073-.446l.1-.077s.99.129.787,1.367-.032,2.132-2.776,4a77.392,77.392,0,0,1-6.75,4.255,11.457,11.457,0,0,1-4.935.617c-.773-.075-.9-.085-.9-.968s-.062-1.958-.063-2.341S42.333,31.886,42.614,31.928Z"/><g class="cls-27"><path class="cls-28" d="M53.991,28.87c-1.611,1-4.723,3.074-7.292,3.744a8.963,8.963,0,0,1-4.818-.316c-.009.034-.032.059-.032.1,0,.383.063,1.458.063,2.341s.127.893.9.968a11.457,11.457,0,0,0,4.935-.617,77.392,77.392,0,0,0,6.75-4.255c2.744-1.873,2.574-2.766,2.776-4a1.77,1.77,0,0,0,.021-.432C56.7,27.442,55.321,28.049,53.991,28.87Z"/></g><path class="cls-11" d="M44.321,33.3s1.437-.149,1.535,0a.975.975,0,0,1,.039.51s.039-.362-.148-.468a1.931,1.931,0,0,0-1.269.18,7.611,7.611,0,0,0-.291,1.416S44.05,33.45,44.321,33.3Z"/><path class="cls-28" d="M46.684,33.07c.217-.067.919-.261,1.132-.368s.463-.146.422.314.031.766-.459.959-.747.312-.885.349-.361.175-.379-.4S46.479,33.132,46.684,33.07Z"/><path class="cls-11" d="M46.771,33.1c-.487.132.845-.279,1.045-.4s.471-.167.415.431-.016.687-.726.954-.934.363-.942,0c0,0,.007.187.439.083s1.029-.367,1.149-.877S47.833,32.814,46.771,33.1Z"/><g class="cls-27"><path class="cls-3" d="M47.374,32.9l.393-.144c.118-.028.295-.146.408.014a1.045,1.045,0,0,1,.009.427,3.822,3.822,0,0,1-.074.412,4.12,4.12,0,0,0,.049-.415,1.066,1.066,0,0,0-.028-.4c-.055-.115-.236-.043-.356-.012Z"/></g><path class="cls-11" d="M52.1,30.939c.015-.351-.064-.391-.328-.263l-.043.021c0,.035.006.061,0,.105-.016.351.135.782-.758,1.277-.556.307-.893.491-1.1.6.021.272.064.307.12.274.08-.048.455-.248,1.349-.743S52.085,31.29,52.1,30.939Z"/><path class="cls-4" d="M51.734,30.8c0-.044,0-.07,0-.105-.286.141-.947.485-1.353.7-.146.077-.518.092-.517.811,0,.211.006.362.014.476.209-.114.546-.3,1.1-.6C51.869,31.584,51.718,31.153,51.734,30.8Z"/><path class="cls-11" d="M56.264,27.867a1.638,1.638,0,0,1-.1.594c-.125.378-.723.765-1,.929.008.3.13.253.13.253s.965-.555,1.109-1.059C56.535,28.113,56.506,27.682,56.264,27.867Z"/><path class="cls-4" d="M56.166,28.461a1.638,1.638,0,0,0,.1-.594.4.4,0,0,0-.051.04,12.278,12.278,0,0,1-.961.8,2.994,2.994,0,0,0-.09.685C55.443,29.226,56.041,28.839,56.166,28.461Z"/><path class="cls-4" d="M55.356,28.13h-.287L51.991,30s-.113,1.428-.406,1.651.477-.44.483.118.447-1.4.447-1.4Z"/><path class="cls-4" d="M51.627,30.749s.291-.179.384-.135-.2.827-.277.9a1.175,1.175,0,0,1-.347.259c-.142.058.083-.244.119-.288A1.828,1.828,0,0,0,51.627,30.749Z"/><path class="cls-11" d="M55.3,29.306c-.046.028-.1.063-.136.084.008.3.13.253.13.253a4.567,4.567,0,0,0,.781-.587,1.708,1.708,0,0,1-.609.334C55.334,29.435,55.3,29.378,55.3,29.306Z"/><path class="cls-16" d="M55.356,28.13l-3.032,1.923L52.1,31.872l3.118-2.321A5.536,5.536,0,0,0,55.356,28.13Z"/><path class="cls-16" d="M50.157,32.956c.32-.2.663-.355.978-.556a4.268,4.268,0,0,0,.477-.29,1.376,1.376,0,0,0,.39-.389c-.139.368-.513.559-.817.765A8.351,8.351,0,0,1,50.157,32.956Z"/><path class="cls-16" d="M55.384,29.646a2.869,2.869,0,0,0,.745-.549,1.289,1.289,0,0,0,.425-.8,1.313,1.313,0,0,1-.389.835A2.9,2.9,0,0,1,55.384,29.646Z"/><path class="cls-11" d="M38.126,33.722c.993.245,2.565.5,2.78.644a.3.3,0,0,1-.071.538,1.176,1.176,0,0,1-.559.035s.433-.012.487-.314-1.123-.543-1.676-.466a2.251,2.251,0,0,1-1.782-.769C37,32.934,37.212,33.5,38.126,33.722Z"/><path class="cls-11" d="M52.1,30.939c.015-.351-.064-.391-.328-.263l-.043.021c0,.035.006.061,0,.105a1.087,1.087,0,0,1-.311.957c.283-.1.523-.135.377.129A1.092,1.092,0,0,0,52.1,30.939Z"/><path class="cls-34" d="M53.491,23.148a.142.142,0,0,1-.157-.058l-.351-.53-.073.849a.143.143,0,0,1-.154.129l-.021,0a.142.142,0,0,1-.108-.15l.107-1.253a.143.143,0,0,1,.107-.125.141.141,0,0,1,.153.059l.33.5.022-.754a.142.142,0,0,1,.146-.138.139.139,0,0,1,.137.146l-.035,1.2A.144.144,0,0,1,53.491,23.148Z"/><path class="cls-11" d="M52.1,30.939c.015-.351-.064-.391-.328-.263l-.043.021c0,.035.006.061,0,.105a1.087,1.087,0,0,1-.311.957c.283-.1.666-.3.52-.038C52.314,31.362,52.088,31.21,52.1,30.939Z"/><path class="cls-16" d="M43.108,32.625a10.006,10.006,0,0,0,2.107.113,6.653,6.653,0,0,0,2.04-.405c.649-.246,1.29-.563,1.927-.863s1.272-.618,1.9-.952a17.292,17.292,0,0,1-1.811,1.124,20.328,20.328,0,0,1-1.927.925A6.877,6.877,0,0,1,43.108,32.625Z"/><path class="cls-3" d="M53.594,23.092a.14.14,0,0,1-.157-.058l-.352-.529-.072.848a.143.143,0,0,1-.154.129l-.021,0a.141.141,0,0,1-.108-.15l.107-1.253a.144.144,0,0,1,.106-.126.14.14,0,0,1,.153.06l.33.5.023-.754a.142.142,0,0,1,.146-.138.139.139,0,0,1,.137.146l-.036,1.2A.14.14,0,0,1,53.594,23.092Z"/><path class="cls-34" d="M53.54,23.148a.141.141,0,0,1-.157-.058l-.352-.53-.072.849a.144.144,0,0,1-.154.129l-.021,0a.143.143,0,0,1-.109-.15l.108-1.253a.143.143,0,0,1,.106-.125.14.14,0,0,1,.153.059l.33.5.023-.754a.142.142,0,0,1,.146-.138.14.14,0,0,1,.137.146l-.036,1.2A.141.141,0,0,1,53.54,23.148Z"/><path class="cls-4" d="M38.226,30.648a5.671,5.671,0,0,1,.6,1.376c.083.5.221.527.221.527s-.285-.923-.083-1.208.742-.273.742-.273Z"/><path class="cls-11" d="M36.777,33.448c-.033-.213-.034-.5.329-.2.693.585,2.854.851,3.694,1.028s.258.928-.4.792a17.7,17.7,0,0,1-2.873-1.388c-.279-.168-.58-.3-.549.063S36.817,33.7,36.777,33.448Z"/><g class="cls-27"><path class="cls-28" d="M41.991,18.63c.166-.029.333-.053.5-.07a.648.648,0,0,1,.5.07v.02a.655.655,0,0,1-.5.07c-.166-.018-.333-.041-.5-.07Z"/></g><polygon class="cls-4" points="45.537 18.566 46.62 20.936 45.447 18.61 45.537 18.566"/><path class="cls-5" d="M48.837,16.92s-.941,1.006-1.221,1.325a1.77,1.77,0,0,1-.654.534c-.287.152-.63.447-.518.846s1.041.6,1.269.137c.235-.482-.441-.71-.441-.71s-.25.318-.05-.049S48.837,16.92,48.837,16.92Z"/><path class="cls-3" d="M47.416,19.566c.227-.017.312-.085.288-.2a.569.569,0,0,1,0-.67c.236-.431,1.369-1.971,1.369-1.971s2.369-.487,2.84-.639.822-.271-.2-.087-1.389.231-1.389.231-.08-.263-.143-.279a.226.226,0,0,0-.24.279c.04.231-2.385.487-2.385.487l-.072.159,1.452-.183a3.086,3.086,0,0,1-.6.752,8.889,8.889,0,0,0-1.172,1.617C47.058,19.3,47.114,19.589,47.416,19.566Z"/><path class="cls-5" d="M54.373,15.849s-.489.8-.634,1.053a1.132,1.132,0,0,1-.34.425.7.7,0,0,0-.27.673c.058.317.716.422.834.051s-.4-.507-.4-.507-.13.253-.027-.039S54.373,15.849,54.373,15.849Z"/><path class="cls-3" d="M53.809,17.894c.118-.013.162-.067.15-.156s-.3-.132-.173-.474S54.5,15.7,54.5,15.7a11.543,11.543,0,0,0,1.2-.367c.245-.12.427-.216-.1-.07a1.975,1.975,0,0,1-.616.124s-.007-.144-.041-.157-.179-.027-.158.157-1.071.306-1.071.306l-.038.127.755-.146a2.664,2.664,0,0,1-.31.6,7.8,7.8,0,0,0-.609,1.285C53.448,17.74,53.652,17.913,53.809,17.894Z"/><path class="cls-35" d="M37.965,34.653a1.183,1.183,0,0,0,.563.834,1.552,1.552,0,0,0,1.02.094,1.53,1.53,0,0,1-.529.106,1.175,1.175,0,0,1-.538-.112A1.083,1.083,0,0,1,37.965,34.653Z"/><path class="cls-4" d="M57.536,13.017a6.711,6.711,0,0,1,.177,1.88c-.138.39-.216.445-.216.445S56.975,11.869,57.536,13.017Z"/><g class="cls-27"><path class="cls-28" d="M10.08,23.5c.163.269.548.384.842.526.317.132.642.246.965.367l1.938.715,3.871,1.44q3.886,1.4,7.7,3l-.007.018q-3.91-1.338-7.748-2.87l-3.85-1.5-1.924-.752c-.32-.127-.643-.247-.959-.386-.157-.071-.314-.143-.465-.228s-.329-.155-.378-.345Z"/></g><g class="cls-27"><path class="cls-28" d="M1.67,18.032c3.744.937,7.451,2,11.178,3,3.7,1.082,7.426,2.095,11.112,3.239-3.744-.936-7.452-2-11.179-3C9.078,20.188,5.356,19.175,1.67,18.032Z"/></g><path class="cls-3" d="M2.429,18.234s.242-.018.254.122-.068.111-.085.022-.134-.06-.134-.06S2.352,18.267,2.429,18.234Z"/><path class="cls-3" d="M3.736,18.577s.324-.024.34.163-.092.149-.114.03-.18-.081-.18-.081S3.633,18.622,3.736,18.577Z"/><path class="cls-3" d="M5.731,19.161s.391-.028.41.2-.111.179-.137.036-.217-.1-.217-.1S5.607,19.215,5.731,19.161Z"/><path class="cls-3" d="M7.186,19.578s.415-.03.436.209-.118.19-.146.038-.231-.1-.231-.1S7.054,19.635,7.186,19.578Z"/><path class="cls-3" d="M9.33,20.185s.52-.038.547.262-.148.239-.183.048-.289-.13-.289-.13S9.165,20.257,9.33,20.185Z"/><path class="cls-3" d="M12,20.917s.52-.038.546.261-.147.239-.182.048-.289-.13-.289-.13S11.83,20.988,12,20.917Z"/><path class="cls-3" d="M14.527,21.672s.52-.038.546.261-.147.239-.182.049-.289-.131-.289-.131S14.362,21.744,14.527,21.672Z"/><path class="cls-3" d="M18,22.612s.569-.041.6.287-.162.261-.2.052-.316-.142-.316-.142S17.824,22.691,18,22.612Z"/><path class="cls-3" d="M22.391,23.872s.757-.055.8.381-.214.348-.265.07-.422-.189-.422-.189S22.151,23.977,22.391,23.872Z"/><path class="cls-11" d="M23.96,6.694l6.009.264a1.945,1.945,0,0,0-1.446,1.648L23.96,8.575A13.958,13.958,0,0,1,23.96,6.694Z"/><path class="cls-11" d="M23.928,8.882h4.55s-.052.507-.122,1.086-.1.781-.1.781l-4.329-.036A9.771,9.771,0,0,1,23.928,8.882Z"/><path class="cls-11" d="M23.928,11.04h4.283S28.022,12.232,28,12.4s-.073.493-.073.493H23.928A9.01,9.01,0,0,1,23.928,11.04Z"/><path class="cls-36" d="M23.928,11.04c-.005.045-.005.085-.009.13a5.192,5.192,0,0,1,1.318-.109,17.377,17.377,0,0,1,2.8.129c.21.087-.015,1.013-.174,1.355s-.685.347-.685.347h.746s.048-.326.073-.493.215-1.359.215-1.359Z"/><path class="cls-36" d="M27.81,13.588c0,.049-.015.19-.011.2.04-.274.1-.687.1-.687H23.927c0,.045,0,.089,0,.134a11.17,11.17,0,0,1,1.835-.132,7.869,7.869,0,0,1,2,.09C27.881,13.25,27.813,13.5,27.81,13.588Z"/><g class="cls-37"><path class="cls-36" d="M23.928,8.882c-.006.057-.006.108-.011.164a6.393,6.393,0,0,1,1.842-.164Z"/><path class="cls-36" d="M23.928,8.882c-.006.057-.006.108-.011.164a6.393,6.393,0,0,1,1.842-.164Z"/><path class="cls-36" d="M28.431,9.31c.028-.252.047-.428.047-.428H25.759a7.131,7.131,0,0,1,2.6.264A.255.255,0,0,1,28.431,9.31Z"/><path class="cls-36" d="M28.431,9.31c.028-.252.047-.428.047-.428H25.759a7.131,7.131,0,0,1,2.6.264A.255.255,0,0,1,28.431,9.31Z"/><path class="cls-36" d="M27.834,10.745l.415,0c.007-.046.027-.176.048-.311.015-.114.032-.255.056-.449C28.247,10.3,28.4,10.647,27.834,10.745Z"/><path class="cls-36" d="M27.834,10.745l.415,0c.007-.046.027-.176.048-.311.015-.114.032-.255.056-.449C28.247,10.3,28.4,10.647,27.834,10.745Z"/></g><g class="cls-38"><path class="cls-36" d="M29.969,6.958,23.96,6.694c-.012.15-.018.3-.023.44a.478.478,0,0,1,.333-.329,15.37,15.37,0,0,1,3.436.186c.583.1,1.043.24,1.092.493a.7.7,0,0,1-.32.715,16.772,16.772,0,0,1-2.887.354c-.663.027-.841.027-.849.027l.233,0,3.548.024a1.945,1.945,0,0,1,1.446-1.648Z"/></g><path class="cls-11" d="M24.007,6.4v-2.2L34.97,3.3,42.6,5.375v.878s-4.749-.126-7,.007a33.4,33.4,0,0,0-4.961.5Z"/><path class="cls-39" d="M25.031,22.473l2.442-.359s-.023.709.005.837.013.16.122.212.095.091,0,.144a.441.441,0,0,0-.168.329,1.51,1.51,0,0,0,.017.356,2.2,2.2,0,0,1-.83.259c-.515.062-1.155.23-1.556.226Z"/><polygon class="cls-11" points="2.018 15.213 23.241 17.676 23.241 15.192 14.616 14.754 2.018 15.213"/><path class="cls-40" d="M14.459,14.762l-.041,1.89-4.7-.546s4.387.546,4.393-.386c0-.691-2.878-.835-2.878-.835S14.372,14.767,14.459,14.762Z"/><path class="cls-11" d="M14.637,16.677l3.349.389a29.11,29.11,0,0,1-2.9-.547.856.856,0,0,1-.406-.853C14.7,14.88,17.5,14.9,17.5,14.9l-2.823-.138S14.588,16.612,14.637,16.677Z"/><g class="cls-27"><path class="cls-28" d="M14.459,14.762a9.226,9.226,0,0,1-.036,1.865A9.226,9.226,0,0,1,14.459,14.762Z"/></g><g class="cls-27"><path class="cls-28" d="M14.684,14.762a9.728,9.728,0,0,1-.047,1.915A9.806,9.806,0,0,1,14.684,14.762Z"/></g><g class="cls-27"><path class="cls-28" d="M6.043,15.064c.013.209.024.618.024.618l-.048-.006S6.029,15.271,6.043,15.064Z"/></g><g class="cls-27"><path class="cls-28" d="M6.27,15.04c.013.225.024.669.024.669L6.245,15.7S6.256,15.263,6.27,15.04Z"/></g><g class="cls-27"><path class="cls-28" d="M11.019,15.005c.014.252.025,1.232.025,1.232L11,16.23S11.006,15.255,11.019,15.005Z"/></g><g class="cls-27"><path class="cls-28" d="M11.251,14.973c.013.274.024,1.3.024,1.3l-.048-.009S11.238,15.244,11.251,14.973Z"/></g><g class="cls-27"><polygon class="cls-35" points="3.4 15.373 12.976 16.434 22.54 17.594 12.964 16.533 3.4 15.373"/></g><g class="cls-27"><path class="cls-28" d="M1.67,15.458c3.608.426,7.2.935,10.805,1.407s7.192,1.027,10.788,1.537l.045.006v.045l-.066,3.453-.036-3.453.044.05c-3.6-.488-7.2-.941-10.8-1.458S5.258,16.029,1.67,15.458Z"/></g><path class="cls-11" d="M1.67,15.458l.178,2.279s.053.053.128-.245A3.62,3.62,0,0,0,1.837,16.2c-.038-.141-.278-.392.181-.463a12.266,12.266,0,0,1,2.469.111Z"/><path class="cls-3" d="M1.67,15.458l.188,2.205a7.257,7.257,0,0,0-.018-.85c-.036-.261-.132-1.048-.135-1.153s.178-.153.433-.081a4.884,4.884,0,0,0,.925.057Z"/><g class="cls-27"><path class="cls-28" d="M2.006,17.771c1.783.356,3.56.737,5.324,1.171s3.526.883,5.305,1.255,3.549.784,5.319,1.194,3.532.856,5.29,1.32l0,.02c-1.782-.359-3.56-.735-5.329-1.15s-3.539-.827-5.3-1.277S9.072,19.475,7.3,19.089,3.758,18.257,2,17.79Z"/></g><polygon class="cls-41" points="1.67 15.458 1.84 16.813 23.241 20.915 23.256 18.453 1.67 15.458"/><path class="cls-28" d="M23.241,18.186s.032,1.493,0,2.065.073,1.326.4,1.419.721.428.674-1.486-.447-1.851-.447-1.851a2.531,2.531,0,0,1-.227-1.245C23.672,16.322,23.1,16.476,23.241,18.186Z"/><path class="cls-41" d="M23.5,16.848a5.521,5.521,0,0,0,.269,1.628,6.953,6.953,0,0,1,.281,2.638c-.095.506-.463.775-.686.214s.429-1.028.5-1.615S23.329,18.333,23.5,16.848Z"/><g class="cls-27"><path class="cls-3" d="M23.506,16.977l.242,1.257a12.143,12.143,0,0,1,.276,1.253,6.017,6.017,0,0,1,.052,1.287,1.219,1.219,0,0,1-.173.636.214.214,0,0,1-.323.019.751.751,0,0,1-.168-.279l.009,0c.084.17.292.414.428.216a1.545,1.545,0,0,0,.13-.595,9.852,9.852,0,0,0-.01-1.274,3.1,3.1,0,0,0-.1-.629,6.248,6.248,0,0,1-.2-.613,6.594,6.594,0,0,1-.178-1.273Z"/></g><path class="cls-11" d="M27.8,13.785a40.055,40.055,0,0,0-.328,4.515c-.019,2.282,0,4,0,4s0,.492,0,.57a.413.413,0,0,0,.121.3c.086.059.142.05,0,.155s-.13.35-.145.384a1.762,1.762,0,0,0,.008.282.85.85,0,0,0-.529-.808c-.543-.176.311.026.4-.711s-1.66.328-1.787.508.27-.473-.5-.508c0,0,.535-.063,1.128-.166s1.212-.457,1.216-2.056a39,39,0,0,0-.368-5.131C26.816,13.928,27.771,12.589,27.8,13.785Z"/><g class="cls-27"><path class="cls-28" d="M1.39,15.162l.52.132h0q6.932.806,13.843,1.773-6.933-.79-13.845-1.758h0Z"/></g><g class="cls-27"><path class="cls-3" d="M3.173,18.45c2.194.574,4.364,1.232,6.552,1.83s4.369,1.216,6.544,1.859l0,0q-3.285-.879-6.552-1.83c-2.178-.632-4.373-1.2-6.544-1.858Z"/></g><path class="cls-12" d="M3.638,19.274s-.08.207-.032.3S4.069,19.5,3.638,19.274Z"/><path class="cls-12" d="M6.07,20.019s-.08.206-.032.3S6.5,20.242,6.07,20.019Z"/><path class="cls-12" d="M9.429,21.078s-.08.207-.032.3S9.86,21.3,9.429,21.078Z"/><path class="cls-12" d="M13.017,22.215s-.08.207-.032.3S13.448,22.439,13.017,22.215Z"/><path class="cls-12" d="M16.936,23.419s-.08.207-.032.3S17.367,23.643,16.936,23.419Z"/><path class="cls-12" d="M21.407,24.792s-.08.206-.032.3S21.838,25.015,21.407,24.792Z"/></g></g></svg>