<svg id="Layer_1" data-name="Layer 1" xmlns="http://www.w3.org/2000/svg" viewBox="0 0 2 2"><defs><style>.cls-1{fill:#233254;}.cls-2{fill:#fff;}</style></defs><title>Icon to from</title><path class="cls-1" d="M.612.547H.534A.061.061,0,0,0,.479.506a.064.064,0,1,0,0,.128A.058.058,0,0,0,.528.605L.612.592A.016.016,0,0,0,.628.576V.563A.016.016,0,0,0,.612.547Z"/><path class="cls-1" d="M.651,1.277H.325a.038.038,0,0,1-.038-.038V.056A.038.038,0,0,1,.325.018h.692a.038.038,0,0,1,.038.038V.124a.038.038,0,0,1-.076,0V.094H.363V1.2H.651a.038.038,0,1,1,0,.076Z"/><path class="cls-1" d="M1.256,1.1a.085.085,0,1,0,.09.08A.084.084,0,0,0,1.256,1.1Z"/><path class="cls-1" d="M1.25,1.012a.177.177,0,1,0,.188.166A.177.177,0,0,0,1.25,1.012Zm.018.283a.106.106,0,1,1,.1-.113A.107.107,0,0,1,1.268,1.3Z"/><path class="cls-1" d="M.412,1.038a.05.05,0,0,0,.04.06l.653.13a.193.193,0,0,1-.013-.047A.183.183,0,0,1,1.263.987a.177.177,0,0,1,.091.021l.186-.8.111.023a.051.051,0,1,0,.021-.1L1.512.1a.052.052,0,0,0-.06.038L1.416.293h0l-.13.576.1-.491L1.378.344.926.24.85.626.842.664.805.851.823.659.628.616l-.086.4L.472,1A.051.051,0,0,0,.412,1.038ZM.65.951.688.771A.013.013,0,0,1,.7.761a.012.012,0,0,1,.01.015L.675.956a.012.012,0,0,1-.011.01h0A.014.014,0,0,1,.65.951Z"/><circle class="cls-1" cx="1" cy="1.674" r="0.308"/><circle class="cls-2" cx="1" cy="1.674" r="0.242"/></svg>