<svg id="Design" xmlns="http://www.w3.org/2000/svg" viewBox="0 0 15 15"><defs><style>.cls-1{fill-rule:evenodd;}</style></defs><title>145</title><path class="cls-1" d="M6.447,7.532V11.45a.1.1,0,0,0,.1.1H8a.1.1,0,0,0,.1-.1V7.468H9.161a.1.1,0,0,0,.1-.093l.1-1.2a.1.1,0,0,0-.1-.111H8.106V5.213a.361.361,0,0,1,.361-.361H9.28a.1.1,0,0,0,.1-.1V3.55a.1.1,0,0,0-.1-.1H7.907a1.46,1.46,0,0,0-1.46,1.46V6.064H5.72a.1.1,0,0,0-.1.1v1.2a.1.1,0,0,0,.1.1h.727Z"/><path d="M7.5.506A6.994,6.994,0,1,0,14.494,7.5,7,7,0,0,0,7.5.506Zm0,13.725A6.731,6.731,0,1,1,14.231,7.5,6.738,6.738,0,0,1,7.5,14.231Z"/></svg>