<svg id="Design" xmlns="http://www.w3.org/2000/svg" viewBox="0 0 15 15"><title>145</title><path d="M7.5.506A6.994,6.994,0,1,0,14.494,7.5,7,7,0,0,0,7.5.506Zm0,13.725A6.731,6.731,0,1,1,14.231,7.5,6.738,6.738,0,0,1,7.5,14.231Z"/><path d="M9.292,3.041h-3.5A2.652,2.652,0,0,0,3.141,5.693v3.5a2.651,2.651,0,0,0,2.651,2.652h3.5a2.652,2.652,0,0,0,2.652-2.652v-3.5A2.652,2.652,0,0,0,9.292,3.041Zm1.822,6.152a1.822,1.822,0,0,1-1.822,1.822h-3.5A1.822,1.822,0,0,1,3.971,9.193v-3.5A1.821,1.821,0,0,1,5.792,3.872h3.5a1.821,1.821,0,0,1,1.822,1.821Z"/><path d="M9.858,4.662a.518.518,0,1,0,.518.518A.518.518,0,0,0,9.858,4.662Z"/><path d="M7.557,5.326A2.174,2.174,0,1,0,9.731,7.5,2.177,2.177,0,0,0,7.557,5.326Zm0,3.567A1.393,1.393,0,1,1,8.95,7.5,1.394,1.394,0,0,1,7.557,8.893Z"/></svg>