<svg id="Layer_1" data-name="Layer 1" xmlns="http://www.w3.org/2000/svg" xmlns:xlink="http://www.w3.org/1999/xlink" viewBox="0 0 187.906 50"><defs><style>.cls-1{fill:#f2be18;}.cls-2{fill:#2e2f41;}.cls-3{fill:url(#radial-gradient);}</style><radialGradient id="radial-gradient" cx="9.072" cy="4.596" r="33.231" gradientUnits="userSpaceOnUse"><stop offset="0" stop-color="#46c2d9"/><stop offset="1" stop-color="#0074a1"/></radialGradient></defs><title>Ncarrier Logo Final</title><path class="cls-1" d="M61.07,33.758,62.7,17.489h11q4.762-.105,4.5,5.168L77.084,33.746H72.77l1.088-10.164q.288-1.572-1.168-1.468H66.7L65.543,33.758Z"/><path class="cls-2" d="M93.933,33.689H82.521q-4.927-.289-4.164-8.106T84.428,17.5l11.112.012-.393,3.942H85.331a1.819,1.819,0,0,0-1.608.775,13.338,13.338,0,0,0-.938,6.013,1.393,1.393,0,0,0,1.156,1.225l10.408.024Z"/><path class="cls-2" d="M94.546,33.642l1.1-11.019q.765-4.972,6-5.192l5.479.011q4.766.325,4.476,5.146l-1.109,11.077h-4.3l.5-4.925-7.194-.035-.484,4.937Zm5.561-10.673-.185,1.723H107.1l.15-1.352q.346-1.873-1.088-2.094l-4.347.012Q100.087,21.306,100.107,22.969Z"/><path class="cls-2" d="M112.8,17.5h11.218q5.085.843,4.833,5.5a6.589,6.589,0,0,1-2.706,5.4l2.266,5.332h-5.4l-2.2-5.1h-4.288l-.5,5.041-4.857.012Zm4.232,6.857,5.957.012a1.432,1.432,0,0,0,1.565-1.313q.2-1.29-1.243-1.509h-6Z"/><path class="cls-2" d="M130.146,17.5h11.218q5.083.843,4.833,5.5a6.59,6.59,0,0,1-2.707,5.4l2.267,5.332h-5.4l-2.2-5.1H133.87l-.5,5.041-4.857.012Zm4.232,6.857,5.956.012a1.431,1.431,0,0,0,1.565-1.313q.2-1.29-1.242-1.509h-6Z"/><path class="cls-2" d="M147.514,17.523h4.73l-1.607,16.189H145.8Z"/><path class="cls-2" d="M167.624,33.689h-11.4q-4.9-.289-4.146-8.089t6.066-8.065h11.089l-.393,3.931-9.828.012q-1.25-.045-1.492.625l-.393,1.387,11.529.012-.417,3.885L156.8,27.341l.009.913c.033.771.309,1.188.833,1.25l10.4-.012Z"/><path class="cls-2" d="M169.994,17.5h11.218q5.085.843,4.833,5.5a6.589,6.589,0,0,1-2.706,5.4l2.266,5.332h-5.4l-2.2-5.1h-4.288l-.5,5.041-4.857.012Zm4.232,6.857,5.957.012a1.432,1.432,0,0,0,1.565-1.313q.2-1.29-1.243-1.509h-6Z"/><path class="cls-1" d="M26.943,3.605l.67,6.09a.82.82,0,0,1-.7.81l-6.347,1a.82.82,0,0,1-.941-.81V8.105a.82.82,0,0,0-.773-.818l-2.738-.156V3.69a.819.819,0,0,1,.644-.8l5.753-1.263a.821.821,0,0,1,.388.009l3.435,1.178A.819.819,0,0,1,26.943,3.605Z"/><path class="cls-1" d="M18.73,9.111v1.947a.759.759,0,0,1-.647.751l-5.828.869A3.688,3.688,0,0,0,9.11,16.325v5.651L5.868,20.864V9.435l7.515-1.786a1.6,1.6,0,0,1,.65-.017l2.647.477,1.419.25A.765.765,0,0,1,18.73,9.111Z"/><path class="cls-1" d="M5.305,14.908v5.768l-2.9-.99a.819.819,0,0,1-.554-.775V15.366a.82.82,0,0,1,.619-.795l1.818-.458A.819.819,0,0,1,5.305,14.908Z"/><path class="cls-1" d="M14.568,1.673a.819.819,0,0,1,.706.811V6.9l-1.488-.174a.8.8,0,0,0-.323.027L7.57,8.457V3.275A.819.819,0,0,1,8.116,2.5l3.325-1.174a.816.816,0,0,1,.386-.039Z"/><path class="cls-3" d="M44.976,17.007a.663.663,0,0,1-.363.771,14.141,14.141,0,0,1-2.49,1.054c-.063-.594-.11-1.189-.146-1.783a.717.717,0,0,1,.48-.691,11.69,11.69,0,0,0,2.067-1.075C44.662,15.86,44.811,16.435,44.976,17.007Z"/><path class="cls-3" d="M9.224,30.029c-.044-.381.217,2.1.064,1.745s-.468-1.666-.85-1.688c-.2-.012-.265-.652-.371-.486-.212.331-.347-.362-.476.01-.079.227.551,1.094.313,1.128a3.881,3.881,0,0,1-1.139-.594,9.08,9.08,0,0,0,.267,2.7,7.635,7.635,0,0,0,.93,2.259,2.186,2.186,0,0,0,1.6,1.189,3.163,3.163,0,0,0,2.157-.588c.3-.2.764-1.135.385-1.364A5.7,5.7,0,0,1,9.224,30.029Z"/><path class="cls-3" d="M10.667,32.49a2.833,2.833,0,0,1-.415-.389,5.3,5.3,0,0,1-.776-2.18,3.247,3.247,0,0,0-.771-1.541,1.184,1.184,0,0,0-.551-.325c-.234.1-.451.2-.583.248-.459.172-.74.867-.806,1.841a3.881,3.881,0,0,0,1.139.594c.238-.034-.392-.9-.313-1.128.129-.372.264.321.476-.01.106-.166.174.474.371.486.382.022.7,1.337.85,1.688s-.108-2.126-.064-1.745a5.193,5.193,0,0,0,1.7,3.421,9.983,9.983,0,0,0,1.338.992,1.877,1.877,0,0,0,.036-.386C11.646,33.569,11.294,33,10.667,32.49Z"/><path class="cls-3" d="M22.983,35.9a1.289,1.289,0,0,1,.253-.17c-.018-.021-.017-.038-.068-.04A1.036,1.036,0,0,0,22.983,35.9Z"/><path class="cls-3" d="M27.446,43.541a20.087,20.087,0,0,1-1.479-2.862c-.424-.957-.834-1.886-1.25-2.77a6.166,6.166,0,0,0-1.447-2.147.059.059,0,0,1-.034-.029,1.289,1.289,0,0,0-.253.17.978.978,0,0,0-.11.179,5.5,5.5,0,0,0-.4,1.353c-.142.975-.271,2.032-.39,3.036a17.048,17.048,0,0,0,.424,2.593c.912,3.725,2.738,5.654,4.154,5.654a5.182,5.182,0,0,0,3.536-.965,1.9,1.9,0,0,0,.676-1.039,6.313,6.313,0,0,1-1.033-.561A8.973,8.973,0,0,1,27.446,43.541Z"/><path class="cls-3" d="M53.267,39.119a32.969,32.969,0,0,1-5.382,2.622,50.1,50.1,0,0,1-5.713,1.83,38.994,38.994,0,0,1-5.814,1.155,8.122,8.122,0,0,1-5.134-.691c-.034-.021-.065-.048-.1-.069a7.934,7.934,0,0,1-.252,2.748,9.145,9.145,0,0,0,2.386.665,14.512,14.512,0,0,0,3.377.01,38.555,38.555,0,0,0,12.1-3.74,25.958,25.958,0,0,0,5.306-3.471,10.94,10.94,0,0,0,3.64-5.094A12.7,12.7,0,0,1,53.267,39.119Z"/><path class="cls-3" d="M22.983,35.9c.174-.09.352-.254.409-.275.27-.1.743-.312,1.244-.534a2.83,2.83,0,0,0-.887-.55,1.353,1.353,0,0,0-1.344.261,2.1,2.1,0,0,0-.5.914,5.37,5.37,0,0,0-.168,1.665c.06,1.068.184,2.076.344,3.1l0-.015C21.9,38.3,22.245,36.6,22.983,35.9Z"/><path class="cls-3" d="M22.887,36.085a1,1,0,0,1,.1-.182c-.738.692-1.08,2.4-.9,4.568.119-1,.248-2.061.39-3.036A5.474,5.474,0,0,1,22.887,36.085Z"/><path class="cls-3" d="M31.126,43.966c0-.065-.513-.38-.586-.444a6.359,6.359,0,0,1-.547-.542,11.683,11.683,0,0,1-.926-1.22c-.588-.863-1.1-1.774-1.615-2.681a22.7,22.7,0,0,0-2.2-3.364c-.2-.2-.388-.419-.612-.621-.5.222-.974.433-1.244.534a1.121,1.121,0,0,0-.156.1.059.059,0,0,0,.034.029,6.166,6.166,0,0,1,1.447,2.147c.416.884.826,1.813,1.25,2.77a20.087,20.087,0,0,0,1.479,2.862,8.973,8.973,0,0,0,2.395,2.612,6.313,6.313,0,0,0,1.033.561A7.934,7.934,0,0,0,31.126,43.966Z"/><path class="cls-3" d="M6.783,31.4c-.043-.485-.134-.967-.154-1.454a2.507,2.507,0,0,1,.449-1.675,1.3,1.3,0,0,1,2.06-.013,5.307,5.307,0,0,1,.908,1.973,8.218,8.218,0,0,0,.756,2.208,8.976,8.976,0,0,0,2.34,2q1.306.959,2.638,1.884c.432.3.856.615,1.282.925q.328.238.654.478c.087.063.653.394.653.483a36.194,36.194,0,0,1-4.3-2.135,17.2,17.2,0,0,1-3.98-2.886A3.373,3.373,0,0,1,9.5,31.947a16.85,16.85,0,0,0-.837-2.917,1.476,1.476,0,0,0-.242-.392.6.6,0,0,0-.4-.2.69.69,0,0,0-.46.194,2.1,2.1,0,0,0-.614,1.308C6.874,30.423,6.881,30.921,6.783,31.4Z"/><path class="cls-3" d="M15.424,13.406l-3.39.529a2.406,2.406,0,0,0-1.713,1.075,4.105,4.105,0,0,0-.562,1.824c-.124,2.152-.046,4.16-.037,6.229-2.2-.671-4.386-1.368-6.6-1.99l-.5-.14.011.5L2.7,24.168a9.838,9.838,0,0,0,.369,2.777A9.226,9.226,0,0,0,6.5,31.223a9.491,9.491,0,0,1-2.977-4.4,10.078,10.078,0,0,1-.207-2.651l.053-2.225c2.216.766,4.453,1.466,6.68,2.2l.6.2.005-.643.027-3.409c.035-1.128-.048-2.3.035-3.358.07-1.081.487-1.979,1.466-2.095l3.335-.577c4.482-.823,8.96-1.659,13.4-2.633C24.4,12.123,19.911,12.758,15.424,13.406Z"/><path class="cls-3" d="M15.278,17.4a1.041,1.041,0,0,0-.725-.762l-1.039-.284A1.027,1.027,0,0,0,12.247,17.4l.049,5.5c.458.022.919.049,1.377.1a7.4,7.4,0,0,1,1.23.229,1.363,1.363,0,0,1,.979.714,1.287,1.287,0,0,0-1.016-.551,7.167,7.167,0,0,0-1.209-.057c-.814.016-1.613.116-2.45.181V24.63A1.042,1.042,0,0,0,12.22,25.7h3.615a.953.953,0,0,1,.371.075l1.907.678s-.694-3.076-1.369-5.069C16.3,20.081,15.278,17.4,15.278,17.4Z"/><path class="cls-3" d="M54.725,34.3a1.708,1.708,0,0,0-.219-.521h-.017V32.158A42.158,42.158,0,0,1,50.122,34.4a43.274,43.274,0,0,1-5.668,1.634v1.99h-.017q-.027,1.6,0,3.207h.034a3.626,3.626,0,0,0,.218-.8c.047-.267.043-.534.066-.8,0-.036-.007-.072-.009-.109a42.915,42.915,0,0,0,5.492-2.135,36.716,36.716,0,0,0,4.234-2.569c0,.349-.009.7,0,1.046h.034a1.751,1.751,0,0,0,.218-.52,3.851,3.851,0,0,0,.066-.52A3.994,3.994,0,0,0,54.725,34.3Z"/><path class="cls-3" d="M55.033,22.98a.415.415,0,0,0-.074-.064Z"/><path class="cls-3" d="M48.436,20.785c-1.434-.379-2.9-.649-4.3-1.046a4.121,4.121,0,0,1-1.841-.92c-.526-.472-1.026-1.025-1.536-1.557a42.782,42.782,0,0,0-3.226-3.082c-1.15-.9-2.516-1.87-4.048-1.759a3.216,3.216,0,0,1,1.191.329c.022.024.013.053-.111.077-.739.142-5.648,1.086-7.42,1.386-2.507.425-10.179,1.409-10.179,1.409a1.208,1.208,0,0,0-.894,1.589l2.991,7.476a1.208,1.208,0,0,0,1.452.762s10.575-1.732,14.279-2.8a44.849,44.849,0,0,0,7.018-2.695h0l.165-.082a1.138,1.138,0,0,1,.834.016l.03.009a5.559,5.559,0,0,0,1.168.346A33.589,33.589,0,0,0,48.436,20.785Z"/><path class="cls-3" d="M55.033,22.98c.145.153.368.648-.685,1.975-1.342,1.688-6.033,3.187-13.745,5.06a51.386,51.386,0,0,1-14.345,1.377,2.409,2.409,0,0,0,1.4,2.841c-.015-.035-.035-.062-.05-.1a.634.634,0,0,1,.381-.749l.058-.029c.471-.225,1.02-.065,1.116.316A1.631,1.631,0,0,0,30.4,34.914c.339.084.465.172.486.256.1.014.181.032.28.045A2.852,2.852,0,0,1,30.593,33a11.126,11.126,0,0,1-4.272-1.37l.006-.065a16.151,16.151,0,0,0,6.06.5c2.156-.171,8.25-1.161,8.25-1.161a10.846,10.846,0,0,1,0,1.151s-1.24.145-2.864.331a1.753,1.753,0,0,1,.213.948,1.393,1.393,0,0,1-.627,1.1,1.376,1.376,0,0,1-1.9-.036,1.984,1.984,0,0,1-.33-1.716l-.486.054a2.186,2.186,0,0,1-.433,2.323,3.526,3.526,0,0,1-.444.378,50.442,50.442,0,0,0,6.651-.092,9.4,9.4,0,0,0,.844-4.671c.815,2.414.586,3.79.14,4.572a14.221,14.221,0,0,0,2.546-.481c2.489-.812,7.216-1.7,10.024-4.653A8.145,8.145,0,0,1,52.3,27.24a7.343,7.343,0,0,0,2.093,2.347c.109-.135.212-.275.322-.408,0-.069-.008-.136-.008-.206,0-1.454.438-2.633.979-2.633a.479.479,0,0,1,.311.148A3.54,3.54,0,0,0,55.033,22.98ZM38.092,32.766a.151.151,0,0,1,.094-.115.735.735,0,0,1,.216-.024l.24-.017c.668-.043,1.335-.089,2-.142-.009.093-.023.22-.043.373-.164.022-.833.06-.889.064a11.718,11.718,0,0,1-1.325.021C38.292,32.922,38.092,32.9,38.092,32.766Zm.115.657c.026-.065.149-.118.212-.138a1.764,1.764,0,0,1,.442-.032c.564-.022,1.128-.043,1.692-.067-.018.12-.037.242-.059.371-.152.01-.737-.006-.791-.006l-.668,0a6.178,6.178,0,0,1-.639-.012C38.34,33.528,38.169,33.514,38.207,33.423Zm.1.515a.592.592,0,0,1,.392-.094,15.453,15.453,0,0,1,1.733.041c-.032.155-.068.308-.108.456-.345-.029-1.117-.135-1.192-.144-.252-.03-.507-.052-.757-.1a.223.223,0,0,1-.077-.024.082.082,0,0,1-.041-.065A.1.1,0,0,1,38.308,33.938Zm1.09,1.014a6.435,6.435,0,0,1-.893-.164c-.063-.02-.2-.072-.21-.156s.119-.078.175-.071c.574.076,1.152.124,1.728.183a2.206,2.206,0,0,1-.143.314l-.214-.037Zm10.127-3.481a.278.278,0,0,1-.33-.038l-.925-.858.255,1.671a.282.282,0,0,1-.237.32.19.19,0,0,1-.041,0,.282.282,0,0,1-.279-.239l-.377-2.468a.283.283,0,0,1,.147-.291.279.279,0,0,1,.323.043l.867.8-.307-1.467a.28.28,0,0,1,.217-.333.275.275,0,0,1,.332.217l.491,2.332A.28.28,0,0,1,49.525,31.471Z"/></svg>