<svg xmlns="http://www.w3.org/2000/svg" xmlns:xlink="http://www.w3.org/1999/xlink" viewBox="0 0 60 40"><defs><style>.cls-1{isolation:isolate;}.cls-2{fill:#0e192d;}.cls-11,.cls-3{fill:#233254;}.cls-4{fill:#eae8e4;}.cls-5{fill:#a4b6c1;}.cls-10,.cls-11,.cls-6,.cls-9{mix-blend-mode:multiply;}.cls-7,.cls-9{fill:#dbd9d5;}.cls-8{fill:#fff;}.cls-10,.cls-11{opacity:0.44;}.cls-12{fill:#c3bfbe;}.cls-13{fill:url(#Chrome);}.cls-14{fill:#fc8900;}.cls-15{fill:#f95900;}.cls-16{fill:#f9b800;}.cls-17{fill:url(#Chrome-2);}</style><linearGradient id="Chrome" x1="5.118" y1="35.083" x2="6.404" y2="35.083" gradientTransform="translate(-2.985 -8.796) rotate(-6.067)" gradientUnits="userSpaceOnUse"><stop offset="0" stop-color="#e5e2df"/><stop offset="0" stop-color="#d6d7d7"/><stop offset="0" stop-color="#d1d3d4"/><stop offset="0.068" stop-color="#edeeee"/><stop offset="0.107" stop-color="#fff"/><stop offset="0.13" stop-color="#f5f5f6"/><stop offset="0.17" stop-color="#dbdcdd"/><stop offset="0.22" stop-color="#b1b2b4"/><stop offset="0.247" stop-color="#97999c"/><stop offset="0.272" stop-color="#9a9c9e"/><stop offset="0.287" stop-color="#a2a4a7"/><stop offset="0.299" stop-color="#b0b2b4"/><stop offset="0.309" stop-color="#c4c6c8"/><stop offset="0.315" stop-color="#d1d3d4"/><stop offset="0.364" stop-color="#c7c9ca"/><stop offset="0.446" stop-color="#adafb0"/><stop offset="0.552" stop-color="#838586"/><stop offset="0.646" stop-color="#58595b"/><stop offset="0.678" stop-color="#616265"/><stop offset="0.731" stop-color="#7a7c7f"/><stop offset="0.742" stop-color="#808285"/><stop offset="0.743" stop-color="#797a7d"/><stop offset="0.75" stop-color="#5a595c"/><stop offset="0.757" stop-color="#424041"/><stop offset="0.765" stop-color="#312d2f"/><stop offset="0.773" stop-color="#262324"/><stop offset="0.781" stop-color="#231f20"/><stop offset="0.79" stop-color="#4b4848"/><stop offset="0.802" stop-color="#7a7878"/><stop offset="0.815" stop-color="#a3a1a2"/><stop offset="0.827" stop-color="#c4c3c3"/><stop offset="0.84" stop-color="#dedede"/><stop offset="0.853" stop-color="#f0f0f0"/><stop offset="0.867" stop-color="#fbfbfb"/><stop offset="0.882" stop-color="#fff"/><stop offset="0.897" stop-color="#eaebec"/><stop offset="0.921" stop-color="#d0d2d3"/><stop offset="0.946" stop-color="#bebfc2"/><stop offset="0.972" stop-color="#b3b5b7"/><stop offset="1" stop-color="#afb1b4"/></linearGradient><linearGradient id="Chrome-2" x1="21.38" y1="28.419" x2="24.551" y2="36.89" gradientTransform="matrix(0.989, -0.148, 0.148, 0.989, -4.501, 3.703)" xlink:href="#Chrome"/></defs><title>Icon Set sample</title><g class="cls-1"><g id="Layer_1" data-name="Layer 1"><path class="cls-2" d="M13.411,26.814s1.7.487,2.1.59,1.793.278,1.793.278-.077-.645-.069-.828-.03-.717-.143-.69a7.86,7.86,0,0,1-.894.323A12.511,12.511,0,0,1,13.411,26.814Z"/><path class="cls-3" d="M51.6,14.476c2.091-.039,3.495.019,4.125-.093s.878-.455.83-1.42.3-.208.319.247A1.274,1.274,0,0,1,56,14.67a25.714,25.714,0,0,1-4.54.092S51.165,14.485,51.6,14.476Z"/><path class="cls-3" d="M50.869,14.891a1.711,1.711,0,0,1,.144-.535c.09-.114.318-.126.523-.108s.372.246.366.673-.06.547-.294.547S50.9,15.281,50.869,14.891Z"/><path class="cls-2" d="M51.252,14.32a.487.487,0,0,1,.337.024.339.339,0,0,1,.175.289A.8.8,0,0,0,51.252,14.32Z"/><path class="cls-3" d="M50.617,14.769c.061-.038,1.231.1,1.327.1s.18.16.159.373.284,1.878-.971,2.085S50.375,14.918,50.617,14.769Z"/><path class="cls-2" d="M50.844,14.965s.039-.157.143-.187a5.928,5.928,0,0,1,.827.077s-.767-.05-.719.266.537.421.765.833a1.188,1.188,0,0,1-.405,1.294c-.3.2-.64-.869-.632-1.15S50.844,14.965,50.844,14.965Z"/><path class="cls-3" d="M13.273,27.3,17.6,28.354l-.511-.783-3.676-.893S12.683,26.784,13.273,27.3Z"/><path class="cls-3" d="M6,28.15s.408.915,1.216.823,2.886-.322,3.618-.408.855-.125,1.116-.661a6.4,6.4,0,0,0,.3-2.121,16.423,16.423,0,0,0-.613-3.258c-.352-.633-.438-.792-.68-.978s-.735-.078-1.132-.072-3.495-.181-3.973.327a3.677,3.677,0,0,0-.58,1.794C5.272,23.632,6,28.15,6,28.15Z"/><path class="cls-3" d="M4.273,21.668a9.919,9.919,0,0,1,.447-1.133c.208-.4.23-.511.921-.367A2.834,2.834,0,0,1,7.577,22.4c.4,1.436,4.228.255,4.228.255l1.468-.447.32-.431-.527-1.971L8.5,18.5l-1.547-.377L5.85,19.642l.143.216s-.986-.233-1.225.142A7.986,7.986,0,0,0,4.273,21.668Z"/><ellipse class="cls-3" cx="25.951" cy="30.677" rx="3.107" ry="5.42" transform="translate(-4.665 4.655) rotate(-9.408)"/><path class="cls-2" d="M16.757,24.764l.394.319.321-.042.268,1.019a10.448,10.448,0,0,1,.161,1.982c-.08.519.08,1.256.016,1.51s-.862.312-.862.312l-.049-1.407.342-.006.124-.234-.64-.773-.165-1.532Z"/><path class="cls-3" d="M21.722,36.358s.576.749,2.729.268,3.159-.514,3.89-1.7-1.432-4.007-1.432-4.007-2.2-1.221-2.275-1.2.145,3.63.057,4.021.335,1.6-1.1,1.6S20.847,35.676,21.722,36.358Z"/><path class="cls-3" d="M4.38,21.71s-.181,3.052-.2,3.789c0,0-.107.324.34.26S6.9,25.381,6.9,25.381L6.3,22.13s-.547-.808-.561-.84S4.539,20.374,4.38,21.71Z"/><path class="cls-2" d="M9.3,23.04a1.768,1.768,0,0,1,.338.762c.077.451.125.962.125.962s-.208-1.612.1-1.724-1.675.048-1.739-.128-.925-1.947-.949-2.058a1.654,1.654,0,0,0-.65-.654c-.22-.064-1.05-.144-1.146-.2a.511.511,0,0,0-.574.168,6.13,6.13,0,0,0-.475,1.346c-.043.112-.087.171,0,.238a15.3,15.3,0,0,1-.05,1.64c.012.943-.043,2.246-.043,2.246a10.729,10.729,0,0,1,.553-2.03c.361-.853.06.967.307,1.508s.342.046.342-.833,0-1.65,0-1.706a4.276,4.276,0,0,1,.3-.624c.111-.19.333-.292.817-.405s.915,1.17,1.154,1.4A2.058,2.058,0,0,0,9.3,23.04Z"/><ellipse class="cls-3" cx="10.957" cy="24.949" rx="1.264" ry="3.554" transform="translate(-2.801 1.428) rotate(-6.614)"/><path class="cls-4" d="M2.022,18.63a.821.821,0,0,0,.2.288c.1.064.059.132.047.24s.012.052.06.124a.449.449,0,0,1,.02.321c-.032.064.156.08.2.028s.169-.212.024-.333,0-.508,0-.508.048-.2-.118-.269S1.97,18.365,2.022,18.63Z"/><path class="cls-2" d="M18.3,26.918s.239.151,0,1.36-.641,2.613-.641,2.613-.034.957,0,1.2,1.215,0,2.077-.4a10.786,10.786,0,0,1,3.5-.128s2.829.4,2.938,1.309.253,2.026.253,2.026,2.506.8,3.447,1.038a3.07,3.07,0,0,0,1.629,0l.126-2.258s-3.558-2.136-3.558-2.2-.878-3.038-.878-3.2A11.4,11.4,0,0,0,25.9,24.847a4.571,4.571,0,0,0-2.126-1.408,28.623,28.623,0,0,0-3.459-.239s-.734.654-.766,1.037-.248.962-.435,1.024-.3,0-.283.284S18.68,26.787,18.3,26.918Z"/><path class="cls-3" d="M12.2,21.737s-1.83.138-1.968.532a6.026,6.026,0,0,0-.149,1.617c0,.489-.011,1.734.3,2.021a17.307,17.307,0,0,0,3.276,1.255,4.421,4.421,0,0,0,2.7-.385,13.309,13.309,0,0,0,1.511-1.392l.605-1.138s-1.169-.638-1.552-.787a7.892,7.892,0,0,1-1.308-1.191,2.908,2.908,0,0,0-1.224-.458A10.329,10.329,0,0,0,12.2,21.737Z"/><path class="cls-3" d="M2.887,18.79,3.014,20.2s-.024.047.185.064.138-1.436.138-1.436Z"/><path class="cls-3" d="M20.052,27.205c.61-.91,1.145-1.3,3.359-1.44s3.666,3.318,3.666,3.318l.3,6.114s-1.867.912-2.059.944a3.8,3.8,0,0,1-1.406-.654,27.408,27.408,0,0,1-2.476-4.81A22.711,22.711,0,0,0,20.052,27.205Z"/><path class="cls-2" d="M2.476,18.8v.463L2,19.222V19.7H2.6l.319-.114V18.73S2.538,18.342,2.476,18.8Z"/><path class="cls-3" d="M17.622,26.447a33.112,33.112,0,0,1-.016,3.351c-.115.275-.174.441-.486.527s.135.488.421.291a5.954,5.954,0,0,0,.85-2.691,8.054,8.054,0,0,0,.027-1.377C18.362,26.3,17.61,26.023,17.622,26.447Z"/><path class="cls-2" d="M21.723,25.953s1.731-.376,2.242.542a22.871,22.871,0,0,1,1.46,3.486,11.562,11.562,0,0,1,.7,3.336c-.04,1.077.95.957,1.341.586a.774.774,0,0,0,.175-.85,6.194,6.194,0,0,1-1.62-2.274,23.206,23.206,0,0,0-2.253-5.074C23.263,25.242,22.888,25.187,21.723,25.953Z"/><path class="cls-3" d="M26.837,33.3c.043-.032,1.192.553,1.532.68A10.2,10.2,0,0,1,30.9,35.246c.2.352.4.757-.415.608S27.763,35,27.518,34.442,25.837,34.045,26.837,33.3Z"/><path class="cls-4" d="M1.7,14.535,1.816,18.5l.872.393,11.585,3.373.415,1.372,2.617.9.447.107-.17.532.042,1.766s.724.319.894,0,.6-1.7.6-1.7a.346.346,0,0,0,.447-.17,6.283,6.283,0,0,0,.425-1.127s2.319.468,3.17,1.489a9.81,9.81,0,0,1,2.383,4.34,16.472,16.472,0,0,1,.617,3.085l4.979,2.043s-.149,1.149.575,1.383a11.278,11.278,0,0,0,5.744-.575c2.575-.893,11.192-4.106,12.745-5.319a3.879,3.879,0,0,0,1.191-3.6c-.063-.171-.659-.511-.659-.511s.468-.021.532-1.021.108-4.362.192-5.4,0-2.851,0-2.851a10.906,10.906,0,0,0-.873-3.053c-.91-2.489-2.729-7.165-3.846-8.729S33.918,2.551,29.747,2.519A43.658,43.658,0,0,0,19.832,4.13l-2.394-.223-.016-1.1s-.654-.223-.861-.128.063,11.282.063,11.282h-.7Z"/><path class="cls-3" d="M50.1,24.068c.032,0,1.292-.681,1.292-.681a5.017,5.017,0,0,0-.138,1.222c.011.66.271,1.782-1.261,2.069s-1.2.371-1.2.371S49.438,24.155,50.1,24.068Z"/><path class="cls-2" d="M10.283,24.657a.258.258,0,0,1,.222,0,1.6,1.6,0,0,1,.662.981c.016.386-.1.362-.1.362s.463.359.295-.128-.317-.917.391-.663.838.472.878.687a1.527,1.527,0,0,1,0,.62c-.04.019.072-.139.16.056s-.032-.237-.072-.676.71-.191.806-.079a.692.692,0,0,0,.319.267c.175.068.215.5.183.693a1.562,1.562,0,0,1-.063.276,2.466,2.466,0,0,1,.734-1.157c.462-.279,1.067-.138.8.559s.024.674.405.52.488.036.536-.246-.362-1.073-.061-1.344a2.855,2.855,0,0,1,.684-.436v-.666L16.5,24.2l-.126.6-.1.364-.117.148-.216.166s-.909.12-1.356.2a6.238,6.238,0,0,1-2.178-.366,12.345,12.345,0,0,1-1.285-.551,4.741,4.741,0,0,0-.836-.381S10.038,24.16,10.283,24.657Z"/><path class="cls-4" d="M50.858,22.418s.479-.6.586-.777.255-.181.329,0a4.324,4.324,0,0,1-.212,1.777,5.332,5.332,0,0,1-1.263.67.451.451,0,0,1-.227,0A4.922,4.922,0,0,1,50.858,22.418Z"/><path class="cls-3" d="M38.458,25.606s10.507-2.422,11.124-2.72A2.091,2.091,0,0,1,50.6,22.63L51.39,21.5l-.851.915s-.574.191-1,.319-11.468,2.638-11.468,2.638Z"/><path class="cls-3" d="M30.2,4.524c.423,2,1.467,7.021,1.871,8.447a38.867,38.867,0,0,0,1.192,4.669c.532,1.118.957,1.269,2.383,1.842s3.4.3,6.234,0,8.028-1.11,8.641-1.459a1.6,1.6,0,0,0,.742-.981l.192-.029a5.742,5.742,0,0,0-.3-1.446c-.163-.544-.456-1.294-.79-2.129-.95-2.376-2.528-7.481-4.217-8.35S41.184,3.85,39.439,3.615s-7.41-.729-8.474-.751S29.984,3.5,30.2,4.524Z"/><path class="cls-2" d="M30.273,3.928c.252,1.666,1.926,8.032,2.234,9.415s.362,2.234,1.192,2.6,5.606.117,7.489,0,6.958-.532,8.266-.7,1.524-.169,1.326-.723-1.845-4.747-2.509-6.127-1.189-2.969-2.242-3.352a90.083,90.083,0,0,0-9.415-1.479c-2.383-.255-5.3-.426-5.713-.394S30.188,3.364,30.273,3.928Z"/><path class="cls-5" d="M31.135,6.758c.444,2.043,1.362,5.657,1.617,6.85s.128,2,2.489,1.959,9.064-.439,11.171-.624,3.936-.342,4.17-.334-.766-2.164-1.426-4.042A22.725,22.725,0,0,0,46.624,5.4c-.588-.65-8.829-1.574-11.276-1.723s-3.349-.19-3.908-.2S30.2,3.411,30.425,4,31.135,6.758,31.135,6.758Z"/><path class="cls-2" d="M38.135,18.572s5.282-.431,6.16-.527.51.128.4.351a51.625,51.625,0,0,1-6.192.671C38.279,19.051,37.816,18.747,38.135,18.572Z"/><path class="cls-2" d="M46.122,17.758c1.01-.109,3.072-.391,3.566-.479s.873-.34.83-.191-.34.383-1.064.574-2.973.543-3.332.575S45.054,17.873,46.122,17.758Z"/><path class="cls-3" d="M39.688,25.109,49.4,22.886l.181-.107a13.471,13.471,0,0,1-.411,1.927,7.244,7.244,0,0,1-.738,1.726A14.989,14.989,0,0,1,43.188,28.4c-2.84.585-2.683.509-2.9,0a8.119,8.119,0,0,1-.351-1.649l-.106-1.2-.395-.4Z"/><path class="cls-2" d="M39.3,25.412s.424-.207.477.474a11.2,11.2,0,0,0,.543,2.819c.255.425.266.617,2.574-.107s5.341-1.457,5.713-2.308a14.432,14.432,0,0,0,.979-3.4H49.4s.053.638-.925,1.085-.947.33-.947.33,1.52-.418,1.691-.415-.149.766-.287.829-2.564.724-2.564.724a12.525,12.525,0,0,1,2.107-.426c.5.022.393.479.255.777s-.128,1.053-3.117,1.872a20.99,20.99,0,0,1-4.681,1.022c-.532-.032-.894-1.086-.883-1.309s3.032-.84,3.957-1.117a5.516,5.516,0,0,0,1-.34s-2.75.744-3.481.883-.976.212-1.221.032-.351-.554.734-.777,2.575-.649,2.575-.649a15.518,15.518,0,0,1-3.181.489c-.979-.063-.366-.662.846-.946s2.29-.54,2.29-.54Z"/><path class="cls-4" d="M40.316,26.237s4.213-1.075,4.638-1.192,3.282-.934,3.425-.971.948-.284.948-.284-.1.723-.394.925-3.926,1.2-3.926,1.2-2.951.8-3.588.934-1.013.22-1.242-.161S40.316,26.237,40.316,26.237Z"/><g class="cls-6"><path class="cls-7" d="M40.363,26.444c-.046.037.089.235.2.211a2.723,2.723,0,0,0,.545-.065c.373-.075.745-.171,1.117-.268.744-.2,1.49-.4,2.24-.578l2.25-.531a20.153,20.153,0,0,0,2.227-.6,19.827,19.827,0,0,1-2.212.664l-2.234.592c-.744.2-1.48.421-2.221.638-.37.107-.741.214-1.122.3a2.893,2.893,0,0,1-.6.085.46.46,0,0,1-.194-.044.529.529,0,0,1-.143-.113.365.365,0,0,1-.08-.4Z"/></g><g class="cls-6"><path class="cls-7" d="M49.156,24.007c-.465.2-.952.323-1.427.487-.489.117-.967.271-1.466.353.465-.2.952-.323,1.427-.487C48.179,24.244,48.657,24.089,49.156,24.007Z"/></g><path class="cls-2" d="M10.205,22.77s-.006.219,0,.4.017.966.017.966a1.107,1.107,0,0,0-.129.245,1.458,1.458,0,0,0,.013.484c.043.4.021.944.467,1.172a13.634,13.634,0,0,0,1.67.564s.016.024-.027.291a2.542,2.542,0,0,1-.552,1.024s.519-.889.306-1.294-1.141.123-1.141.123a.712.712,0,0,0-.391-.694c-.444-.219-.42.525-.42.525a8.864,8.864,0,0,0-.064-1.623,4.539,4.539,0,0,0-.213-.957,4.68,4.68,0,0,0,.235.453,1.991,1.991,0,0,0,.048-1.242.82.82,0,0,0-.565-.163L9.427,23l.565-.018.182.024Z"/><path class="cls-8" d="M45.819,27.359a.14.14,0,0,1-.157-.058l-.351-.529-.073.848a.142.142,0,0,1-.154.129l-.021,0a.142.142,0,0,1-.108-.15l.107-1.253a.143.143,0,0,1,.106-.125.14.14,0,0,1,.154.059l.329.5.023-.754a.142.142,0,0,1,.146-.138.138.138,0,0,1,.137.146l-.035,1.2A.142.142,0,0,1,45.819,27.359Z"/><path class="cls-9" d="M18.819,6.452s.3-.183.274.519-.126,3.851,0,4.979.637,1.638,2.062,2.4,6.7,3.632,7.134,3.821-7.687-4.225-8.2-6.311a37.07,37.07,0,0,1-.543-6.212S19.056,5.422,18.819,6.452Z"/><path class="cls-3" d="M19.273,6.715a37.835,37.835,0,0,0,0,4.465c.128,1.488.208,1.844,2.394,3.174s4.6,2.832,6.3,3.669,2.077.749,2.1-.919-.253-8.814-.549-10.9-.572-3.064-3.785-2.575-4.3.675-5.3.912-1.638.152-1.809,2.046-.191,2.362-.191,2.362.021-2.235.532-2.7S19.273,6.715,19.273,6.715Z"/><path class="cls-2" d="M26.241,4.375c-1.788.248-5.17.681-5.851.851s-.936.979-.808,4.17-.064,3.128,2.894,4.958,5.415,3.661,6.346,3.384.151-6.766.143-7.916A16.566,16.566,0,0,0,28.5,5.333,2,2,0,0,0,26.241,4.375Z"/><path class="cls-5" d="M20.981,5.3c3.018-.483,4.707-.67,5.952-.75S28.784,5.886,28.9,7.689s.506,7.835.388,9.048-.149,1.656-3.628-.608S21.922,13.8,20.773,13s-.966-3.256-.87-4.692S19.982,5.455,20.981,5.3Z"/><path class="cls-3" d="M28.9,7.689c-.734,0-1.468-.144-1.66,1.516a17.8,17.8,0,0,0-.1,4.245c.16.877,1.2.861,1.82.829s1.547-.032,1.611-.925.287-4.209-.111-4.943S28.9,7.689,28.9,7.689Z"/><path class="cls-3" d="M31.09,35.479l.077-4.237a1.858,1.858,0,0,1,.2-.75c.174-.255-.145.84,1.658.883a19.9,19.9,0,0,0,4.5-.7l1.292-.223s9.064-3.106,9.287-3.169a10.942,10.942,0,0,0,1.158-.562c.071-.045,1.408-.28,1.424-.358s-.035-.135.095-.028.232.248.219.336-.143.388-1.1.675-6.758,2.5-6.758,2.5l-5.414,1.535a17.428,17.428,0,0,1-3.578.811A15.8,15.8,0,0,1,31.8,32.1l-.388.261.595,3.974S31.111,36.192,31.09,35.479Z"/><g class="cls-10"><path class="cls-3" d="M28.465,8.168a3.233,3.233,0,0,0-.375,1.583c.024.526.031,1.143.012,1.7l-.094,1.686c0,.132,0,.272.005.38a.287.287,0,0,0,.117.229,1.524,1.524,0,0,0,.75.277,1.368,1.368,0,0,1-.929.044.714.714,0,0,1-.411-.419,2.464,2.464,0,0,1-.116-.471,9.8,9.8,0,0,1-.071-1.754,16.1,16.1,0,0,1,.157-1.736A2.251,2.251,0,0,1,28.465,8.168Z"/></g><path class="cls-2" d="M31.275,30.689a.937.937,0,0,0-.082.368c0,.18.229,1.041,2.3.773a27.114,27.114,0,0,0,5.667-1.141c1.639-.6,7.766-2.793,8.905-3.122s2.652-.655,2.724-1.016-.166-.261-.166-.261a10.854,10.854,0,0,1-1.234.759c-.447.2-3.949,1.239-4.476,1.408A44.6,44.6,0,0,1,39.6,30.1c-3.04.734-6.526,1.221-6.973.734S31.493,30.1,31.275,30.689Z"/><path class="cls-11" d="M29.049,14.354a2.906,2.906,0,0,1-.222-.659c-.042-.282.162-.324.331-.66s.012-.115.114.1.426.324.468.5a.341.341,0,0,1-.294.4C29.266,14.026,29.049,14.354,29.049,14.354Z"/><path class="cls-11" d="M29.747,8.487c0-.176-.1-.319-.231-.319s-.232.143-.232.319a.293.293,0,0,0,.185.292c0,.331-.012,1.344,0,1.894.016.662.12.79.112-.319,0-.686,0-1.252,0-1.585A.3.3,0,0,0,29.747,8.487Z"/><path class="cls-9" d="M17.6,19.067s.112.384.191.75,0,.383,0,.383h.543l.2.127L31,23.554s6.5,1.468,6.654,1.529S20.1,19.928,20.1,19.928l-1.67-.323-.325-.367Z"/><path class="cls-9" d="M26.016,29.329c.853,1.086,5,1.776,5,1.776s-4.008-1.093-4.8-2.194c-.523-.725-1.857-2.934-1.857-2.934A37.326,37.326,0,0,0,26.016,29.329Z"/><g class="cls-6"><path class="cls-7" d="M18.157,22.769l-.018-1.81c0-.292.128-.631.138-.869A5.065,5.065,0,0,1,18.1,19.2c-.091-1.213.016-2.412.014-3.619.058-2.408.051-4.824.257-7.229.047-.6.094-1.2.176-1.8.046-.306.112-.592.18-.892a1.293,1.293,0,0,1,.49-.783,6.255,6.255,0,0,1,1.751-.512c.593-.113,1.188-.207,1.784-.295l3.576-.547a4.445,4.445,0,0,1,1.811.07A2.053,2.053,0,0,1,29.458,4.8a29.411,29.411,0,0,1,.769,3.54c.224,1.184.449,2.368.631,3.562a47.879,47.879,0,0,1,.393,7.227l-.032,3.609a6.2,6.2,0,0,0,.057.918,2.1,2.1,0,0,0-.106.876l-.014,1.808-.028,3.615c-.013.6,0,1.2.012,1.808l-.112,1.8h-.02l.084-1.8c-.018-.6-.044-1.205-.04-1.807l-.028-3.614-.014-1.808a2.222,2.222,0,0,1,.094-.905,5.033,5.033,0,0,1-.074-.88l.026-3.621a47.691,47.691,0,0,0-.379-7.2c-.184-1.188-.393-2.375-.6-3.562a29.5,29.5,0,0,0-.72-3.527,1.948,1.948,0,0,0-1.245-1.162A4.371,4.371,0,0,0,26.337,3.6c-1.2.15-2.383.352-3.572.543-.594.1-1.189.2-1.778.315a6.3,6.3,0,0,0-1.7.51c-.493.349-.481,1.037-.608,1.6-.074.593-.116,1.195-.157,1.795-.269,4.8-.329,9.656-.346,14.408Z"/></g><path class="cls-9" d="M18.524,18.636s.095-.222.741-.095a1.957,1.957,0,0,1,1.285,1.148,3.2,3.2,0,0,1,.215,1.093,9.3,9.3,0,0,1-1.859-.383C18.483,20.184,18.405,19.729,18.524,18.636Z"/><path class="cls-2" d="M18.531,19.418a2.7,2.7,0,0,1,.072-.782c.088-.136.772-.112,1.228.215a2.323,2.323,0,0,1,.815,1.452c.048.439-.444.4-1.1.232a2.9,2.9,0,0,0,.785.024c.191-.064.311-.088.175-.519s-.3-.271-.415-.231-1.452-.5-1.476-.28a.637.637,0,0,0,.16.543,1.356,1.356,0,0,0,.287.255A.906.906,0,0,1,18.531,19.418Z"/><path class="cls-3" d="M18.647,18.611s.33-.189.947.148a2.417,2.417,0,0,1,.922,1.049,3.667,3.667,0,0,1-.7-.1c-.457-.1-1.337-.218-1.337-.385A1.1,1.1,0,0,1,18.647,18.611Z"/><path class="cls-9" d="M50.1,24.068a4.678,4.678,0,0,0,1.2-.576,2.3,2.3,0,0,0,.417-1.3c-.012-.192.016-.8-.313-.184a3.451,3.451,0,0,1-1.1,1.322C50.022,23.452,49.613,24.213,50.1,24.068Z"/><path class="cls-9" d="M35.13,19.274s1.7.473,2.016,1.673a30.391,30.391,0,0,1,.511,3.9,31.328,31.328,0,0,0-.32-4.217C37.082,19.7,35.13,19.274,35.13,19.274Z"/><g class="cls-6"><path class="cls-7" d="M51.252,17.215a17.377,17.377,0,0,1,.029,2.091,9.955,9.955,0,0,1-.268,2.074c.028-.348.022-.7.034-1.042l.034-1.041C51.124,18.6,51.153,17.909,51.252,17.215Z"/></g><path class="cls-9" d="M50.016,23.968a7.239,7.239,0,0,0,.781-.252,1.286,1.286,0,0,0,.624-.757c.217-.595-.048.24-.534.541s.206-.98.206-.98a4.4,4.4,0,0,1-.783.848C49.884,23.7,49.517,24.161,50.016,23.968Z"/><path class="cls-4" d="M38.458,25.606s.613-.189.879-.263.361-.049.451.7a11.11,11.11,0,0,0,.447,2.409c.216.455.276.808,1.291.529s4.648-1.386,5.565-1.722,1.427-.527,1.8-1.711a19.464,19.464,0,0,0,.689-2.667A1.569,1.569,0,0,1,50.6,22.63s-.372,1.447-.553,1.851a11.468,11.468,0,0,0-.784,2.107c0,.351.092.564-1.2.979s-7.7,2.542-8.2,2.7-.68.223-.68.223a.941.941,0,0,0,.254-.847A23.793,23.793,0,0,0,39,27.108,3.334,3.334,0,0,0,38.458,25.606Z"/><path class="cls-9" d="M38.539,25.606A6.886,6.886,0,0,1,39,26.875a26.406,26.406,0,0,1,.51,2.862c-.01.276.041.478.515.351s2.89-.862,4.262-1.383A27.19,27.19,0,0,1,40.1,29.864c-.955.032-.6-3.287-.8-3.808s-.017-.668.149-.679.219.07.219.07-.019-.2-.488-.033A4.63,4.63,0,0,1,38.539,25.606Z"/><path class="cls-9" d="M50.22,22.715a2.734,2.734,0,0,0-.574.171,28.023,28.023,0,0,1-.83,3,2.414,2.414,0,0,1-.606.934,3.5,3.5,0,0,1-.845.347s1.047-.149,1.345-.521a20.46,20.46,0,0,0,.872-3.33A.971.971,0,0,1,50.22,22.715Z"/><path class="cls-3" d="M24.986,27.205c.212.334.41.674.608,1.014a4.588,4.588,0,0,0,.671.944,7.56,7.56,0,0,0,2.022,1.173,6.034,6.034,0,0,1-2.11-1.076,3.5,3.5,0,0,1-.669-.992C25.318,27.922,25.141,27.569,24.986,27.205Z"/><path class="cls-9" d="M17.807,21.117,29.9,23.9,17.672,21.331S17.545,21.056,17.807,21.117Z"/><path class="cls-2" d="M34.5,16.448a12.351,12.351,0,0,0,.127,1.575c.086.224.316.544.637.373s.408-.264.457-.95a3.649,3.649,0,0,0-.032-1.416C35.571,15.8,34.484,16.134,34.5,16.448Z"/><path class="cls-3" d="M35.6,16.173a8.17,8.17,0,0,1,0,1.745.6.6,0,0,1-.473.415c-.1.021-.123-.2.122-.437s-.1-1.383-.468-1.532S35.518,15.588,35.6,16.173Z"/><path class="cls-3" d="M28.965,13.875a3.734,3.734,0,0,0,.393,1.564c.352.5,1.671.83,3.671.947s2.447.074,2.638-.181-.16-.6-.936-.415a3.38,3.38,0,0,1-2.277.117c-1.627-.266-2.425-.362-2.744-.7s-.128-1.383-.128-1.383-.032-.4-.213-.383A.415.415,0,0,0,28.965,13.875Z"/><path class="cls-2" d="M10.152,24.1a3.8,3.8,0,0,0-.5-.09c-.08.007-.372.128-.192.249a1.3,1.3,0,0,1,.483.637C9.977,25.1,10.048,24.149,10.152,24.1Z"/><path class="cls-9" d="M24,3.158s1.548-.282,3.942-.564a40.9,40.9,0,0,1,9.157.431l3.53.451s-7.454-.853-9.432-.916S24,3.158,24,3.158Z"/><path class="cls-3" d="M15.986,22.075a.656.656,0,0,1,.224.428c-.011.223-.032-.13.159-.214a1.654,1.654,0,0,1,.692.036h.106l-.128-3.641h.309l-.064-1.724H17.2l-.011.724-.234.054V16.96h-.127l.095,1a2.918,2.918,0,0,1,.33.542c.032.139-.255.118-.255.118L16.976,22l-.224-1.553-.021,1.489v.213a1.6,1.6,0,0,0-.447.042C16.129,22.249,16.039,22.072,15.986,22.075Z"/><path class="cls-9" d="M17.119,22.274l-.878.229-.3-.229v-.2l.447.214s.319.145.367-.382-.112-4.532-.112-4.532h-.207l-.016-.4H16.7l.016-.989h.543l-.144-8.3L17.086,2.71l.336.1.016,1.1,2.7.223s-1.282.128-1.7.83a6.247,6.247,0,0,0-.851,2.521,40.2,40.2,0,0,0-.271,4.424c.032,1.88.032,6.858.032,6.858l-.272.064Z"/><path class="cls-9" d="M18.268,5.822c-.207,1.213-.643,8.026-.609,11.393s.206,2.665,0,3.567V23.04s.258-.255-.157-.463l-.415-.207s.3.111.383,0a12.8,12.8,0,0,0,.048-1.718l-.08-1.745-.095-.144s-.048-7.212.111-8.888A29.939,29.939,0,0,1,18.268,5.822Z"/><ellipse class="cls-3" cx="6.529" cy="25.315" rx="1.296" ry="3.645" transform="translate(-2.872 0.921) rotate(-6.614)"/><ellipse class="cls-3" cx="22.445" cy="31.443" rx="3.107" ry="5.42" transform="translate(-4.838 4.092) rotate(-9.408)"/><path class="cls-12" d="M6.705,27.566c-.333.088-.736-.774-.9-1.925s-.028-2.155.3-2.243.736.774.9,1.925.028,2.155-.3,2.243Z"/><path class="cls-3" d="M6.426,24.033l-.067.584s-.006.137-.04.146-.071-.077-.071-.077l-.232-.547A.3.3,0,0,1,6,24a.269.269,0,0,1,.176-.191A.2.2,0,0,1,6.426,24.033Z"/><path class="cls-3" d="M6.816,26.82,6.6,26.311s-.044-.125-.077-.116-.046.107-.046.107l-.067.625a.284.284,0,0,0,.019.14.2.2,0,0,0,.215.089A.26.26,0,0,0,6.816,26.82Z"/><path class="cls-3" d="M5.89,24.9l.23.439a.475.475,0,0,1,.066.187.722.722,0,0,1,0,.2l-.1.548s-.015.076-.042.011a3.722,3.722,0,0,1-.134-.646C5.86,25.3,5.816,24.788,5.89,24.9Z"/><path class="cls-3" d="M6.718,24.681l-.095.523a.547.547,0,0,0-.011.207.654.654,0,0,0,.055.19l.244.458s.035.063.042-.011a3.879,3.879,0,0,0-.05-.667C6.855,25.04,6.757,24.544,6.718,24.681Z"/><path class="cls-2" d="M7.11,25.328c-.167-1.287-.616-2.253-1-2.158,0,0-.009.006-.014.008s-.01,0-.016,0c-.321.083-.485.894-.422,1.913.01.188.024.381.05.581.167,1.286.616,2.252,1,2.158l.01-.006h.009c.217-.057.361-.45.414-1.009A6.559,6.559,0,0,0,7.11,25.328Z"/><path class="cls-13" d="M7.08,25.328c-.149-1.151-.551-2.016-.9-1.931l-.012.007s-.009,0-.014,0c-.287.075-.434.8-.378,1.712.009.169.022.341.045.52.149,1.151.551,2.015.9,1.931l.009-.006h.009c.194-.05.322-.4.369-.9A5.863,5.863,0,0,0,7.08,25.328Z"/><path class="cls-2" d="M6.682,24.133l-.106.827s-.011.2-.06.207-.1-.11-.1-.11l-.323-.78a.4.4,0,0,1-.026-.2c.02-.088.073-.35.219-.386S6.7,23.854,6.682,24.133Z"/><path class="cls-2" d="M7.01,26.677l-.324-.767s-.063-.188-.114-.175-.072.159-.072.159l-.114.935a.434.434,0,0,0,.028.211c.042.077.185.291.339.253A.522.522,0,0,0,7.01,26.677Z"/><path class="cls-2" d="M6.02,24.408l.381.738a.783.783,0,0,1,.109.313,1.225,1.225,0,0,1,0,.341l-.187.915s-.027.128-.071.017a4.761,4.761,0,0,1-.254-1.072C5.921,25.089,5.9,24.225,6.02,24.408Z"/><path class="cls-2" d="M6.752,24.237l-.171.868a.884.884,0,0,0-.023.343,1.066,1.066,0,0,0,.088.316l.4.765s.057.106.071-.017a5.111,5.111,0,0,0-.031-1.119C7.015,24.826,6.82,24.01,6.752,24.237Z"/><ellipse class="cls-12" cx="6.523" cy="25.55" rx="0.159" ry="0.68" transform="translate(-3.362 1.103) rotate(-7.694)"/><ellipse class="cls-2" cx="6.521" cy="25.557" rx="0.069" ry="0.315" transform="translate(-3.41 1.122) rotate(-7.804)"/><ellipse class="cls-2" cx="6.608" cy="25.355" rx="0.026" ry="0.09" transform="translate(-4.271 1.518) rotate(-9.925)"/><ellipse class="cls-2" cx="6.391" cy="25.394" rx="0.026" ry="0.092" transform="translate(-1.731 0.5) rotate(-3.943)"/><ellipse class="cls-2" cx="6.446" cy="25.041" rx="0.026" ry="0.092" transform="translate(-2.841 0.909) rotate(-6.614)"/><ellipse class="cls-2" cx="6.655" cy="25.718" rx="0.026" ry="0.092" transform="matrix(0.997, -0.076, 0.076, 0.997, -1.947, 0.584)"/><ellipse class="cls-2" cx="6.448" cy="25.759" rx="0.026" ry="0.091" transform="translate(-4.124 1.4) rotate(-9.408)"/><ellipse class="cls-2" cx="6.59" cy="26.06" rx="0.026" ry="0.093" transform="translate(-3.059 0.971) rotate(-6.845)"/><path class="cls-2" d="M3.071,19.067v1.18a2.424,2.424,0,0,0,.841,0,3.221,3.221,0,0,1,.765-.064s.277-.355.522-.375a2.336,2.336,0,0,1,1.028.259c.394.181.791.2,1.046.446a5.1,5.1,0,0,1,.66,1.33,2.06,2.06,0,0,1,.17.66,4.888,4.888,0,0,1,.107-1.032c.095-.234.382-.18.51.085a7.1,7.1,0,0,1,.287,1.053A9.293,9.293,0,0,1,8.9,21.386c.032-.245.754.683.7,1.032s-.532.468-.532.468l1.128.154a2.213,2.213,0,0,1,.085-.707,4.147,4.147,0,0,1,1.915-.6C12.667,21.779,3.135,19.013,3.071,19.067Z"/><path class="cls-2" d="M10.284,23.8v.481s1.968,1.025,2.021,1.032,1.075.281,1.075.281a10.139,10.139,0,0,0,2.5-.225c.532-.251.659-.381.659-.449s-.085-.723-.085-.723a2.8,2.8,0,0,1-.468.884c-.308.356-.872-1.144-.893-1.293a3.053,3.053,0,0,1-.224,1.419c-.326.511-.936-.661-1-1.131s-.149.935-.149,1.089-.2.266-.605.234-.562-.209-.562-.452.018-1.065.018-1.065a8.007,8.007,0,0,1-.12,1.1c-.066.138-1.088-.115-1.262-.421a4.614,4.614,0,0,1-.114-1.449A10.281,10.281,0,0,1,11,24.329c-.054.1-.306.03-.409-.054a1.7,1.7,0,0,1-.31-.835C10.282,23.175,10.284,23.8,10.284,23.8Z"/><path class="cls-3" d="M9.773,24.283a17.135,17.135,0,0,1,1.766.8,7.686,7.686,0,0,0,2.128.676,11,11,0,0,0,2.4-.278c.356-.148.484-.362-.08-.223a7.249,7.249,0,0,1-2.255.241,7.88,7.88,0,0,1-2.319-.735c-.458-.176-1.032-.623-1.245-.644S9.369,23.978,9.773,24.283Z"/><path class="cls-2" d="M9.088,28.761a1.389,1.389,0,0,0,.6-.46,3.213,3.213,0,0,0,.33-1.238,8.957,8.957,0,0,1-.128,1.291C9.805,28.588,9.581,28.7,9.088,28.761Z"/><path class="cls-9" d="M16.4,16.162v-.276h.564v-.607h.122l-.058.628h.319V16.96l0,1.8-.293.123.117,3.439s-.809.239-.915.251a8.147,8.147,0,0,0-1.787-.866c-.955-.24-.607-.262.276,0a15,15,0,0,0,1.63.365c.321.076.168,0,.168,0l-.168-4.753-.247-.053.247-.213Z"/><path class="cls-9" d="M2.4,17.779l-.213.075-.106-2.575,13.856,1.894v1.308s-.005-1.106-.218-1.191S2.252,15.407,2.252,15.407a3.04,3.04,0,0,1,.075.447A8.315,8.315,0,0,0,2.4,17.779Z"/><path class="cls-3" d="M2.082,15.279l.106,2.575s-.028-1.686,0-1.948a1.352,1.352,0,0,0,0-.48A.344.344,0,0,0,2.1,15.3l9.408,1.266Z"/><path class="cls-3" d="M18.142,5.506a7.917,7.917,0,0,0-.636,2.846c-.167,1.98-.2,3.257-.2,3.257l-.045-5.574s.064,1.946.127,2.053A6.8,6.8,0,0,1,18.142,5.506Z"/><path class="cls-9" d="M16.667,15.886,3.837,14.715l11.947-.382s0,.691-.011,1.021.149.479.479.351-.085-.1-.1-1.274l-.01-.1h.521Z"/><path class="cls-9" d="M3.013,16.893h.18a2.9,2.9,0,0,0,0,.729c.06.14.07.31.26.419s3.626.779,3.626.779l-.132.25L2.774,17.981S2.944,17.8,3.013,16.893Z"/><path class="cls-9" d="M7.513,17.758l.282.223a3.092,3.092,0,0,0,0,.777.509.509,0,0,0,.292.312c.2.117,2.339.565,2.339.565l-.14.266-3.158-.783A2.65,2.65,0,0,0,7.513,17.758Z"/><path class="cls-9" d="M10.816,18.481a4.708,4.708,0,0,1-.436,1.42,2.956,2.956,0,0,0,.577.176A1.4,1.4,0,0,0,11.38,20l4.606,1.173L11.38,19.9a2.907,2.907,0,0,0-.245-1.42S10.841,18.339,10.816,18.481Z"/><path class="cls-9" d="M3.254,17.79c-.021-.057-.038-.115-.061-.168a2.9,2.9,0,0,1,0-.729h-.18c-.069.909-.239,1.088-.239,1.088l.172.045A.375.375,0,0,0,3.254,17.79Z"/><path class="cls-9" d="M14.54,22.328a2.067,2.067,0,0,1,.281.717c.026.31.035.354.131.466s.713.181.713.181l-.037-1.079Z"/><path class="cls-3" d="M15.123,23.3c-.088-.1-.1-.144-.12-.431a1.325,1.325,0,0,0-.129-.421l-.276-.073a1.918,1.918,0,0,1,.255.662c.024.287.032.327.12.431s.648.167.648.167l-.006-.191A1.18,1.18,0,0,1,15.123,23.3Z"/><path class="cls-2" d="M15.123,23.3a1.18,1.18,0,0,0,.492.144l-.028-.806-.713-.19a1.325,1.325,0,0,1,.129.421C15.027,23.159,15.035,23.2,15.123,23.3Z"/><ellipse class="cls-3" cx="1.994" cy="19.461" rx="0.084" ry="0.242" transform="translate(-0.563 0.066) rotate(-1.659)"/><g class="cls-6"><path class="cls-7" d="M2.024,18.294,8.172,19.97q3.082.806,6.109,1.811l-.006.019q-3.1-.738-6.147-1.676L2.019,18.313Z"/></g><path class="cls-9" d="M7.8,18.758a3.092,3.092,0,0,1,0-.777l-.282-.223a2.65,2.65,0,0,1-.385,1.36l.423.105c.172-.055.368-.119.511-.169A.5.5,0,0,1,7.8,18.758Z"/><path class="cls-9" d="M11.38,19.9a2.907,2.907,0,0,0-.245-1.42.624.624,0,0,0-.239-.058,2.3,2.3,0,0,1,.1,1,2.137,2.137,0,0,0-.046.657h0a1.315,1.315,0,0,0,.407-.072l.021-.1Z"/><path class="cls-3" d="M4.139,18.868s.392-.028.412.2-.112.18-.138.036S4.2,19,4.2,19,4.014,18.923,4.139,18.868Z"/><path class="cls-3" d="M2.267,18.305s.392-.029.412.2-.112.18-.138.037-.218-.1-.218-.1S2.142,18.359,2.267,18.305Z"/><path class="cls-3" d="M6.4,19.42s.478-.035.5.241-.135.219-.167.044-.267-.12-.267-.12S6.246,19.486,6.4,19.42Z"/><path class="cls-3" d="M8.784,20.114s.479-.035.5.241-.136.22-.168.044-.266-.12-.266-.12S8.633,20.18,8.784,20.114Z"/><path class="cls-3" d="M11.961,21.027s.54-.04.567.271-.153.248-.189.05-.3-.135-.3-.135S11.79,21.1,11.961,21.027Z"/><path class="cls-3" d="M20.135,4.13a3.183,3.183,0,0,0-1.27.412c-.348.3-1.443-.486-1.443-.486S18.135,4.524,20.135,4.13Z"/><path class="cls-3" d="M18.268,23.2s3.89.588,5.138,2.009a12.218,12.218,0,0,1,2.458,4.411c.383,1.3.6,3.138.772,3.441s-.4.224-.524-.367A17.041,17.041,0,0,0,25.1,28.689a8.872,8.872,0,0,0-1.3-2.447A5.327,5.327,0,0,0,21.2,24.428C19.305,23.758,19.736,24.253,18.268,23.2Z"/><path class="cls-14" d="M27.816,34.115a2.751,2.751,0,0,1,1.34.193,8.891,8.891,0,0,1,1.234.663c.128.17-.106.659-1.659.106S27.816,34.115,27.816,34.115Z"/><path class="cls-15" d="M28.3,34.178a10.623,10.623,0,0,1,1.843.71c.479.3,0,.288-.215.32s.056.007-.176-.272a5.885,5.885,0,0,0-1.779-.628C27.827,34.274,27.65,34.135,28.3,34.178Z"/><path class="cls-16" d="M27.97,34.308a10.044,10.044,0,0,1,1.676.493c.1.135-.383.266-1.022,0S27.624,34.177,27.97,34.308Z"/><path class="cls-2" d="M18.037,23.2l.077.59a1.561,1.561,0,0,1,.41-.409C18.72,23.279,18.037,23.2,18.037,23.2Z"/><path class="cls-2" d="M18.474,23.729a.394.394,0,0,1,.326.085.275.275,0,0,1,.057.355c-.129.238-.4.214-.581.3a1.059,1.059,0,0,0-.485.316c-.067.135-.19.451-.443.436V25.2c.21-.088.2-.288.321-.5a.827.827,0,0,1,.586-.314,1.978,1.978,0,0,0,.31-.062.364.364,0,0,0,.189-.2c.072-.172-.063-.318-.28-.376Z"/><path class="cls-3" d="M15.769,15.8V14.535l.015-.2-1.09.034a3.962,3.962,0,0,1,.927.168c.162.1.082.837,0,.965s-4.48-.118-4.48-.118Z"/><path class="cls-9" d="M16.539,23.583a.282.282,0,0,1,.516.055,1.028,1.028,0,0,0,.367.561c.1.03.088.121-.335,0S16.271,24.093,16.539,23.583Z"/><path class="cls-3" d="M16.565,23.571a.23.23,0,0,1,.433.051c.074.257-.4.016-.182.424C16.858,24.126,16.34,24.041,16.565,23.571Z"/><path class="cls-2" d="M21.784,27.7c-.029,0-.054.022-.083.028a1.315,1.315,0,0,0-.351.077c-1.072.441-1.583,2.193-1.27,4.084.006.04.005.078.011.118.333,2.191,1.629,3.815,2.9,3.628.028,0,.052-.021.08-.027a1.337,1.337,0,0,0,.359-.079c1.079-.444,1.589-2.217,1.261-4.124,0-.026,0-.051-.007-.077C24.349,29.133,23.052,27.509,21.784,27.7Z"/><path class="cls-17" d="M21.975,28.055c-.026,0-.049.02-.075.025a1.225,1.225,0,0,0-.318.07c-.969.4-1.432,1.984-1.148,3.694,0,.036,0,.071.01.107.3,1.982,1.473,3.451,2.62,3.282.025,0,.047-.019.072-.024a1.23,1.23,0,0,0,.325-.072c.977-.4,1.438-2.006,1.141-3.731,0-.023,0-.046-.006-.069C24.3,29.355,23.122,27.886,21.975,28.055Z"/><path class="cls-2" d="M23.2,29.3l-.477,1.437s-.069.338-.23.362-.312-.184-.312-.184l-.929-1.327a.385.385,0,0,1-.051-.342,1.111,1.111,0,0,1,.776-.681C22.455,28.5,23.3,28.817,23.2,29.3Z"/><path class="cls-2" d="M23.859,33.682l-.934-1.307s-.175-.32-.345-.3-.259.281-.259.281L21.8,33.987a.4.4,0,0,0,.055.361,1.338,1.338,0,0,0,1.066.417C23.43,34.69,24.116,34.141,23.859,33.682Z"/><path class="cls-2" d="M20.994,29.82l1.123,1.253a.941.941,0,0,1,.3.535,1.156,1.156,0,0,1-.067.59L21.6,33.793s-.108.223-.233.035a4.8,4.8,0,0,1-.656-1.839C20.559,31.006,20.627,29.513,20.994,29.82Z"/><path class="cls-2" d="M23.408,29.477l-.7,1.512a.925.925,0,0,0-.131.6,1.161,1.161,0,0,0,.237.541l1.19,1.3s.168.18.232-.034a4.745,4.745,0,0,0,.081-1.934C24.172,30.478,23.666,29.08,23.408,29.477Z"/><ellipse class="cls-12" cx="22.449" cy="31.763" rx="0.518" ry="1.176" transform="translate(-5.273 4.481) rotate(-10.207)"/><ellipse class="cls-2" cx="22.443" cy="31.777" rx="0.224" ry="0.545" transform="translate(-5.317 4.522) rotate(-10.294)"/><ellipse class="cls-2" cx="22.288" cy="30.915" rx="0.084" ry="0.161" transform="translate(-4.421 3.729) rotate(-8.704)"/><ellipse class="cls-2" cx="22.76" cy="31.421" rx="0.085" ry="0.158" transform="translate(-7.934 7.689) rotate(-16.372)"/><ellipse class="cls-2" cx="22.046" cy="31.503" rx="0.085" ry="0.158" transform="translate(-0.907 0.655) rotate(-1.667)"/><ellipse class="cls-2" cx="22.854" cy="32.045" rx="0.085" ry="0.159" transform="translate(-1.518 1.139) rotate(-2.762)"/><ellipse class="cls-2" cx="22.172" cy="32.13" rx="0.085" ry="0.159" transform="translate(-7.568 6.843) rotate(-15.018)"/><ellipse class="cls-2" cx="22.588" cy="32.642" rx="0.084" ry="0.161" transform="matrix(0.988, -0.151, 0.151, 0.988, -4.679, 3.794)"/><path class="cls-3" d="M56.305,8.886a5.994,5.994,0,0,0-.489,2.276c-.037,1.184-.338,2.187.179,2.122a7.653,7.653,0,0,1,.64-2.643,2.284,2.284,0,0,0-.1-1.181s.011-.117.16.319a9.739,9.739,0,0,1-.111,2.383c-.037.224.026.575.377-.181s.01-1.638.149-1.191a4.953,4.953,0,0,1-.037,1.881c.117-.166.11-.384.133-.881C57.252,10.833,56.912,8.45,56.305,8.886Z"/><path class="cls-2" d="M57.114,10.79c-.139-.447.2.436-.149,1.191s-.414.4-.377.181A9.739,9.739,0,0,0,56.7,9.779c-.149-.436-.16-.319-.16-.319a2.284,2.284,0,0,1,.1,1.181A7.653,7.653,0,0,0,56,13.284a.9.9,0,0,0,.31-.111,2.335,2.335,0,0,0,.772-.5A4.953,4.953,0,0,0,57.114,10.79Z"/><path class="cls-8" d="M50.422,24.1s.592-.335.67-.377.259-.218.228,0a8.234,8.234,0,0,0-.036,1.122,2.4,2.4,0,0,1-.129.972,1.679,1.679,0,0,1-.979.633c-.244.044-.621-.345-.343-.949S50.1,24.285,50.422,24.1Z"/><path class="cls-8" d="M50.934,23.468a3.039,3.039,0,0,0,.521-.641,1.93,1.93,0,0,0,.153-.817c-.048-.09-.422.466-.674.876S50.543,23.757,50.934,23.468Z"/><path class="cls-2" d="M50.422,24.1s-.137.037-.124.325a.587.587,0,0,1-.227.512,2.114,2.114,0,0,0-.3,1.331c.073.6.886-.134,1.022-.286a1.952,1.952,0,0,0,.258-.534s-.3.766-.984.712.227-1.315.227-1.315A1.757,1.757,0,0,1,50.422,24.1Z"/><path class="cls-4" d="M31.21,32.072s-.064,1.723,0,2.649-.374,1.986,2.925,1.687,11.436-3.753,12.743-4.336,3.313-1.257,4.035-2.479a3.527,3.527,0,0,0,.44-2.849,6.745,6.745,0,0,0-.622-.454s.537.261.058.58-1.723,1.021-7.723,2.984-7.883,2.633-9.622,2.473S31.369,31.833,31.21,32.072Z"/><path class="cls-3" d="M43.827,31.705c.008-.489-.081-.622-.294-.6a1.439,1.439,0,0,1,.038.417c-.01.649.117.883-.872,1.223s-1.67.681-1.979.8a1.256,1.256,0,0,1-.571.126c.187.315.58.149.826.055.309-.117.99-.457,1.979-.8S43.816,32.354,43.827,31.705Z"/><path class="cls-2" d="M40.72,33.545c.309-.117.99-.457,1.979-.8s.862-.574.872-1.223a1.439,1.439,0,0,0-.038-.417,1.207,1.207,0,0,0-.249.066c-.394.138-.766.255-2.691.862-.575.18-.618.563-.543,1.308a.762.762,0,0,0,.1.328A1.256,1.256,0,0,0,40.72,33.545Z"/><path class="cls-3" d="M48.925,28.917a.425.425,0,0,1,.019.2,1.92,1.92,0,0,1-.723,1.383,7.681,7.681,0,0,1-1.744.878.148.148,0,0,0,.169.047,7.622,7.622,0,0,0,1.893-.925,1.921,1.921,0,0,0,.724-1.383C49.29,28.793,49.165,28.8,48.925,28.917Z"/><path class="cls-2" d="M48.944,29.12a.425.425,0,0,0-.019-.2,7.374,7.374,0,0,1-.971.479c-.84.3-1.2.339-1.308.739-.087.327-.331,1.053-.169,1.246a7.681,7.681,0,0,0,1.744-.878A1.92,1.92,0,0,0,48.944,29.12Z"/><g class="cls-6"><path class="cls-7" d="M31.8,32.392a10.408,10.408,0,0,0,5.04.084,47.279,47.279,0,0,0,4.865-1.534q2.418-.831,4.81-1.736c.8-.3,1.6-.6,2.375-.944.787-.331,1.607-.584,2.362-.977-1.517.776-3.091,1.446-4.677,2.076s-3.181,1.237-4.787,1.816a47.581,47.581,0,0,1-4.914,1.462A9.543,9.543,0,0,1,31.8,32.392Z"/></g><path class="cls-9" d="M36.207,35.317a5.865,5.865,0,0,1,.715-.156c.233-.052.459-.114.7-.156a1.134,1.134,0,0,0,.564-.227.882.882,0,0,0,.268-.57,2.609,2.609,0,0,0-.032-.642c.062.464.347,1.035-.186,1.331a2.258,2.258,0,0,1-.484.155c-.158.046-.314.1-.476.132s-.354.07-.533.092c-.092.012-.184.021-.276.028A1.139,1.139,0,0,0,36.207,35.317Z"/><path class="cls-9" d="M39.784,34.8a6.141,6.141,0,0,1,1.883-1.171c1.415-.649,2.021-.606,2.266-.957a1.955,1.955,0,0,0,.085-1.149s.043.532.266.638A2.79,2.79,0,0,0,46.3,31.105l.128-.318a3.9,3.9,0,0,0-.06.649c.015.21.087.372.373.234a12.917,12.917,0,0,0,2.114-1.045,4.287,4.287,0,0,0,.732-1.352,4.693,4.693,0,0,1-.316,1.123c-.181.307.672-.474.738-.7s-.066.253.03.307.534-.162.739-.421.282-.372.282-.372a5.071,5.071,0,0,1-2.673,2.168,6.076,6.076,0,0,1-2.758.806c-.6.132-.787.608-1.267.865a15.33,15.33,0,0,0-2.4.624A12.505,12.505,0,0,0,39.784,34.8Z"/><path class="cls-9" d="M50.327,29.213c-.152.385-.24.721.215.33s.754-.535.71-1.381c0,0-.088-.359-.455-.087a1.3,1.3,0,0,0-.415.842.66.66,0,0,1,.3-.38c.231-.127.343-.031.343.27s-.495.3-.607.233Z"/><path class="cls-3" d="M50.414,29.04s-.172.362-.1.491.625-.448.625-.448a4.512,4.512,0,0,0-.451.28C50.3,29.5,50.414,29.04,50.414,29.04Z"/><path class="cls-9" d="M37.608,32.965s-1.18.256-2.042.479-1.149.319-1.085.91-.128,1.133,1.133.877A7.864,7.864,0,0,0,37.5,34.8c.654-.272.626-.75.584-1.341S37.877,32.906,37.608,32.965Z"/><path class="cls-7" d="M37.732,34.673a.317.317,0,0,0,.167-.146l.008-.016A.858.858,0,0,1,37.732,34.673Z"/><path class="cls-9" d="M37.518,33.855c.242-.054.65.19.389.656a1.432,1.432,0,0,0,.174-1.051c-.042-.59-.2-.554-.473-.495l-.3.068a5.393,5.393,0,0,1-.063.885C37.188,34.024,37.273,33.909,37.518,33.855Z"/><path class="cls-9" d="M37.071,34.333l-2.223-.118a1.591,1.591,0,0,0,1.138.586c.883.149-1.138.074-1.138.074l-.254.223c.114.185.378.263,1.02.133A7.864,7.864,0,0,0,37.5,34.8a1.318,1.318,0,0,0,.235-.128C37.444,34.783,37.071,34.333,37.071,34.333Z"/><path class="cls-8" d="M36.476,33.38a.679.679,0,0,1,.7.186c.055.078-.144.2-.144.2s.116,0,.154.28-.786.315-1.567.213-1.2-.173-.071-.365,1.021-.255,1.021-.255S36.013,33.484,36.476,33.38Z"/><path class="cls-2" d="M31.5,32a5.355,5.355,0,0,0,1.233.29,10.281,10.281,0,0,0,3.883-.4c1.744-.458,5.681-1.617,7.372-2.245s5.936-2.191,6.287-2.356a4.021,4.021,0,0,0,.873-.512c.042-.079-.16-.345-.415-.483s.819.479-.436.872-5.862,2.209-8.107,2.89-6.468,1.663-7.383,1.866A11.218,11.218,0,0,1,31.5,32Z"/><path class="cls-8" d="M17.422,4.61V5.705a6.8,6.8,0,0,1,.814-.925l.15-.1Z"/><path class="cls-2" d="M37.13,17.042a2.19,2.19,0,0,0,1.516.349c.75-.176.727-.255.786-.59a1.19,1.19,0,0,0-.281-.753l2.415-2.011H45.8a33.229,33.229,0,0,0-6.288,0c-2.744.354,1.044.067,1.044.067l.895-.067-2.5,2.011s.191.4.207.465-.079.549-.383.618A3.072,3.072,0,0,1,37.13,17.042Z"/><path class="cls-2" d="M45.268,16.3s.457.448.9.3.433-.218.468-.5a1.27,1.27,0,0,0-.167-.641l1.439-1.712,2.308-.3a22.958,22.958,0,0,0-3.535.3c-1.636.3.623.057.623.057l.533-.057-1.489,1.712s.115.342.124.4-.047.467-.228.525A1.305,1.305,0,0,1,45.268,16.3Z"/><path class="cls-4" d="M12.258,21.63v.564s.154.257.2.134a4.6,4.6,0,0,0,.077-.618Z"/><path class="cls-4" d="M13.593,22.012v.564s.153.257.2.134a4.737,4.737,0,0,0,.076-.618Z"/><path class="cls-4" d="M7.817,20.29l.032.563s.168.248.2.122a4.729,4.729,0,0,0,.041-.621Z"/><path class="cls-4" d="M9.34,20.7l.034.563s.169.247.2.122a4.679,4.679,0,0,0,.039-.622Z"/><path class="cls-4" d="M3.223,19.007l.049.419s.137.178.158.082a3.471,3.471,0,0,0,0-.466Z"/><path class="cls-4" d="M4.761,19.365l.016.423s.123.187.151.094a3.393,3.393,0,0,0,.04-.465Z"/><path class="cls-9" d="M18.674,23.79s.716.341.918.283.137.054,0,.328-.927.506-1.032.548.086.49.15.532a7.585,7.585,0,0,1-.894,1.383,5.151,5.151,0,0,1-.175-1.655c.047-.164-.017-.558.347-.682s.626-.034.786-.328A.27.27,0,0,0,18.674,23.79Z"/><path class="cls-9" d="M8.439,15.135l7.292.669.024-1.471-4.331.139a37.03,37.03,0,0,1,4.157.251c.4.18-.823.631-1.8.643S8.439,15.135,8.439,15.135Z"/><path class="cls-3" d="M31.15,23.783a.166.166,0,0,1,.207-.147c.967.209,5.726,1.246,6.3,1.447a1.824,1.824,0,0,1,1.261,1.6,23.3,23.3,0,0,1,.511,3.272c-.048.351-.24.542-.671.622a38.436,38.436,0,0,1-4.9.864,10.854,10.854,0,0,1-2.2-.131.494.494,0,0,1-.417-.473C31.179,29.463,31,24.939,31.15,23.783Z"/><path class="cls-4" d="M31.3,23.737s6.425,1.393,6.776,1.638a2.442,2.442,0,0,1,.617.787s-.5-.649-3.266-.989a40.086,40.086,0,0,1-4.234-.7A1.859,1.859,0,0,1,31.3,23.737Z"/><path class="cls-8" d="M31.38,27.205a4.2,4.2,0,0,1,2.468.989s.33.394-.107.256-.648-.5-1.446-.745S31.327,27.545,31.38,27.205Z"/><path class="cls-8" d="M31.38,27.737a4.2,4.2,0,0,1,2.468.989s.33.394-.107.255-.648-.5-1.446-.744S31.327,28.077,31.38,27.737Z"/><path class="cls-8" d="M31.38,28.278a4.208,4.208,0,0,1,2.468.989s.33.394-.107.256-.648-.5-1.446-.745S31.327,28.618,31.38,28.278Z"/><path class="cls-8" d="M34.294,28.34l.026,2.785s2.893-.068,3.428-.935a3.851,3.851,0,0,0,.266-2.293S35.029,28.365,34.294,28.34Z"/><path class="cls-8" d="M31.186,24.535a4.248,4.248,0,0,0,1,.212v1.958c0,.223-.106.308-.361.34a1.516,1.516,0,0,1-.641-.149S31.12,24.684,31.186,24.535Z"/><path class="cls-8" d="M33.252,24.95a2.27,2.27,0,0,0-.7.787c-.362.6-.426,1.074.606,1.468a6.93,6.93,0,0,1,1.458.7s.33.04.383-.065-.139-2.637-.139-2.637S33.635,25.013,33.252,24.95Z"/><path class="cls-15" d="M32.869,25.364s.971-.138,1.3.288a.622.622,0,0,1,.126.723s-.543.7-1,.6S32.392,26.45,32.869,25.364Z"/><path class="cls-2" d="M31.412,27.039a3.7,3.7,0,0,1,2.429.692c.171.131.282.35.458.371a3.588,3.588,0,0,0,.622,0,9.249,9.249,0,0,0,1.249-.177c.828-.166,1.642-.364,2.479-.516.031-.025.207.005.232.068a.6.6,0,0,1,.106.158,1.406,1.406,0,0,1,.106.319,4.525,4.525,0,0,1,.089.639,7.608,7.608,0,0,1-.009,1.272h-.02c-.029-.421-.056-.842-.114-1.255a4.466,4.466,0,0,0-.13-.606c-.047-.169-.161-.45-.226-.391-.819.17-1.658.315-2.495.421-.419.061-.84.1-1.262.138-.212.012-.416.048-.641.041-.267-.03-.381-.252-.551-.354a4.992,4.992,0,0,0-2.323-.8Z"/><path class="cls-14" d="M32.963,25.45s.659.106.744.223.5.447.5.489a1.776,1.776,0,0,1-.553.341c-.149.042-.34-.234-.447-.527s-.659.793-.244-.473"/><path class="cls-16" d="M33.106,26.359s.259-.407.4-.381a1.043,1.043,0,0,1,.378.141.776.776,0,0,1,.125.2c.007.054.052.12,0,.144a.741.741,0,0,0-.154.115c-.067.054-.061.1-.187.138s-.2.078-.222.084a1.054,1.054,0,0,1-.391-.06C33.01,26.69,32.812,26.756,33.106,26.359Z"/></g></g></svg>