<svg xmlns="http://www.w3.org/2000/svg" xmlns:xlink="http://www.w3.org/1999/xlink" viewBox="0 0 60 40"><defs><style>.cls-1{isolation:isolate;}.cls-2{fill:#233254;}.cls-3{fill:#eae8e4;}.cls-10,.cls-4{fill:#dbd9d5;}.cls-4,.cls-9{mix-blend-mode:multiply;}.cls-5{fill:#c3bfbe;}.cls-6{fill:#0e192d;}.cls-7{fill:#a4b6c1;}.cls-8{fill:url(#Chrome);}.cls-11{fill:#ff2a00;}.cls-12{fill:#fff;}.cls-13{fill:#f95900;}.cls-14{fill:#fc8900;}.cls-15{fill:#f9b800;}.cls-16{fill:#e8e5de;}.cls-17{mix-blend-mode:screen;}.cls-18{fill:url(#linear-gradient);}.cls-19{fill:url(#linear-gradient-2);}.cls-20{fill:url(#linear-gradient-3);}.cls-21{fill:url(#Chrome-2);}</style><linearGradient id="Chrome" x1="24.416" y1="28.621" x2="27.651" y2="37.259" gradientUnits="userSpaceOnUse"><stop offset="0" stop-color="#e5e2df"/><stop offset="0" stop-color="#d6d7d7"/><stop offset="0" stop-color="#d1d3d4"/><stop offset="0.068" stop-color="#edeeee"/><stop offset="0.107" stop-color="#fff"/><stop offset="0.13" stop-color="#f5f5f6"/><stop offset="0.17" stop-color="#dbdcdd"/><stop offset="0.22" stop-color="#b1b2b4"/><stop offset="0.247" stop-color="#97999c"/><stop offset="0.272" stop-color="#9a9c9e"/><stop offset="0.287" stop-color="#a2a4a7"/><stop offset="0.299" stop-color="#b0b2b4"/><stop offset="0.309" stop-color="#c4c6c8"/><stop offset="0.315" stop-color="#d1d3d4"/><stop offset="0.364" stop-color="#c7c9ca"/><stop offset="0.446" stop-color="#adafb0"/><stop offset="0.552" stop-color="#838586"/><stop offset="0.646" stop-color="#58595b"/><stop offset="0.678" stop-color="#616265"/><stop offset="0.731" stop-color="#7a7c7f"/><stop offset="0.742" stop-color="#808285"/><stop offset="0.743" stop-color="#797a7d"/><stop offset="0.75" stop-color="#5a595c"/><stop offset="0.757" stop-color="#424041"/><stop offset="0.765" stop-color="#312d2f"/><stop offset="0.773" stop-color="#262324"/><stop offset="0.781" stop-color="#231f20"/><stop offset="0.79" stop-color="#4b4848"/><stop offset="0.802" stop-color="#7a7878"/><stop offset="0.815" stop-color="#a3a1a2"/><stop offset="0.827" stop-color="#c4c3c3"/><stop offset="0.84" stop-color="#dedede"/><stop offset="0.853" stop-color="#f0f0f0"/><stop offset="0.867" stop-color="#fbfbfb"/><stop offset="0.882" stop-color="#fff"/><stop offset="0.897" stop-color="#eaebec"/><stop offset="0.921" stop-color="#d0d2d3"/><stop offset="0.946" stop-color="#bebfc2"/><stop offset="0.972" stop-color="#b3b5b7"/><stop offset="1" stop-color="#afb1b4"/></linearGradient><linearGradient id="linear-gradient" x1="7.542" y1="8.452" x2="8.117" y2="10.814" gradientUnits="userSpaceOnUse"><stop offset="0" stop-color="#233254"/><stop offset="0.353" stop-color="#233254" stop-opacity="0.588"/><stop offset="0.774" stop-color="#233254" stop-opacity="0.162"/><stop offset="1" stop-color="#233254" stop-opacity="0"/></linearGradient><linearGradient id="linear-gradient-2" x1="15.322" y1="6.56" x2="15.896" y2="8.921" xlink:href="#linear-gradient"/><linearGradient id="linear-gradient-3" x1="24.586" y1="4.306" x2="25.16" y2="6.668" xlink:href="#linear-gradient"/><linearGradient id="Chrome-2" x1="5.771" y1="24.682" x2="7.174" y2="24.682" xlink:href="#Chrome"/></defs><title>Icon Set sample</title><g class="cls-1"><g id="Layer_1" data-name="Layer 1"><path class="cls-2" d="M52.908,11.045h0a.575.575,0,0,1,.575.575v1.007a1.589,1.589,0,0,1-1.589,1.589H50.886a.575.575,0,0,1-.575-.575v0A2.6,2.6,0,0,1,52.908,11.045Z" transform="translate(104.523 3.496) rotate(156.475)"/><path class="cls-3" d="M5.785,8.412A7.078,7.078,0,0,0,3.863,9.4c-.364.425-1.51,2.154-1.043,7.183s.411,5.753.411,5.753a2.592,2.592,0,0,0,.3,1.011c.238.331.152.315.656.5a28.5,28.5,0,0,0,3.518,2.047c1.525.567,6.39,2.45,8.1,3.375s4.223,2.245,4.223,2.245A4.868,4.868,0,0,1,19.68,29.4c.1-1.107.607-3.7,1.83-4.851s2.351-1.323,3.415-.539,3.106,2.786,4.181,7.017.734,3.958.734,3.958a24.191,24.191,0,0,0,5.38,2.6c3.512,1.266,7.162,1.8,9.077,1.15a24.17,24.17,0,0,0,5.936-3.016c1.66-1.213,4.181-2.968,4.181-2.968s1.66-1.947,2.2-2.809a9.72,9.72,0,0,0,.734-4.787,23.818,23.818,0,0,0-.985-4.117c-.345-1.349-.451-5.537-7.823-10.763S35.425,2.811,31.723,2.077s-6.287-1.66-9.607-.543S7.006,7.662,5.785,8.412Z"/><path class="cls-4" d="M24.617,3.346c-.7.281-4.878,1.51-4.878,1.51a58.842,58.842,0,0,0,.133,8.637c2.406.281,14.51,1.765,15.713,1.765a89.145,89.145,0,0,0-7.46-11.1A3.053,3.053,0,0,0,24.617,3.346Z"/><path class="cls-2" d="M24.662,3.46c-.681.267-4.735,1.434-4.735,1.434a54.691,54.691,0,0,0,.13,8.2c2.335.267,13.556.767,14.724.767a73.027,73.027,0,0,0-6.714-9.634A3.01,3.01,0,0,0,24.662,3.46Z"/><path class="cls-4" d="M4.4,9.587C7.771,7.881,17.542,5.141,18.606,4.8s-.128,1.75-1.149,5.471-.851,5.639-2.979,5.85-11.733-.683-11.733-.683S2.494,10.555,4.4,9.587Z"/><path class="cls-2" d="M4.68,9.658C7.82,8.067,17.431,5.312,18.423,4.994s-.119,1.632-1.071,5.1-.794,5.258-2.778,5.455-11.441-.436-11.441-.436S2.9,10.561,4.68,9.658Z"/><ellipse class="cls-2" cx="53.612" cy="18.689" rx="0.548" ry="1.097" transform="translate(-2.636 10.963) rotate(-11.397)"/><path class="cls-2" d="M30.319,35.325a39.348,39.348,0,0,0-1.2-5.105,22.371,22.371,0,0,0-1.129-2.949,11.129,11.129,0,0,0-1.722-2.722,5.052,5.052,0,0,0-1.316-1.07,3.43,3.43,0,0,0-.843-.316,2.731,2.731,0,0,0-.928-.039,3.139,3.139,0,0,0-1.624.772,5.268,5.268,0,0,0-1.075,1.321,7.992,7.992,0,0,0-.684,1.507,10.2,10.2,0,0,0-.38,1.591,10.693,10.693,0,0,0-.1,2.418L17.759,30l-2.325-1.053c-.781-.338-1.56-.682-2.351-1q-.59-.246-1.188-.474c-.387-.149-2.1-.82-2.493-.942l-1.7-.631a9.2,9.2,0,0,0-.022-1.318c-.163-1.912-.84-3.416-1.513-3.358s-1.085,1.654-.922,3.566.84,3.416,1.513,3.359a17.173,17.173,0,0,0,2.161-.166c.434-.087.617-1.16.647-1.354.683.367,2.669,1.286,3.348,1.657.741.418,1.489.821,2.233,1.233L17.4,30.718,19.654,31.9l.674.354c.017.173.038.346.067.521.569,3.406,3.381,5.774,6.28,5.29,1.768-.086,4.885-2.121,4.885-2.121Z"/><path class="cls-5" d="M6.628,26.567c-.366.032-.735-.787-.824-1.828s.136-1.911.5-1.942.735.787.824,1.829-.136,1.91-.5,1.941Z"/><path class="cls-6" d="M20.3,31.341c0,.028.006.057.01.085a9.754,9.754,0,0,1,.03-2.964,8.384,8.384,0,0,1,.945-2.771,4.371,4.371,0,0,1,.873-1.1,2.224,2.224,0,0,1,1.143-.569,2.018,2.018,0,0,1,1.24.225,4.188,4.188,0,0,1,1.112.863c.187.2.364.411.534.63a4.6,4.6,0,0,0-1.574-.011c-2.484.416-4.225,2.793-4.313,5.609Z"/><path class="cls-2" d="M30.18,35.255c-.218-.762-.442-1.521-.681-2.274.239.753.464,1.512.681,2.274Z"/><path class="cls-2" d="M46.926,36.746c-.045.018-.09.037-.135.054a9.5,9.5,0,0,1-1.493.417,19.431,19.431,0,0,1-4.544.508,39.247,39.247,0,0,1-4.4-.7c-.782-.109-1.616-.026-2.4-.06a6.42,6.42,0,0,0,1.583.8c.56.228,1.133.424,1.707.615a14.978,14.978,0,0,0,3.579.868A16.5,16.5,0,0,0,44.569,39a11.023,11.023,0,0,0,2.514-.667,12.557,12.557,0,0,0,2.6-1.613c.832-.626,1.671-1.245,2.464-1.921.441-.378.881-.759,1.3-1.158l-.025.376.406.1,2.909-3.1.1-2.1-.453-.12L53.6,31.511l-.122,1.83c-.549.337-1.12.543-1.672.873l-1.972,1.03C48.877,35.743,47.925,36.336,46.926,36.746Z"/><path class="cls-2" d="M26.009,1.3c.745.071,1.476.232,2.216.341,6.168.913,12.134,3.976,12.733,4.147-1.261-.692-2.767-1.55-3.867-2C35.678,3.2,34.244,2.67,32.788,2.2A36.286,36.286,0,0,0,28.34,1.056a20.032,20.032,0,0,0-2.291-.29,10.839,10.839,0,0,0-2.326.077,6.113,6.113,0,0,0-1.146.283c-.362.133-.713.272-1.069.411q-1.059.422-2.111.862-2.1.881-4.188,1.8C12.425,5.41,5.049,8.725,5.049,8.725S12.488,5.556,15.3,4.414q2.11-.855,4.23-1.683,1.061-.409,2.126-.8c.355-.127.713-.258,1.067-.378a5.661,5.661,0,0,1,1.067-.233A10.343,10.343,0,0,1,26.009,1.3Z"/><path class="cls-2" d="M2.82,16.579a21.63,21.63,0,0,1,.619,3.8q.075.956.072,1.918l-.008.467a.677.677,0,0,0,.1.35,3.5,3.5,0,0,0,.581.731,2.187,2.187,0,0,1-.877-.5,1.1,1.1,0,0,1-.3-.508c-.027-.107-.035-.165-.053-.251l-.043-.237q-.162-.949-.235-1.908c-.049-.639-.071-1.28-.059-1.925A9.859,9.859,0,0,1,2.82,16.579Z"/><path class="cls-4" d="M20.194,15.989a.839.839,0,0,0,.567,1.036.8.8,0,0,0,.206.032l1.6.169S23.066,15.784,20.194,15.989Z"/><path class="cls-2" d="M20.189,16.072a.712.712,0,0,0,.49.879.767.767,0,0,0,.178.027l1.383.143S22.67,15.9,20.189,16.072Z"/><path class="cls-2" d="M56.286,22.449h0a8.226,8.226,0,0,0-.4-3.2s-.432.079-.8.149a.584.584,0,0,0-.441.3c-.3.488-.729,1.317-1.581.386a.468.468,0,0,0-.377-.165c-1.494.117-4.717.668-5.562.653C46.237,20.557,46.6,20,44.759,20s-7.584.095-9.38-.3l-.091,3.229a2.827,2.827,0,0,0,2.464,2.891,29.052,29.052,0,0,0,8.693-.238,28.121,28.121,0,0,1,3.18.923s-.414,4.324-.509,4.929-.237,1.049.334.859,6.153-3.2,6.916-4.8a12.945,12.945,0,0,0,.842-4.31A1.832,1.832,0,0,0,56.286,22.449Zm-.6,4.776c-.568,1.279-5.2,3.5-5.2,3.5l.426-4.149,5.456-2.047a9.432,9.432,0,0,1-.681,2.7Z"/><path class="cls-7" d="M12.535,7.429,4.616,9.811a1.737,1.737,0,0,0-.92,1.213,17.221,17.221,0,0,0-.3,3.935l8.319.142Z"/><path class="cls-7" d="M17.917,5.493,13.554,7.062l-1.186,8c1.043-.057,1.787-.1,1.858-.106.262-.024,1.622.048,2.1-2.24a62.244,62.244,0,0,1,1.941-6.886A.271.271,0,0,0,18.1,5.49.265.265,0,0,0,17.917,5.493Z"/><path class="cls-4" d="M3.063,16.821S18,19.917,21.369,20.683a96.036,96.036,0,0,1,11.439,3.634l2.234.93S21.861,21,14.01,19.6,3.063,16.821,3.063,16.821Z"/><path class="cls-6" d="M25.445,27.928c-.043,0-.083.013-.127.015a2.822,2.822,0,0,0-.526.025,3.6,3.6,0,0,0-2.743,3.816c0,.039-.011.076-.011.116a3.723,3.723,0,0,0,3.407,3.973c.042,0,.081-.013.123-.014a2.953,2.953,0,0,0,.538-.026,3.608,3.608,0,0,0,2.741-3.857c0-.026.006-.05.006-.076A3.722,3.722,0,0,0,25.445,27.928Z"/><path class="cls-8" d="M25.644,28.307c-.039,0-.076.012-.115.013a2.628,2.628,0,0,0-.476.023A3.258,3.258,0,0,0,22.571,31.8c0,.036-.009.069-.009.1a3.368,3.368,0,0,0,3.082,3.594c.038,0,.073-.012.11-.013a2.584,2.584,0,0,0,.488-.024,3.261,3.261,0,0,0,2.478-3.488c0-.023.006-.045.006-.069A3.367,3.367,0,0,0,25.644,28.307Z"/><path class="cls-6" d="M27.142,29.705l-1.01,1.338s-.174.321-.413.321a.6.6,0,0,1-.413-.225L24.25,29.705s-.146-.2,0-.342a1.783,1.783,0,0,1,1.278-.556C26.244,28.807,27.4,29.245,27.142,29.705Z"/><path class="cls-6" d="M27.14,34.09l-1.068-1.415s-.185-.339-.437-.339a.637.637,0,0,0-.437.238L24.082,34.09s-.155.216,0,.363a2.234,2.234,0,0,0,1.456.562C26.3,35.015,27.412,34.577,27.14,34.09Z"/><path class="cls-6" d="M23.831,29.893l1.354,1.39a.818.818,0,0,1,.325.568.908.908,0,0,1-.227.568l-1.452,1.453s-.206.2-.347,0a3.488,3.488,0,0,1-.547-1.9C22.937,30.992,23.365,29.539,23.831,29.893Z"/><path class="cls-6" d="M27.412,29.907l-1.345,1.38a.814.814,0,0,0-.323.564.907.907,0,0,0,.226.565l1.442,1.442s.2.2.344,0a3.464,3.464,0,0,0,.544-1.882C28.3,31,27.874,29.556,27.412,29.907Z"/><path class="cls-2" d="M6.6,23.4l-.117.507s-.017.121-.054.124-.071-.078-.071-.078l-.208-.517a.22.22,0,0,1-.011-.126.246.246,0,0,1,.205-.144C6.454,23.16,6.625,23.229,6.6,23.4Z"/><path class="cls-2" d="M6.805,25.923l-.2-.481s-.037-.117-.074-.114-.058.089-.058.089l-.121.543a.218.218,0,0,0,.01.127.247.247,0,0,0,.225.109C6.7,26.187,6.859,26.09,6.805,25.923Z"/><path class="cls-2" d="M5.954,24.091l.214.421a.394.394,0,0,1,.058.174.536.536,0,0,1-.016.181l-.154.47s-.022.066-.046,0a2.869,2.869,0,0,1-.094-.59C5.89,24.443,5.883,23.986,5.954,24.091Z"/><path class="cls-2" d="M6.865,24.017l-.143.45a.384.384,0,0,0-.028.181.529.529,0,0,0,.044.176l.229.439s.032.061.046,0a2.937,2.937,0,0,0,0-.6C6.985,24.353,6.917,23.9,6.865,24.017Z"/><path class="cls-7" d="M24.666,3.558c-.654.256-4.551,1.377-4.551,1.377a52.541,52.541,0,0,0,.125,7.883c2.244.257,13.031.737,14.153.737A70.172,70.172,0,0,0,27.94,4.3,2.892,2.892,0,0,0,24.666,3.558Z"/><path class="cls-4" d="M28.726,24.247a61.351,61.351,0,0,1,5.327,7.872c1.7,3.319,9.537,4.9,14.6.862,0,0-3.276,2.287-8.978,1.308S35.273,29.438,28.726,24.247Z"/><path class="cls-4" d="M49.625,26.5a19.015,19.015,0,0,1-12.168-.172s6.128,1.214,9.276.543-.529-1.207-1.628-1.084c0,0,.753-.141,1.34-.21A26.118,26.118,0,0,1,49.625,26.5Z"/><path class="cls-4" d="M27.925,2.1s5.183,5.11,7.949,8.164c.885.978,1.422,1.937,2.708,2.285,2.353.637,5.731.146,7.844.456,6.6.967,6.167.675,6.167.675S42.629,3.448,27.925,2.1Z"/><path class="cls-2" d="M28.134,2.1s5.047,4.947,7.74,7.9c.862.946,1.385,1.875,2.637,2.212,2.291.617,5.58.141,7.638.441,6.423.937,6,.654,6,.654S42.452,3.405,28.134,2.1Z"/><g class="cls-9"><path class="cls-10" d="M19.842,14.289c.037.778.084,1.557.09,2.337a10.331,10.331,0,0,0,.048,2.316c.15.764.5,1.454.655,2.251a11.777,11.777,0,0,0,.663,2.214l-.143-.032a3.759,3.759,0,0,1,2.375-.816,3.827,3.827,0,0,1,2.395.7,10.324,10.324,0,0,1,2.85,4.073,17.931,17.931,0,0,1,.865,2.347,5.936,5.936,0,0,0,.872,2.3A7.386,7.386,0,0,0,34.8,34.243l-.1.108c-.173-.775-.339-1.56-.562-2.313a.737.737,0,0,1,.006-.643.965.965,0,0,1,.46-.5.125.125,0,0,1,.073.024c.014.032.057.007-.063-.025-.14.069-.063.1-.084.081v-.041l0-.073-.008-.148-.016-.3-.037-.6-.141-2.387-.055-1.2-.015-.6v-.3l.007-.154.01-.082.013-.052.009-.028a.137.137,0,0,1,.1-.071c.037-.006-.032-.01-.043.009s-.02.033-.018.022l.007-.023.013-.064.022-.142.031-.294.045-.593.068-1.192.106-2.388.1-2.388a4.234,4.234,0,0,1,.5-2.31l.013.015a4.232,4.232,0,0,0-.449,2.3l-.055,2.39-.061,2.39-.046,1.2-.034.6-.026.3-.021.154L34.519,25l-.015.049c.035-.005-.108.108-.106.088l.251,4.663.035.6.017.3.007.15,0,.076v.053c-.02-.008.055.024-.087.1-.12-.026-.078-.043-.073-.017a.073.073,0,0,0,.056.019c-.187.161-.505.576-.3.9.229.776.389,1.553.562,2.333l.031.139-.135-.031a7.488,7.488,0,0,1-4.341-2.379,6.011,6.011,0,0,1-.866-2.34,17.66,17.66,0,0,0-.839-2.346,10.242,10.242,0,0,0-2.867-4,4.007,4.007,0,0,0-4.576.141l-.1.085-.04-.118a11.809,11.809,0,0,1-.646-2.263c-.132-.736-.482-1.469-.626-2.239a10.246,10.246,0,0,1-.02-2.341c.018-.778-.005-1.557-.019-2.336Z"/></g><path class="cls-11" d="M2.82,16.579s-.237.176-.2,1.79-.151,2.644.875,2.846A20.166,20.166,0,0,0,2.82,16.579Z"/><g class="cls-9"><path class="cls-10" d="M3.606,20.438a6.439,6.439,0,0,0,1.276,2.83,2.259,2.259,0,0,1-1.037-1.232A3.906,3.906,0,0,1,3.606,20.438Z"/></g><path class="cls-6" d="M35.585,13.215a9.879,9.879,0,0,1-.543-1c.016-.064.128-.5.814.207s1.659,2.2,1.452,2.745-1.021-.442-2.266-.061-1.883-1.088-1.883-1.088S33.913,11.852,35.585,13.215Z"/><path class="cls-2" d="M29.59,11.013h3.868a2.126,2.126,0,0,1,2.126,2.126v1.007a1.111,1.111,0,0,1-1.111,1.111H31.612a3.133,3.133,0,0,1-3.133-3.133v0a1.111,1.111,0,0,1,1.111-1.111Z"/><path class="cls-12" d="M36.208,20.05s-.2.786,1.605.95,3.175-.23,3.274.835a12.787,12.787,0,0,1,0,2.095s-2.439.671-2.767.671a7.783,7.783,0,0,1,2.9.278,3.8,3.8,0,0,0,1.9.344A2.413,2.413,0,0,1,41.954,23.5c-.163-1.2.115-2.9,1.163-2.963a3.481,3.481,0,0,0,1.211-.175S37.158,20.378,36.208,20.05Z"/><rect class="cls-12" x="42.265" y="20.705" width="4.322" height="4.322" rx="1.68"/><rect class="cls-2" x="41.821" y="21.302" width="4.204" height="3.328" rx="1.614" transform="translate(15.158 63.329) rotate(-82.128)"/><path class="cls-12" d="M44.049,24.727a1.5,1.5,0,0,1-.668-.112.011.011,0,0,1-.005-.012.009.009,0,0,1,.012-.005h0A1.478,1.478,0,0,0,44.049,24.727Z"/><path class="cls-12" d="M42.835,24.208a1.49,1.49,0,0,1-.313-.616.039.039,0,0,1,.076-.018v0a1.366,1.366,0,0,0,.265.608.018.018,0,0,1,0,.026A.018.018,0,0,1,42.835,24.208Z"/><path class="cls-12" d="M42.469,22.907c0-.23-.025-.446-.007-.692a.085.085,0,1,1,.17.013v.012c-.03.205-.027.443-.037.667a.063.063,0,0,1-.064.061A.065.065,0,0,1,42.469,22.907Z"/><path class="cls-12" d="M42.711,21.54a1.547,1.547,0,0,1,.545-.481.115.115,0,1,1,.108.2l0,0a1.311,1.311,0,0,0-.476.4.107.107,0,0,1-.174-.124Z"/><path class="cls-12" d="M43.96,20.88a1.61,1.61,0,0,1,.711.139.115.115,0,0,1,.057.154.117.117,0,0,1-.15.059,1.392,1.392,0,0,0-.618-.1.125.125,0,0,1-.011-.249h.011Z"/><path class="cls-12" d="M45.243,21.468a1.463,1.463,0,0,1,.291.662.086.086,0,0,1-.169.034,1.375,1.375,0,0,0-.288-.562.107.107,0,0,1,.164-.137Z"/><path class="cls-12" d="M45.541,22.825c-.011.228-.006.45-.039.685a.039.039,0,0,1-.044.034.043.043,0,0,1-.034-.045c.015-.217,0-.448-.009-.674a.063.063,0,1,1,.126-.006Z"/><path class="cls-12" d="M45.226,24.14a1.441,1.441,0,0,1-.521.438.009.009,0,1,1-.008-.016,1.43,1.43,0,0,0,.5-.443.018.018,0,0,1,.025,0,.02.02,0,0,1,0,.026Z"/><path class="cls-13" d="M36.077,20.983s.18.573,2,.639.9.655.081.605S35.865,22.6,36.077,20.983Z"/><path class="cls-14" d="M36.077,22.011s.18.573,2,.639.9.654.081.605S35.865,23.632,36.077,22.011Z"/><path class="cls-15" d="M36.077,23.059s.18.573,2,.638.9.655.081.606S35.865,24.68,36.077,23.059Z"/><path class="cls-15" d="M2.775,20.391s.072.911.131,1.271a.537.537,0,0,0,.415.427s.023-.813-.023-1.245S2.775,20.391,2.775,20.391Z"/><path class="cls-12" d="M35.553,20.444c-.013.612-.013,1.225.012,1.835a4.473,4.473,0,0,0,.311,1.759A2.364,2.364,0,0,0,37.2,25.132a6.855,6.855,0,0,0,1.756.394,22.289,22.289,0,0,0,3.646.09,33.369,33.369,0,0,0,3.647-.369,22.524,22.524,0,0,1-7.323.527,7.053,7.053,0,0,1-1.811-.432A2.48,2.48,0,0,1,35.7,24.12a4.565,4.565,0,0,1-.259-1.84C35.459,21.665,35.5,21.054,35.553,20.444Z"/><path class="cls-12" d="M36.081,24.525a1.656,1.656,0,0,0,.8.338,4.521,4.521,0,0,0,.872.082c.3.016.594.012.89,0a3.432,3.432,0,0,0,.882-.114,3.257,3.257,0,0,1-1.778.363,3.525,3.525,0,0,1-.915-.147A1.311,1.311,0,0,1,36.081,24.525Z"/><path class="cls-16" d="M46.085,20.15a2.83,2.83,0,0,1,.938.711,8.416,8.416,0,0,1,1.2,3.269,7.518,7.518,0,0,0-1.069-3.989C46.021,18.577,46.085,20.15,46.085,20.15Z"/><path class="cls-16" d="M48.138,21.213l4.766-.508a1.791,1.791,0,0,0,.978.454,1.185,1.185,0,0,0,1.022-.715c.212-.431,1.015-.774,1.015-.774a5.977,5.977,0,0,0-.824,1.021,1.285,1.285,0,0,1-1.064.769,3.969,3.969,0,0,1-1.3-.455Z"/><path class="cls-16" d="M48.223,22.435l4.766-.808a1.791,1.791,0,0,0,.979.454,1.184,1.184,0,0,0,1.021-.715A3.038,3.038,0,0,1,56,20.491a10.484,10.484,0,0,0-.823,1.122,1.288,1.288,0,0,1-1.064.769,3.969,3.969,0,0,1-1.3-.455Z"/><path class="cls-16" d="M48.383,23.657l4.766-1.108a1.791,1.791,0,0,0,.979.454,1.187,1.187,0,0,0,1.021-.715,3.2,3.2,0,0,1,.815-.875s-.283.567-.624,1.122a1.285,1.285,0,0,1-1.063.769,3.96,3.96,0,0,1-1.3-.455Z"/><g class="cls-17"><path class="cls-18" d="M12.535,7.429,4.616,9.811a1.737,1.737,0,0,0-.92,1.213A12.87,12.87,0,0,0,3.431,13.1c3.248-1.036,6.157-1.887,8.774-2.564Z"/><path class="cls-19" d="M18.266,5.834A.271.271,0,0,0,18.1,5.49a.265.265,0,0,0-.18,0L13.554,7.062l-.482,3.256q2.169-.543,4.083-.93C17.579,7.915,18.025,6.551,18.266,5.834Z"/><path class="cls-20" d="M31.34,8.774c-1.053-1.519-2.246-3.129-3.4-4.479a2.891,2.891,0,0,0-3.274-.737c-.654.256-4.551,1.377-4.551,1.377-.066.731-.1,2.3-.086,3.935A32.324,32.324,0,0,1,31.34,8.774Z"/></g><ellipse class="cls-5" cx="25.516" cy="32.007" rx="0.76" ry="1.165" transform="translate(-1.742 1.47) rotate(-3.19)"/><ellipse class="cls-6" cx="25.504" cy="32.019" rx="0.329" ry="0.539" transform="translate(-1.742 1.469) rotate(-3.19)"/><ellipse class="cls-6" cx="25.468" cy="31.153" rx="0.123" ry="0.159"/><ellipse class="cls-6" cx="26.041" cy="31.717" rx="0.123" ry="0.159" transform="translate(-9.555 11.296) rotate(-20.771)"/><ellipse class="cls-6" cx="24.988" cy="31.693" rx="0.159" ry="0.123" transform="translate(-13.125 44.97) rotate(-70.953)"/><ellipse class="cls-6" cx="26.041" cy="32.341" rx="0.159" ry="0.123" transform="matrix(0.277, -0.961, 0.961, 0.277, -12.24, 48.425)"/><ellipse class="cls-6" cx="25.032" cy="32.326" rx="0.123" ry="0.159" transform="translate(-8.383 8.768) rotate(-17.063)"/><ellipse class="cls-6" cx="25.524" cy="32.888" rx="0.123" ry="0.159"/><path class="cls-6" d="M7.237,24.644c-.08-1.161-.491-2.079-.917-2.049,0,0-.01,0-.015.005s-.011,0-.017,0c-.353.029-.592.724-.6,1.634,0,.168,0,.341.009.521.08,1.161.491,2.079.917,2.049l.011,0,.01,0c.239-.019.424-.347.524-.834A4.712,4.712,0,0,0,7.237,24.644Z"/><path class="cls-21" d="M7.162,24.634c-.072-1.039-.44-1.86-.821-1.833l-.013,0s-.01,0-.015,0c-.317.026-.531.647-.541,1.462,0,.15,0,.3.009.466.072,1.039.439,1.86.82,1.834l.01,0,.009,0c.214-.017.379-.311.469-.747A4.28,4.28,0,0,0,7.162,24.634Z"/><path class="cls-6" d="M6.727,23.509l-.177.717s-.028.17-.081.174-.1-.111-.1-.111l-.288-.735a.3.3,0,0,1-.013-.179c.028-.075.106-.3.266-.311A.426.426,0,0,1,6.727,23.509Z"/><path class="cls-6" d="M6.886,25.806,6.6,25.081s-.053-.174-.11-.17-.089.131-.089.131l-.2.811a.323.323,0,0,0,.013.19c.04.075.177.283.346.272A.422.422,0,0,0,6.886,25.806Z"/><path class="cls-6" d="M5.992,23.659l.354.707a.636.636,0,0,1,.093.292.876.876,0,0,1-.03.3l-.273.783s-.038.109-.077.005a3.721,3.721,0,0,1-.191-.984C5.832,24.249,5.875,23.481,5.992,23.659Z"/><path class="cls-6" d="M6.8,23.611l-.251.743a.644.644,0,0,0-.052.3.869.869,0,0,0,.071.292l.375.733s.053.1.077,0a3.738,3.738,0,0,0,.054-.994C7.034,24.169,6.886,23.42,6.8,23.611Z"/><ellipse class="cls-5" cx="6.446" cy="24.74" rx="0.171" ry="0.611" transform="translate(-2.049 0.627) rotate(-4.804)"/><ellipse class="cls-6" cx="6.444" cy="24.747" rx="0.074" ry="0.283" transform="translate(-2.08 0.637) rotate(-4.875)"/><ellipse class="cls-6" cx="6.405" cy="24.293" rx="0.028" ry="0.084" transform="translate(-1.66 0.5) rotate(-3.954)"/><ellipse class="cls-6" cx="6.554" cy="24.58" rx="0.028" ry="0.082" transform="translate(-3.299 1.127) rotate(-7.858)"/><ellipse class="cls-6" cx="6.317" cy="24.584" rx="0.028" ry="0.082" transform="translate(-0.154 0.04) rotate(-0.358)"/><ellipse class="cls-6" cx="6.576" cy="24.907" rx="0.028" ry="0.082" transform="translate(-0.392 0.107) rotate(-0.904)"/><ellipse class="cls-6" cx="6.35" cy="24.915" rx="0.028" ry="0.082" transform="translate(-3.068 0.991) rotate(-7.19)"/><ellipse class="cls-6" cx="6.48" cy="25.201" rx="0.028" ry="0.084" transform="translate(-1.722 0.507) rotate(-3.954)"/><path class="cls-2" d="M28.726,24.247a41.719,41.719,0,0,1,3.028,3.262,15.936,15.936,0,0,1,1.321,1.807c.381.662.679,1.316,1.1,1.922a8.091,8.091,0,0,0,3.19,2.914,9.274,9.274,0,0,0,4.283.863,8.578,8.578,0,0,1-4.379-.662A8.119,8.119,0,0,1,33.934,31.4c-.42-.618-.734-1.322-1.085-1.947a20.131,20.131,0,0,0-1.268-1.8C30.672,26.484,29.709,25.357,28.726,24.247Z"/><path class="cls-7" d="M28.479,2.212s4.852,4.756,7.443,7.6c.828.91,1.33,1.8,2.535,2.126,2.2.593,5.365.137,7.343.425,6.177.9,5.774.629,5.774.629S42.246,3.465,28.479,2.212Z"/><path class="cls-2" d="M37.2,10.279s5.825,1.021,7.644,1.612a9.648,9.648,0,0,1,1.979.739l.446.09S45.877,11.508,37.2,10.279Z"/><ellipse class="cls-2" cx="47.404" cy="12.892" rx="0.199" ry="0.274" transform="translate(0.794 28.41) rotate(-33.629)"/><path class="cls-13" d="M56.5,19.817c-.124-.467-.268-.772-.379-.756-.068.01-.112.14-.133.346a4.356,4.356,0,0,1,.2.669A.886.886,0,0,0,56.5,19.817Z"/><path class="cls-14" d="M56.707,20.932h0c.134-.107-.007-.452-.091-.752a.131.131,0,0,0-.047-.077c-.087-.061-.239.116-.324.23q.036.183.066.381c.018.124.032.244.044.36.008-.012.015-.017.017-.009C56.381,21.094,56.574,21.038,56.707,20.932Z"/><path class="cls-15" d="M56.39,21.551a3.832,3.832,0,0,1-.009.505c.08.191.16.3.227.293.113-.017.162-.357.144-.846C56.726,21.315,56.523,21.414,56.39,21.551Z"/><path class="cls-10" d="M52.691,10.97a1.7,1.7,0,0,0-.629.163,4.347,4.347,0,0,0-.575.288c-.172.083-.172.277-.121.486a3.576,3.576,0,0,1,.144.606,4.637,4.637,0,0,1-.291-.56.544.544,0,0,1,.161-.7,2.988,2.988,0,0,1,.634-.265A1.166,1.166,0,0,1,52.691,10.97Z"/><path class="cls-10" d="M29.669,11.234a9.847,9.847,0,0,1,2.107-.114c.7.078,1.4.143,2.1.263a2.526,2.526,0,0,1,1.68,1.3,2.159,2.159,0,0,1,.276,1.062,2.267,2.267,0,0,0,.015,1.025l-.02.016a1.87,1.87,0,0,1-.191-1.04,2.425,2.425,0,0,0-.306-.94,2.773,2.773,0,0,0-1.491-1.292,5.672,5.672,0,0,0-2.071-.188c-.7,0-1.4-.015-2.1-.068Z"/></g></g></svg>