<svg id="Background" xmlns="http://www.w3.org/2000/svg" viewBox="0 0 63.941 26.044"><defs><style>.cls-1{isolation:isolate;}.cls-2{fill:#374444;}.cls-3{fill:#46c2d9;}</style></defs><title>Ncarrier</title><g id="Ncarrier_Let_s_SOLVE_TRANSPORTATION" data-name="Ncarrier Let s SOLVE TRANSPORTATION" class="cls-1"><g class="cls-1"><path class="cls-2" d="M9.957,13.832l.008.264a.576.576,0,0,1-.152.424.556.556,0,0,1-.412.152,1.072,1.072,0,0,1-.579-.216,2.862,2.862,0,0,1-.68-.728,6.923,6.923,0,0,1-.712-1.395,13.158,13.158,0,0,1-.583-1.883A18.162,18.162,0,0,1,6.384,6.3,16.828,16.828,0,0,1,6.5,4.247l-.1.144A21.016,21.016,0,0,0,3.761,10.77,25.577,25.577,0,0,0,3.01,14.5q-.031.239-.392.239A.857.857,0,0,1,1.8,14.16a1.538,1.538,0,0,1-.088-.584,6.35,6.35,0,0,1,.14-1.1q.139-.723.388-1.6t.6-1.847q.352-.97.771-1.922t.9-1.815a12.581,12.581,0,0,1,1-1.527,3.218,3.218,0,0,1,2.126-1.5q.543-.031.687.168A.983.983,0,0,1,8.35,3.2a7.662,7.662,0,0,0-.232,1.854c0,.614.015,1.13.044,1.551s.071.844.124,1.267.119.844.2,1.259.161.813.252,1.191a12.469,12.469,0,0,0,.631,1.967q.256-.663.56-1.327L11.116,8.34a9.389,9.389,0,0,0,.991-3.565q0-1.263-.519-1.527a.264.264,0,0,1-.156-.208.446.446,0,0,1,.056-.3.912.912,0,0,1,.22-.264,1.089,1.089,0,0,1,.707-.263,1.582,1.582,0,0,1,.716.163,1.622,1.622,0,0,1,.544.436,1.933,1.933,0,0,1,.407,1.227A4.74,4.74,0,0,1,13.838,5.5a13.341,13.341,0,0,1-.627,1.575q-.384.819-.856,1.667l-.919,1.679a19.014,19.014,0,0,0-1.424,3.037A1.151,1.151,0,0,0,9.957,13.832Z"/><path class="cls-2" d="M13.531,11.9a5.335,5.335,0,0,1,.22-1.388A6.431,6.431,0,0,1,14.294,9.2,6.131,6.131,0,0,1,15.1,8.068a5.646,5.646,0,0,1,1.02-.895,4.205,4.205,0,0,1,2.422-.792,1.774,1.774,0,0,1,1.783,1.048,1.939,1.939,0,0,1,.155.851,2.73,2.73,0,0,1-.155.871,3.1,3.1,0,0,1-.36.708c-.326.469-.653.7-.984.7a1.02,1.02,0,0,1-.814-.305.641.641,0,0,1-.145-.615.333.333,0,0,1,.145-.188,2.611,2.611,0,0,0,.3-.267,1.876,1.876,0,0,0,.543-1.272q.016-.5-.607-.5A2.063,2.063,0,0,0,17,8.172a6.089,6.089,0,0,0-1.511,2.806,2.518,2.518,0,0,0,.145,2.174,1.014,1.014,0,0,0,.846.4,2.841,2.841,0,0,0,1.743-.639,2.333,2.333,0,0,0,.415-.408c.108-.139.206-.208.3-.208a.273.273,0,0,1,.229.132.591.591,0,0,1,.092.34,1.37,1.37,0,0,1-.424.927,3.649,3.649,0,0,1-2.614,1.039,2.661,2.661,0,0,1-2.015-.743A2.81,2.81,0,0,1,13.531,11.9Z"/><path class="cls-2" d="M27.352,12.529q0,.735.52.735a1.387,1.387,0,0,0,.6-.112.983.983,0,0,1,.315-.111c.112,0,.168.058.168.175a1.423,1.423,0,0,1-.72,1.184,1.683,1.683,0,0,1-1.551.255,1.3,1.3,0,0,1-.767-.791,1.615,1.615,0,0,1-.119-.567,5.111,5.111,0,0,1,.08-.88,4.443,4.443,0,0,1-1.847,2.094,2.026,2.026,0,0,1-.935.224,1.715,1.715,0,0,1-.86-.2,1.877,1.877,0,0,1-.62-.563,3.018,3.018,0,0,1-.472-1.887,5.94,5.94,0,0,1,.84-2.79,6.534,6.534,0,0,1,1.839-2.086A3.564,3.564,0,0,1,25.9,6.381a1.8,1.8,0,0,1,1.559.888q.552-.888.975-.888a1.175,1.175,0,0,1,.688.168q.439.319.311.56-2.005,4.109-2.062,5.116A2.672,2.672,0,0,0,27.352,12.529Zm-4.436.032q0,.958.615.959.471,0,1.159-.8a10.95,10.95,0,0,0,1.783-3.166,11.245,11.245,0,0,0,.415-1.247.936.936,0,0,0-.455-.8.841.841,0,0,0-.427-.087,1.42,1.42,0,0,0-.664.208,3.21,3.21,0,0,0-.736.567,4.937,4.937,0,0,0-.663.851,6.672,6.672,0,0,0-.54,1.068A6.605,6.605,0,0,0,22.916,12.561Z"/><path class="cls-2" d="M30.078,14.464a1.059,1.059,0,0,1-.256-.268.568.568,0,0,1-.1-.256.674.674,0,0,1,.043-.264c.035-.1.082-.231.14-.379a18.61,18.61,0,0,0,1.631-5.389.655.655,0,0,0-.264-.543l-.16-.112a.245.245,0,0,1-.076-.2.4.4,0,0,1,.1-.268.949.949,0,0,1,.271-.223,1.481,1.481,0,0,1,.707-.185,1.583,1.583,0,0,1,.568.081,1.071,1.071,0,0,1,.348.215.858.858,0,0,1,.308.608,2.671,2.671,0,0,1-.073.647c-.05.219-.11.433-.179.644s-.139.41-.208.6a3.968,3.968,0,0,0-.136.42,1.106,1.106,0,0,0-.048.352.682.682,0,0,0,.232-.328l.312-.592a6.647,6.647,0,0,1,2.03-2.478,1.359,1.359,0,0,1,.692-.168.824.824,0,0,1,.651.284.992.992,0,0,1,.26.628,2,2,0,0,1-.048.571,1.633,1.633,0,0,1-.18.428A.754.754,0,0,1,36,8.74a.3.3,0,0,1-.193-.072l-.175-.152a.785.785,0,0,0-.507-.232.973.973,0,0,0-.592.32,5.832,5.832,0,0,0-.724.823,15.3,15.3,0,0,0-2.062,3.742L31.4,14.1a2.61,2.61,0,0,1-.24.492.353.353,0,0,1-.308.147,1.153,1.153,0,0,1-.407-.076A1.39,1.39,0,0,1,30.078,14.464Z"/><path class="cls-2" d="M36.753,14.464A1.059,1.059,0,0,1,36.5,14.2a.571.571,0,0,1-.1-.256.678.678,0,0,1,.044-.264c.034-.1.081-.231.14-.379a18.61,18.61,0,0,0,1.631-5.389.655.655,0,0,0-.264-.543l-.16-.112a.245.245,0,0,1-.076-.2.408.408,0,0,1,.1-.268.968.968,0,0,1,.272-.223,1.478,1.478,0,0,1,.707-.185,1.587,1.587,0,0,1,.568.081,1.071,1.071,0,0,1,.348.215.853.853,0,0,1,.307.608,2.669,2.669,0,0,1-.072.647c-.051.219-.11.433-.179.644s-.139.41-.208.6a3.968,3.968,0,0,0-.136.42,1.106,1.106,0,0,0-.048.352.673.673,0,0,0,.231-.328l.313-.592a6.647,6.647,0,0,1,2.03-2.478,1.359,1.359,0,0,1,.692-.168.824.824,0,0,1,.651.284.992.992,0,0,1,.26.628,2,2,0,0,1-.048.571,1.633,1.633,0,0,1-.18.428.755.755,0,0,1-.639.448.3.3,0,0,1-.193-.072l-.176-.152a.78.78,0,0,0-.506-.232.971.971,0,0,0-.592.32,5.832,5.832,0,0,0-.724.823,15.3,15.3,0,0,0-2.062,3.742l-.352.927a2.61,2.61,0,0,1-.24.492.354.354,0,0,1-.308.147,1.149,1.149,0,0,1-.407-.076A1.39,1.39,0,0,1,36.753,14.464Z"/><path class="cls-2" d="M46.075,13.16c.139,0,.208.091.208.272a1.163,1.163,0,0,1-.328.744,1.609,1.609,0,0,1-1.287.559,1.273,1.273,0,0,1-1.272-.751,1.46,1.46,0,0,1-.128-.64,3.056,3.056,0,0,1,.132-.835c.089-.306.2-.629.328-.967s.274-.681.428-1.028l.424-1.007a5.3,5.3,0,0,0,.464-1.487.984.984,0,0,0-.076-.475.661.661,0,0,0-.165-.18l-.16-.112a.226.226,0,0,1-.079-.2.408.408,0,0,1,.108-.268.987.987,0,0,1,.284-.223,1.811,1.811,0,0,1,.839-.185q1.175,0,1.175.616a4.448,4.448,0,0,1-.376,1.643c-.25.615-.463,1.113-.639,1.49l-.48,1.1a5.212,5.212,0,0,0-.528,1.751.312.312,0,0,0,.353.352,1.21,1.21,0,0,0,.519-.088A.673.673,0,0,1,46.075,13.16Zm1.639-8.653a1.487,1.487,0,0,1-.4.3,1.356,1.356,0,0,1-.471.144.858.858,0,0,1-.468-.076,1.1,1.1,0,0,1-.38-.3,1.235,1.235,0,0,1-.344-.807,1.14,1.14,0,0,1,.132-.612,1.1,1.1,0,0,1,.332-.332,1.347,1.347,0,0,1,.723-.248,2.255,2.255,0,0,1,.528.048,1.058,1.058,0,0,1,.348.16.768.768,0,0,1,.391.644A1.6,1.6,0,0,1,48,4.067,1.5,1.5,0,0,1,47.714,4.507Z"/><path class="cls-2" d="M48.161,11.858a5.22,5.22,0,0,1,.232-1.332,6.472,6.472,0,0,1,.535-1.23,7.256,7.256,0,0,1,.788-1.128,6.257,6.257,0,0,1,.979-.931,3.839,3.839,0,0,1,2.311-.856,1.774,1.774,0,0,1,1.822,1.127,2.279,2.279,0,0,1,.152.908,2.516,2.516,0,0,1-.2.967,2.828,2.828,0,0,1-.531.808,3.872,3.872,0,0,1-.808.651,5.48,5.48,0,0,1-1.019.488,7.573,7.573,0,0,1-2.43.416,1.439,1.439,0,0,0-.04.335,2.127,2.127,0,0,0,.048.5,1.451,1.451,0,0,0,.191.491.918.918,0,0,0,.832.48,3.394,3.394,0,0,0,1.807-.544,2.551,2.551,0,0,0,.508-.379.532.532,0,0,1,.339-.2.3.3,0,0,1,.251.172.705.705,0,0,1,.109.388,1.171,1.171,0,0,1-.24.735,4.065,4.065,0,0,1-3,1.007,2.562,2.562,0,0,1-1.887-.7A2.8,2.8,0,0,1,48.161,11.858ZM52.83,7.444q-.84,0-1.615,1.152a8.69,8.69,0,0,0-1.055,2.35,3.881,3.881,0,0,0,2.318-1.055,2.4,2.4,0,0,0,.9-1.655C53.382,7.709,53.2,7.444,52.83,7.444Z"/><path class="cls-2" d="M55.835,14.464a1.059,1.059,0,0,1-.256-.268.571.571,0,0,1-.1-.256.678.678,0,0,1,.044-.264c.034-.1.081-.231.14-.379A18.61,18.61,0,0,0,57.29,7.908a.655.655,0,0,0-.264-.543l-.16-.112a.245.245,0,0,1-.076-.2.408.408,0,0,1,.1-.268.968.968,0,0,1,.272-.223,1.478,1.478,0,0,1,.707-.185,1.583,1.583,0,0,1,.568.081,1.071,1.071,0,0,1,.348.215.858.858,0,0,1,.308.608,2.721,2.721,0,0,1-.073.647c-.051.219-.11.433-.179.644s-.139.41-.208.6a3.968,3.968,0,0,0-.136.42,1.106,1.106,0,0,0-.048.352.673.673,0,0,0,.231-.328l.313-.592a6.647,6.647,0,0,1,2.03-2.478,1.359,1.359,0,0,1,.692-.168.824.824,0,0,1,.651.284.992.992,0,0,1,.26.628,2,2,0,0,1-.048.571,1.633,1.633,0,0,1-.18.428.755.755,0,0,1-.639.448.3.3,0,0,1-.193-.072l-.176-.152a.78.78,0,0,0-.506-.232.971.971,0,0,0-.592.32,5.832,5.832,0,0,0-.724.823,15.3,15.3,0,0,0-2.062,3.742l-.352.927a2.61,2.61,0,0,1-.24.492.354.354,0,0,1-.308.147,1.149,1.149,0,0,1-.407-.076A1.39,1.39,0,0,1,55.835,14.464Z"/></g><g class="cls-1"><path class="cls-3" d="M2.992,20.318c-.158,0-.318.2-.482.583l-.294.746a2.523,2.523,0,0,1-.539.936,3.606,3.606,0,0,1,.866-.172,1.315,1.315,0,0,1,.138-.007.516.516,0,0,1,.145.022.388.388,0,0,1,.135.067.325.325,0,0,1,.122.27q0,.1-.072.1a.169.169,0,0,1-.076-.02.677.677,0,0,0-.084-.037,1.1,1.1,0,0,0-.109-.034,1.14,1.14,0,0,0-.292-.037,1.929,1.929,0,0,0-.289.02c-.093.014-.18.028-.261.044l-.229.044a.973.973,0,0,1-.16.02.128.128,0,0,1-.083-.024.294.294,0,0,1-.054-.061.276.276,0,0,1-.053-.134c0-.055.013-.091.039-.106q.153-.082.345-.634c.118-.342.2-.57.242-.686s.091-.23.143-.34a2.884,2.884,0,0,1,.17-.312,1.294,1.294,0,0,1,.2-.254.724.724,0,0,1,.52-.235.414.414,0,0,1,.338.173.572.572,0,0,1,.124.365,1.026,1.026,0,0,1-.209.585.828.828,0,0,1-.265.256.263.263,0,0,1-.125.037.2.2,0,0,1-.1-.022.3.3,0,0,1-.075-.054.2.2,0,0,1-.066-.126.08.08,0,0,1,.029-.073A1.442,1.442,0,0,0,3,20.894a.632.632,0,0,0,.161-.388C3.159,20.381,3.1,20.318,2.992,20.318Z"/><path class="cls-3" d="M3.424,22.219a1.162,1.162,0,0,1,.051-.3,1.5,1.5,0,0,1,.119-.273,1.582,1.582,0,0,1,.175-.25,1.325,1.325,0,0,1,.218-.207A.85.85,0,0,1,4.5,21a.393.393,0,0,1,.4.251.5.5,0,0,1,.034.2.549.549,0,0,1-.045.216.611.611,0,0,1-.118.179.872.872,0,0,1-.179.145,1.31,1.31,0,0,1-.226.108,1.676,1.676,0,0,1-.54.092.317.317,0,0,0-.009.075.409.409,0,0,0,.011.111.318.318,0,0,0,.042.109.2.2,0,0,0,.184.107.765.765,0,0,0,.4-.121.553.553,0,0,0,.112-.084.118.118,0,0,1,.075-.044.07.07,0,0,1,.057.038.17.17,0,0,1,.023.086.263.263,0,0,1-.052.164.91.91,0,0,1-.667.224.567.567,0,0,1-.419-.157A.617.617,0,0,1,3.424,22.219Zm1.038-.981c-.125,0-.244.086-.36.256a1.967,1.967,0,0,0-.234.523.861.861,0,0,0,.515-.235.533.533,0,0,0,.2-.367C4.584,21.3,4.543,21.238,4.462,21.238Z"/><path class="cls-3" d="M6.157,22.376q.051,0,.051.069a.214.214,0,0,1-.035.114.5.5,0,0,1-.192.2.6.6,0,0,1-.329.105A.339.339,0,0,1,5.29,22.6a2.665,2.665,0,0,1,.271-1.288c-.135-.012-.21-.036-.221-.071a.1.1,0,0,1-.006-.035.082.082,0,0,1,.017-.043.239.239,0,0,1,.043-.048.2.2,0,0,1,.126-.052h.141a1.8,1.8,0,0,1,.273-.511.149.149,0,0,1,.087-.029.206.206,0,0,1,.08.013.18.18,0,0,1,.058.035.166.166,0,0,1,.057.119.206.206,0,0,1-.022.082l-.132.286h.043l.178,0,.1,0h.084c.034,0,.05.012.05.037,0,.156-.184.234-.554.234H5.951l-.121.313a2.711,2.711,0,0,0-.2.776.148.148,0,0,0,.028.1.133.133,0,0,0,.106.035.368.368,0,0,0,.143-.027.579.579,0,0,0,.111-.059c.033-.022.06-.042.083-.06A.1.1,0,0,1,6.157,22.376Z"/><path class="cls-3" d="M7.147,20.687a.581.581,0,0,1-.12.071.317.317,0,0,1-.124.026c-.043,0-.066-.014-.071-.041s.008-.036.03-.062l.076-.078a.423.423,0,0,0,.15-.27.33.33,0,0,0-.045-.179c-.03-.048-.049-.082-.06-.1a.1.1,0,0,1,.007-.081.19.19,0,0,1,.084-.088.317.317,0,0,1,.163-.037.181.181,0,0,1,.158.088.341.341,0,0,1,.059.194.535.535,0,0,1-.027.181.758.758,0,0,1-.165.272A.864.864,0,0,1,7.147,20.687Z"/><path class="cls-3" d="M7.318,22.528a.225.225,0,0,1,.024-.1.281.281,0,0,1,.059-.079.229.229,0,0,1,.156-.069.064.064,0,0,1,.072.073.273.273,0,0,0,.123.257.17.17,0,0,0,.092.027.281.281,0,0,0,.082-.011.168.168,0,0,0,.061-.034.153.153,0,0,0,.065-.122.262.262,0,0,0-.033-.13.967.967,0,0,0-.08-.126l-.1-.142a.9.9,0,0,1-.214-.524.489.489,0,0,1,.169-.361A.684.684,0,0,1,8.286,21a.6.6,0,0,1,.41.13.311.311,0,0,1,.121.24.271.271,0,0,1-.106.224.236.236,0,0,1-.193.055.1.1,0,0,1-.065-.044.084.084,0,0,1-.009-.079.282.282,0,0,0,.015-.092.218.218,0,0,0-.019-.089.2.2,0,0,0-.048-.07.188.188,0,0,0-.13-.058.359.359,0,0,0-.113.015.269.269,0,0,0-.078.043A.208.208,0,0,0,8,21.435a.367.367,0,0,0,.032.161.946.946,0,0,0,.079.135c.031.045.065.09.1.136a1.458,1.458,0,0,1,.1.146.627.627,0,0,1,.112.315.424.424,0,0,1-.057.228.538.538,0,0,1-.148.157.706.706,0,0,1-.432.144.557.557,0,0,1-.364-.11A.279.279,0,0,1,7.318,22.528Z"/><path class="cls-3" d="M9.976,22.528a.225.225,0,0,1,.024-.1.281.281,0,0,1,.059-.079.23.23,0,0,1,.157-.069.064.064,0,0,1,.071.073.273.273,0,0,0,.123.257.17.17,0,0,0,.092.027.281.281,0,0,0,.082-.011.168.168,0,0,0,.061-.034.153.153,0,0,0,.065-.122.262.262,0,0,0-.033-.13.871.871,0,0,0-.08-.126l-.1-.142a.9.9,0,0,1-.214-.524.493.493,0,0,1,.169-.361A.684.684,0,0,1,10.944,21a.6.6,0,0,1,.41.13.311.311,0,0,1,.121.24.271.271,0,0,1-.106.224.234.234,0,0,1-.192.055.1.1,0,0,1-.066-.044.087.087,0,0,1-.009-.079.282.282,0,0,0,.015-.092.218.218,0,0,0-.019-.089.2.2,0,0,0-.047-.07.188.188,0,0,0-.13-.058.366.366,0,0,0-.114.015.269.269,0,0,0-.078.043.208.208,0,0,0-.069.158.382.382,0,0,0,.032.161,1.051,1.051,0,0,0,.079.135c.031.045.066.09.1.136a1.458,1.458,0,0,1,.1.146.62.62,0,0,1,.113.315.424.424,0,0,1-.058.228.548.548,0,0,1-.147.157.709.709,0,0,1-.433.144.556.556,0,0,1-.363-.11A.277.277,0,0,1,9.976,22.528Z"/><path class="cls-3" d="M11.766,22.72a.5.5,0,0,1-.117-.18.742.742,0,0,1-.044-.259,1.17,1.17,0,0,1,.036-.3,1.485,1.485,0,0,1,.109-.294,1.432,1.432,0,0,1,.169-.267,1.238,1.238,0,0,1,.217-.217.872.872,0,0,1,.539-.2.487.487,0,0,1,.495.322.918.918,0,0,1,.01.563,1.447,1.447,0,0,1-.273.558,1.093,1.093,0,0,1-.466.36.709.709,0,0,1-.265.054.757.757,0,0,1-.233-.034A.466.466,0,0,1,11.766,22.72Zm.34-.861a1.661,1.661,0,0,0-.085.27,1.167,1.167,0,0,0-.029.262.44.44,0,0,0,.038.193.123.123,0,0,0,.118.07.269.269,0,0,0,.161-.056.758.758,0,0,0,.154-.148,1.429,1.429,0,0,0,.14-.213,2.215,2.215,0,0,0,.116-.252,1.409,1.409,0,0,0,.105-.508c0-.131-.027-.214-.08-.249a.166.166,0,0,0-.09-.021.24.24,0,0,0-.133.052.805.805,0,0,0-.149.141,1.606,1.606,0,0,0-.144.208A1.941,1.941,0,0,0,12.106,21.859Z"/><path class="cls-3" d="M13.558,22.77a.369.369,0,0,1-.072-.118.5.5,0,0,1-.027-.167,1,1,0,0,1,.044-.255c.029-.107.065-.228.111-.364l.148-.443A6.927,6.927,0,0,0,14.131,20c.01-.1.058-.149.145-.149a.22.22,0,0,1,.135.039.206.206,0,0,1,.1.174,1.24,1.24,0,0,1-.033.234c-.02.091-.047.192-.078.3s-.069.223-.11.344l-.245.721a3.321,3.321,0,0,0-.212.794q0,.1.078.1a.29.29,0,0,0,.136-.032.258.258,0,0,1,.079-.032.033.033,0,0,1,.038.037.313.313,0,0,1-.162.265.365.365,0,0,1-.2.073.414.414,0,0,1-.144-.021A.287.287,0,0,1,13.558,22.77Z"/><path class="cls-3" d="M14.5,22.669a.332.332,0,0,1-.026-.139.7.7,0,0,1,.024-.177,1.968,1.968,0,0,1,.064-.2c.027-.067.055-.136.087-.206l.091-.206q.176-.406.13-.48a.235.235,0,0,0-.082-.067.048.048,0,0,1-.02-.044.087.087,0,0,1,.026-.059.227.227,0,0,1,.068-.05A.4.4,0,0,1,15.03,21a.348.348,0,0,1,.132.019.239.239,0,0,1,.076.047.2.2,0,0,1,.057.142.638.638,0,0,1-.033.189,2.137,2.137,0,0,1-.08.22c-.031.077-.066.156-.1.236l-.1.233a1.129,1.129,0,0,0-.112.341c0,.109.038.163.115.163a.712.712,0,0,0,.557-.352,1.335,1.335,0,0,0,.217-.443.871.871,0,0,0,.029-.208c0-.062,0-.114-.006-.155a.638.638,0,0,0-.02-.11.37.37,0,0,0-.078-.148c-.025-.03-.014-.066.034-.108A.331.331,0,0,1,15.93,21a.2.2,0,0,1,.157.084.429.429,0,0,1,.085.285,1.217,1.217,0,0,1-.055.364,1.657,1.657,0,0,1-.151.343,1.728,1.728,0,0,1-.226.306,1.71,1.71,0,0,1-.282.247,1.118,1.118,0,0,1-.647.228A.313.313,0,0,1,14.5,22.669Z"/><path class="cls-3" d="M16.364,22.219a1.162,1.162,0,0,1,.052-.3,1.37,1.37,0,0,1,.119-.273,1.519,1.519,0,0,1,.175-.25,1.281,1.281,0,0,1,.217-.207A.85.85,0,0,1,17.441,21a.393.393,0,0,1,.4.251.482.482,0,0,1,.035.2.567.567,0,0,1-.045.216.654.654,0,0,1-.118.179.9.9,0,0,1-.179.145,1.32,1.32,0,0,1-.227.108,1.672,1.672,0,0,1-.54.092.317.317,0,0,0-.009.075.409.409,0,0,0,.011.111.339.339,0,0,0,.042.109A.205.205,0,0,0,17,22.6a.764.764,0,0,0,.4-.121.553.553,0,0,0,.112-.084.12.12,0,0,1,.076-.044.069.069,0,0,1,.056.038.162.162,0,0,1,.024.086.264.264,0,0,1-.053.164.907.907,0,0,1-.667.224.567.567,0,0,1-.419-.157A.621.621,0,0,1,16.364,22.219Zm1.038-.981c-.125,0-.244.086-.359.256a1.968,1.968,0,0,0-.235.523.858.858,0,0,0,.515-.235.529.529,0,0,0,.2-.367C17.524,21.3,17.483,21.238,17.4,21.238Z"/><path class="cls-3" d="M20.214,22.376c.034,0,.05.023.05.069a.206.206,0,0,1-.035.114.494.494,0,0,1-.191.2.607.607,0,0,1-.329.105.34.34,0,0,1-.363-.256,2.683,2.683,0,0,1,.272-1.288c-.136-.012-.21-.036-.222-.071a.1.1,0,0,1-.006-.035.077.077,0,0,1,.018-.043.212.212,0,0,1,.043-.048.2.2,0,0,1,.126-.052h.141a1.745,1.745,0,0,1,.273-.511.147.147,0,0,1,.087-.029.21.21,0,0,1,.08.013.191.191,0,0,1,.058.035.165.165,0,0,1,.056.119.22.22,0,0,1-.021.082l-.132.286h.043l.178,0,.1,0h.084c.034,0,.051.012.051.037q0,.234-.555.234h-.013l-.122.313a2.746,2.746,0,0,0-.2.776.142.142,0,0,0,.029.1.131.131,0,0,0,.106.035.368.368,0,0,0,.143-.027.579.579,0,0,0,.111-.059c.032-.022.06-.042.083-.06A.1.1,0,0,1,20.214,22.376Z"/><path class="cls-3" d="M20.492,22.8a.264.264,0,0,1-.057-.059.141.141,0,0,1-.023-.057.158.158,0,0,1,.01-.059c.007-.023.018-.051.031-.084a4.108,4.108,0,0,0,.362-1.2.142.142,0,0,0-.058-.12l-.036-.025a.054.054,0,0,1-.016-.044.091.091,0,0,1,.021-.059.218.218,0,0,1,.061-.05A.331.331,0,0,1,20.944,21a.351.351,0,0,1,.126.018.244.244,0,0,1,.078.048.192.192,0,0,1,.069.135.6.6,0,0,1-.017.144,1.374,1.374,0,0,1-.04.143c-.016.047-.03.091-.046.133a.828.828,0,0,0-.03.093.255.255,0,0,0-.011.079.161.161,0,0,0,.052-.073l.069-.132a1.466,1.466,0,0,1,.451-.55A.3.3,0,0,1,21.8,21a.182.182,0,0,1,.144.064.219.219,0,0,1,.059.139.472.472,0,0,1-.011.127.376.376,0,0,1-.04.095.168.168,0,0,1-.143.1.063.063,0,0,1-.042-.016l-.039-.033a.178.178,0,0,0-.113-.052.221.221,0,0,0-.132.071,1.471,1.471,0,0,0-.16.183,3.446,3.446,0,0,0-.459.831l-.078.206a.513.513,0,0,1-.053.11.077.077,0,0,1-.068.033.266.266,0,0,1-.091-.017A.3.3,0,0,1,20.492,22.8Z"/><path class="cls-3" d="M23.34,22.368c0,.109.039.164.116.164a.3.3,0,0,0,.132-.025.207.207,0,0,1,.07-.025c.024,0,.037.013.037.039a.315.315,0,0,1-.16.263.373.373,0,0,1-.344.057.287.287,0,0,1-.171-.176.368.368,0,0,1-.026-.126,1.247,1.247,0,0,1,.017-.2.989.989,0,0,1-.41.466.453.453,0,0,1-.208.05.4.4,0,0,1-.191-.045.436.436,0,0,1-.138-.126.668.668,0,0,1-.1-.419,1.317,1.317,0,0,1,.186-.62,1.468,1.468,0,0,1,.408-.464A.794.794,0,0,1,23.016,21a.4.4,0,0,1,.347.2c.082-.131.154-.2.217-.2a.256.256,0,0,1,.152.038c.066.047.089.089.07.124a4.611,4.611,0,0,0-.458,1.137C23.342,22.322,23.34,22.345,23.34,22.368Zm-.986.008c0,.142.045.213.137.213.069,0,.155-.06.258-.178a2.438,2.438,0,0,0,.395-.7,2.519,2.519,0,0,0,.093-.278.209.209,0,0,0-.1-.177.18.18,0,0,0-.094-.02.328.328,0,0,0-.148.046.742.742,0,0,0-.164.126,1.177,1.177,0,0,0-.147.19,1.543,1.543,0,0,0-.119.237A1.45,1.45,0,0,0,22.354,22.376Z"/><path class="cls-3" d="M25.219,21.338c-.037,0-.088.035-.157.106s-.126.134-.176.192l-.15.182-.292.371c-.068.13-.122.239-.161.325l-.1.206a.544.544,0,0,1-.065.108.1.1,0,0,1-.074.031.253.253,0,0,1-.091-.017.24.24,0,0,1-.075-.044.163.163,0,0,1-.068-.124.311.311,0,0,1,.039-.105l.068-.144c.021-.043.046-.1.074-.163l.1-.243a2.555,2.555,0,0,0,.21-.678.137.137,0,0,0-.053-.12l-.035-.025a.049.049,0,0,1-.018-.044.094.094,0,0,1,.023-.059.219.219,0,0,1,.064-.05.375.375,0,0,1,.286-.023.225.225,0,0,1,.074.048.181.181,0,0,1,.066.13.534.534,0,0,1-.017.136,1.357,1.357,0,0,1-.043.138c-.016.047-.035.093-.054.138s-.036.084-.051.117l-.036.076c-.009.019-.011.025-.007.018q.2-.273.259-.352l.124-.149a1.286,1.286,0,0,1,.215-.211A.51.51,0,0,1,25.35,21a.433.433,0,0,1,.154.024.328.328,0,0,1,.108.065.3.3,0,0,1,.1.231.752.752,0,0,1-.065.293c-.043.1-.079.184-.111.248s-.061.128-.089.193a1.24,1.24,0,0,0-.134.431c0,.04.033.061.1.061a.3.3,0,0,0,.137-.032.247.247,0,0,1,.078-.032.033.033,0,0,1,.038.037.313.313,0,0,1-.162.265.362.362,0,0,1-.2.073.486.486,0,0,1-.15-.02.291.291,0,0,1-.106-.062.335.335,0,0,1-.105-.263,1.385,1.385,0,0,1,.13-.515c.063-.141.108-.238.133-.29l.06-.126a.436.436,0,0,0,.056-.179C25.317,21.36,25.284,21.338,25.219,21.338Z"/><path class="cls-3" d="M25.9,22.528a.225.225,0,0,1,.024-.1.281.281,0,0,1,.059-.079.23.23,0,0,1,.157-.069.064.064,0,0,1,.071.073.273.273,0,0,0,.123.257.17.17,0,0,0,.092.027.281.281,0,0,0,.082-.011.168.168,0,0,0,.061-.034.153.153,0,0,0,.065-.122.262.262,0,0,0-.033-.13.871.871,0,0,0-.08-.126l-.1-.142a.9.9,0,0,1-.214-.524.493.493,0,0,1,.169-.361A.684.684,0,0,1,26.863,21a.6.6,0,0,1,.41.13.311.311,0,0,1,.121.24.271.271,0,0,1-.106.224.236.236,0,0,1-.193.055.1.1,0,0,1-.065-.044.084.084,0,0,1-.009-.079.282.282,0,0,0,.015-.092.218.218,0,0,0-.019-.089.19.19,0,0,0-.048-.07.185.185,0,0,0-.129-.058.366.366,0,0,0-.114.015.269.269,0,0,0-.078.043.208.208,0,0,0-.069.158.382.382,0,0,0,.032.161,1.051,1.051,0,0,0,.079.135c.031.045.066.09.1.136a1.458,1.458,0,0,1,.1.146.62.62,0,0,1,.113.315.424.424,0,0,1-.058.228.548.548,0,0,1-.147.157.709.709,0,0,1-.433.144.556.556,0,0,1-.363-.11A.277.277,0,0,1,25.9,22.528Z"/><path class="cls-3" d="M27.839,22.672c0,.018-.029.111-.079.281s-.089.3-.123.4a1.428,1.428,0,0,1-.184.416.186.186,0,0,1-.143.064.168.168,0,0,1-.154-.1.123.123,0,0,1-.016-.063.516.516,0,0,1,.053-.15,7.967,7.967,0,0,0,.375-1.155c.063-.227.1-.382.124-.463l.058-.222c.036-.147.057-.247.064-.3a.181.181,0,0,0-.01-.111.136.136,0,0,0-.044-.05l-.046-.029a.045.045,0,0,1-.018-.046.1.1,0,0,1,.029-.06.226.226,0,0,1,.065-.047A.379.379,0,0,1,27.951,21a.33.33,0,0,1,.127.02.2.2,0,0,1,.076.053.176.176,0,0,1,.058.135c-.013.091-.026.17-.039.234A.84.84,0,0,1,28.817,21a.4.4,0,0,1,.406.315.838.838,0,0,1,.037.268,1.089,1.089,0,0,1-.048.317,1.47,1.47,0,0,1-.321.563,1.53,1.53,0,0,1-.228.209.842.842,0,0,1-.484.185A.371.371,0,0,1,27.839,22.672Zm.274-.757a1.556,1.556,0,0,0-.105.249.741.741,0,0,0-.04.228.3.3,0,0,0,.044.169.148.148,0,0,0,.131.067.361.361,0,0,0,.174-.047.769.769,0,0,0,.167-.127,1.071,1.071,0,0,0,.151-.188,1.657,1.657,0,0,0,.122-.228,1.287,1.287,0,0,0,.112-.5.482.482,0,0,0-.034-.2.111.111,0,0,0-.1-.071.252.252,0,0,0-.146.054.975.975,0,0,0-.16.144,1.633,1.633,0,0,0-.165.206A2,2,0,0,0,28.113,21.915Z"/><path class="cls-3" d="M29.689,22.72a.485.485,0,0,1-.117-.18.742.742,0,0,1-.044-.259,1.17,1.17,0,0,1,.036-.3,1.485,1.485,0,0,1,.109-.294,1.382,1.382,0,0,1,.169-.267,1.238,1.238,0,0,1,.217-.217A.871.871,0,0,1,30.6,21a.488.488,0,0,1,.5.322.918.918,0,0,1,.01.563,1.461,1.461,0,0,1-.273.558,1.093,1.093,0,0,1-.466.36.71.71,0,0,1-.266.054.75.75,0,0,1-.232-.034A.466.466,0,0,1,29.689,22.72Zm.34-.861a1.661,1.661,0,0,0-.085.27,1.167,1.167,0,0,0-.029.262.426.426,0,0,0,.038.193.122.122,0,0,0,.118.07.271.271,0,0,0,.161-.056.73.73,0,0,0,.153-.148,1.357,1.357,0,0,0,.141-.213,2.049,2.049,0,0,0,.115-.252,1.392,1.392,0,0,0,.106-.508c0-.131-.028-.214-.08-.249a.166.166,0,0,0-.09-.021.24.24,0,0,0-.133.052.775.775,0,0,0-.149.141,1.606,1.606,0,0,0-.144.208A1.941,1.941,0,0,0,30.029,21.859Z"/><path class="cls-3" d="M31.4,22.8a.264.264,0,0,1-.057-.059.141.141,0,0,1-.023-.057.158.158,0,0,1,.01-.059c.008-.023.018-.051.031-.084a4.108,4.108,0,0,0,.362-1.2.142.142,0,0,0-.058-.12l-.035-.025a.052.052,0,0,1-.017-.044.091.091,0,0,1,.021-.059.233.233,0,0,1,.061-.05A.334.334,0,0,1,31.853,21a.351.351,0,0,1,.126.018.234.234,0,0,1,.078.048.192.192,0,0,1,.069.135.6.6,0,0,1-.017.144,1.374,1.374,0,0,1-.04.143c-.016.047-.03.091-.046.133s-.025.073-.03.093a.255.255,0,0,0-.011.079.161.161,0,0,0,.052-.073l.069-.132a1.476,1.476,0,0,1,.451-.55A.3.3,0,0,1,32.708,21a.182.182,0,0,1,.144.064.219.219,0,0,1,.059.139.472.472,0,0,1-.011.127.376.376,0,0,1-.04.095.168.168,0,0,1-.142.1.06.06,0,0,1-.042-.016l-.04-.033a.178.178,0,0,0-.113-.052.221.221,0,0,0-.132.071,1.558,1.558,0,0,0-.16.183,3.446,3.446,0,0,0-.459.831l-.078.206a.469.469,0,0,1-.053.11.077.077,0,0,1-.068.033.266.266,0,0,1-.091-.017A.316.316,0,0,1,31.4,22.8Z"/><path class="cls-3" d="M33.912,22.376q.051,0,.051.069a.207.207,0,0,1-.036.114.494.494,0,0,1-.191.2.6.6,0,0,1-.329.105.338.338,0,0,1-.362-.256,2.665,2.665,0,0,1,.271-1.288c-.136-.012-.21-.036-.222-.071a.129.129,0,0,1-.005-.035.074.074,0,0,1,.017-.043.239.239,0,0,1,.043-.048.2.2,0,0,1,.126-.052h.141a1.771,1.771,0,0,1,.273-.511.149.149,0,0,1,.087-.029.206.206,0,0,1,.08.013.18.18,0,0,1,.058.035.165.165,0,0,1,.056.119.2.2,0,0,1-.021.082l-.132.286h.043l.178,0,.1,0h.084c.035,0,.051.012.051.037,0,.156-.184.234-.555.234h-.013l-.121.313a2.711,2.711,0,0,0-.2.776.142.142,0,0,0,.028.1.132.132,0,0,0,.106.035.368.368,0,0,0,.143-.027.579.579,0,0,0,.111-.059c.033-.022.06-.042.083-.06A.1.1,0,0,1,33.912,22.376Z"/><path class="cls-3" d="M35.554,22.368c0,.109.04.164.117.164a.3.3,0,0,0,.131-.025.217.217,0,0,1,.071-.025c.024,0,.037.013.037.039a.315.315,0,0,1-.16.263.373.373,0,0,1-.344.057.287.287,0,0,1-.171-.176.368.368,0,0,1-.026-.126,1.247,1.247,0,0,1,.017-.2.989.989,0,0,1-.41.466.456.456,0,0,1-.208.05.4.4,0,0,1-.191-.045.436.436,0,0,1-.138-.126.668.668,0,0,1-.1-.419,1.305,1.305,0,0,1,.186-.62,1.468,1.468,0,0,1,.408-.464A.794.794,0,0,1,35.231,21a.4.4,0,0,1,.347.2c.082-.131.154-.2.217-.2a.256.256,0,0,1,.152.038c.065.047.089.089.069.124a4.656,4.656,0,0,0-.458,1.137C35.556,22.322,35.554,22.345,35.554,22.368Zm-.985.008c0,.142.045.213.137.213.069,0,.155-.06.258-.178a2.438,2.438,0,0,0,.4-.7,2.519,2.519,0,0,0,.093-.278.209.209,0,0,0-.1-.177.18.18,0,0,0-.094-.02.328.328,0,0,0-.148.046.742.742,0,0,0-.164.126,1.123,1.123,0,0,0-.147.19,1.642,1.642,0,0,0-.12.237A1.468,1.468,0,0,0,34.569,22.376Z"/><path class="cls-3" d="M37.187,22.376q.051,0,.051.069a.214.214,0,0,1-.035.114.5.5,0,0,1-.192.2.6.6,0,0,1-.329.105.339.339,0,0,1-.362-.256,2.67,2.67,0,0,1,.272-1.288c-.136-.012-.21-.036-.222-.071a.1.1,0,0,1-.006-.035.077.077,0,0,1,.018-.043.191.191,0,0,1,.043-.048.2.2,0,0,1,.126-.052h.14a1.762,1.762,0,0,1,.274-.511.144.144,0,0,1,.087-.029.21.21,0,0,1,.08.013.175.175,0,0,1,.057.035.166.166,0,0,1,.057.119.206.206,0,0,1-.022.082l-.131.286h.042l.178,0,.1,0H37.5c.034,0,.051.012.051.037q0,.234-.555.234h-.014l-.121.313a2.711,2.711,0,0,0-.2.776.148.148,0,0,0,.028.1.134.134,0,0,0,.107.035.363.363,0,0,0,.142-.027.621.621,0,0,0,.112-.059c.032-.022.059-.042.083-.06A.1.1,0,0,1,37.187,22.376Z"/><path class="cls-3" d="M38.053,22.509c.032,0,.047.02.047.06a.261.261,0,0,1-.073.166.356.356,0,0,1-.286.124.283.283,0,0,1-.282-.167.328.328,0,0,1-.029-.143.664.664,0,0,1,.03-.185c.019-.068.044-.14.072-.215s.062-.151.1-.228l.093-.224a1.132,1.132,0,0,0,.1-.331.2.2,0,0,0-.018-.105.128.128,0,0,0-.036-.04l-.035-.025a.049.049,0,0,1-.017-.044.088.088,0,0,1,.023-.059.214.214,0,0,1,.063-.05A.409.409,0,0,1,37.992,21c.174,0,.261.046.261.137a1,1,0,0,1-.083.365c-.056.137-.1.248-.143.332l-.106.245a1.159,1.159,0,0,0-.118.389.07.07,0,0,0,.079.078.27.27,0,0,0,.115-.02A.149.149,0,0,1,38.053,22.509Zm.365-1.923a.341.341,0,0,1-.089.067.279.279,0,0,1-.105.032.173.173,0,0,1-.1-.017.236.236,0,0,1-.085-.065.274.274,0,0,1-.076-.18.214.214,0,0,1,.1-.209.306.306,0,0,1,.161-.056.506.506,0,0,1,.118.011.226.226,0,0,1,.077.036.17.17,0,0,1,.087.143.355.355,0,0,1-.024.14A.311.311,0,0,1,38.418,20.586Z"/><path class="cls-3" d="M38.665,22.72a.485.485,0,0,1-.117-.18.719.719,0,0,1-.044-.259,1.128,1.128,0,0,1,.036-.3,1.422,1.422,0,0,1,.108-.294,1.485,1.485,0,0,1,.169-.267,1.278,1.278,0,0,1,.218-.217.869.869,0,0,1,.538-.2.487.487,0,0,1,.495.322.91.91,0,0,1,.011.563,1.463,1.463,0,0,1-.274.558,1.09,1.09,0,0,1-.465.36.71.71,0,0,1-.266.054.75.75,0,0,1-.232-.034A.458.458,0,0,1,38.665,22.72Zm.34-.861a1.568,1.568,0,0,0-.085.27,1.115,1.115,0,0,0-.03.262.44.44,0,0,0,.038.193.124.124,0,0,0,.119.07.274.274,0,0,0,.161-.056.781.781,0,0,0,.153-.148,1.357,1.357,0,0,0,.141-.213,2.049,2.049,0,0,0,.115-.252,1.409,1.409,0,0,0,.105-.508c0-.131-.027-.214-.08-.249a.162.162,0,0,0-.09-.021.235.235,0,0,0-.132.052.808.808,0,0,0-.15.141,1.6,1.6,0,0,0-.143.208A1.941,1.941,0,0,0,39.005,21.859Z"/><path class="cls-3" d="M41.652,21.338c-.037,0-.089.035-.157.106s-.126.134-.176.192l-.15.182-.292.371c-.069.13-.122.239-.161.325l-.1.206a.538.538,0,0,1-.066.108.1.1,0,0,1-.074.031.262.262,0,0,1-.091-.017.265.265,0,0,1-.075-.044.161.161,0,0,1-.067-.124.311.311,0,0,1,.039-.105l.067-.144c.022-.043.046-.1.074-.163l.1-.243a2.555,2.555,0,0,0,.21-.678.138.138,0,0,0-.054-.12l-.035-.025a.049.049,0,0,1-.017-.044.088.088,0,0,1,.023-.059.207.207,0,0,1,.064-.05.346.346,0,0,1,.16-.041A.354.354,0,0,1,41,21.02a.236.236,0,0,1,.074.048.179.179,0,0,1,.065.13.58.58,0,0,1-.016.136c-.012.045-.026.091-.043.138s-.035.093-.054.138-.036.084-.052.117l-.035.076c-.01.019-.012.025-.008.018q.2-.273.26-.352l.124-.149a1.249,1.249,0,0,1,.215-.211A.5.5,0,0,1,41.783,21a.427.427,0,0,1,.153.024.343.343,0,0,1,.109.065.3.3,0,0,1,.1.231.75.75,0,0,1-.064.293c-.043.1-.079.184-.111.248s-.061.128-.089.193a1.24,1.24,0,0,0-.134.431c0,.04.032.061.1.061a.3.3,0,0,0,.136-.032.256.256,0,0,1,.078-.032c.026,0,.039.012.039.037a.312.312,0,0,1-.163.265.36.36,0,0,1-.2.073.484.484,0,0,1-.149-.02.3.3,0,0,1-.107-.062.338.338,0,0,1-.1-.263A1.385,1.385,0,0,1,41.5,22c.062-.141.107-.238.133-.29l.06-.126a.452.452,0,0,0,.056-.179C41.75,21.36,41.717,21.338,41.652,21.338Z"/></g></g></svg>