<svg xmlns="http://www.w3.org/2000/svg" xmlns:xlink="http://www.w3.org/1999/xlink" viewBox="0 0 60 40"><defs><style>.cls-1{isolation:isolate;}.cls-2{fill:#233254;}.cls-3{fill:#e8e5de;}.cls-4,.cls-9{fill:#dbd9d5;}.cls-16,.cls-4{mix-blend-mode:multiply;}.cls-5{fill:#0e192d;}.cls-6{fill:url(#Chrome);}.cls-7{fill:#c3bfbe;}.cls-8{fill:url(#Chrome-2);}.cls-10{fill:#eae8e4;}.cls-11{fill:#a4b6c1;}.cls-12{fill:#f95900;}.cls-13{fill:#f9b800;}.cls-14{fill:#fc8900;}.cls-15{fill:#fff;}</style><linearGradient id="Chrome" x1="27.271" y1="27.342" x2="30.945" y2="37.156" gradientUnits="userSpaceOnUse"><stop offset="0" stop-color="#e5e2df"/><stop offset="0" stop-color="#d6d7d7"/><stop offset="0" stop-color="#d1d3d4"/><stop offset="0.068" stop-color="#edeeee"/><stop offset="0.107" stop-color="#fff"/><stop offset="0.13" stop-color="#f5f5f6"/><stop offset="0.17" stop-color="#dbdcdd"/><stop offset="0.22" stop-color="#b1b2b4"/><stop offset="0.247" stop-color="#97999c"/><stop offset="0.272" stop-color="#9a9c9e"/><stop offset="0.287" stop-color="#a2a4a7"/><stop offset="0.299" stop-color="#b0b2b4"/><stop offset="0.309" stop-color="#c4c6c8"/><stop offset="0.315" stop-color="#d1d3d4"/><stop offset="0.364" stop-color="#c7c9ca"/><stop offset="0.446" stop-color="#adafb0"/><stop offset="0.552" stop-color="#838586"/><stop offset="0.646" stop-color="#58595b"/><stop offset="0.678" stop-color="#616265"/><stop offset="0.731" stop-color="#7a7c7f"/><stop offset="0.742" stop-color="#808285"/><stop offset="0.743" stop-color="#797a7d"/><stop offset="0.75" stop-color="#5a595c"/><stop offset="0.757" stop-color="#424041"/><stop offset="0.765" stop-color="#312d2f"/><stop offset="0.773" stop-color="#262324"/><stop offset="0.781" stop-color="#231f20"/><stop offset="0.79" stop-color="#4b4848"/><stop offset="0.802" stop-color="#7a7878"/><stop offset="0.815" stop-color="#a3a1a2"/><stop offset="0.827" stop-color="#c4c3c3"/><stop offset="0.84" stop-color="#dedede"/><stop offset="0.853" stop-color="#f0f0f0"/><stop offset="0.867" stop-color="#fbfbfb"/><stop offset="0.882" stop-color="#fff"/><stop offset="0.897" stop-color="#eaebec"/><stop offset="0.921" stop-color="#d0d2d3"/><stop offset="0.946" stop-color="#bebfc2"/><stop offset="0.972" stop-color="#b3b5b7"/><stop offset="1" stop-color="#afb1b4"/></linearGradient><linearGradient id="Chrome-2" x1="7.274" y1="24.467" x2="9.349" y2="24.467" gradientTransform="translate(-2.461 1.095) rotate(-6.067)" xlink:href="#Chrome"/></defs><title>Icon Set sample</title><g class="cls-1"><g id="Layer_1" data-name="Layer 1"><line class="cls-2" x1="1.669" y1="18.469" x2="1.667" y2="17.384"/><path class="cls-3" d="M1.669,17.575v.933L2,18.715l2.529-.335-2.7-.9S1.669,17.072,1.669,17.575Z"/><polygon class="cls-4" points="1.669 18.508 1.669 17.04 1.987 17.162 2 18.715 1.669 18.508"/><path class="cls-4" d="M2,17.629l.08.952a.966.966,0,0,1,1.149-.364,2.486,2.486,0,0,0,1.269.1Z"/><path class="cls-2" d="M2.043,17.722l1.509.542s-.441-.153-.688-.207-.5.1-.667,0A.318.318,0,0,1,2.043,17.722Z"/><polygon class="cls-2" points="2.271 19.271 5.55 18.658 4.997 18.165 4.366 18.459 2.248 18.682 2.197 19.03 2.271 19.271"/><path class="cls-2" d="M54.385,14.618a3.355,3.355,0,0,1,.929-.04.952.952,0,0,1,.6.423s1.3-.344,1.65-.443.348-.741.381-.98.076-.426.228-.376-.054,1.061-.163,1.279-.914.389-1.338.52-.022.557-.022.557l-1.86.152A.678.678,0,0,1,54.385,14.618Z"/><path class="cls-5" d="M54.45,14.869a.933.933,0,0,1,.8-.073,2.929,2.929,0,0,1,.857.531l.334.154a6,6,0,0,0-1.517,0C54.476,15.6,54.146,15.073,54.45,14.869Z"/><path class="cls-2" d="M1.667,17.384s.316.036.3.188l-.3.9"/><path class="cls-2" d="M58.042,13.613c-.262.024-.857.024-.555-1.077s.5-1.738.685-1.819.588-.213.62.832S58.841,13.54,58.042,13.613Z"/><path class="cls-2" d="M11.446,24.493l1.589-.113v.457l-.174.109.174,1.031a18.412,18.412,0,0,1,2.98,1.427c.936.653,2.891-.152,3.186-.7s.4-1.41.426-.694a.777.777,0,0,0,.914.824,12.894,12.894,0,0,1,2.11.566,17.288,17.288,0,0,0-.239,2.742c.109.413,1.958-.582,1.958-.582l4.939-.8,5.037,4.3,2.143-.544-9.425-9.428-6.653-1.773L15.3,20.2l-4.09-1.262L6.073,18.6a6.917,6.917,0,0,1-.109,1.668c-.174,1.131-.653,1-.653,1a7.937,7.937,0,0,0,0,1.9,9.881,9.881,0,0,0,2.176-.314l1.958-.044.8,1.68Z"/><path class="cls-5" d="M5.243,22.367l.05-1.607.295-1.526.718-.2,1.844.261,1.518.645.416,1.462s.285-.434-.938-.891-1.32.3-1.532.837-1.086.773-1.116,1.212a5.468,5.468,0,0,1,.012-1.943c.212-.856-.367.6-.367,1.216s-.261-.775-.22-1.428a13.535,13.535,0,0,0-.147,1.889c.016.551-.277-.8-.2-1.579a12.693,12.693,0,0,0-.22,2.13C5.36,23.559,5.229,22.815,5.243,22.367Z"/><path class="cls-2" d="M35.681,32.8c1.11-2.709.5-3.79.5-3.79l2.845,3.709c.566-.32.922-.526.922-.526L35.6,27.523c-.294-1.766-.5-.876-1.025-2.587-.314-1.031-2.18-2.1-2.635-3.075-.449-1.008-1.957,2.328-2.676,1.491a5.165,5.165,0,0,0-1.346-1.094,3.451,3.451,0,0,0-.862-.324,2.778,2.778,0,0,0-.949-.04,3.2,3.2,0,0,0-1.66.79,5.4,5.4,0,0,0-1.1,1.35,8.237,8.237,0,0,0-.7,1.542c-.173.53.983,1.071.9,1.623a17.715,17.715,0,0,0-.349,2.906c0,.178.039,1.479.068,1.658.583,3.483,3.458,5.9,6.422,5.409a9.7,9.7,0,0,0,3.939-1.667A5.992,5.992,0,0,0,35.681,32.8Z"/><path class="cls-5" d="M23.247,29.1A4.352,4.352,0,0,1,27.574,25c4.172-.224,5.216,4.457,5.216,4.457l.55-6.045L27.2,22.29l-3.307.2-1.033,3.341s-.022,1.127-.065,1.388a12.848,12.848,0,0,0-.166,2.372s-.085-2.068.666-2.606A2.96,2.96,0,0,0,23.247,29.1Z"/><path class="cls-5" d="M16.13,22.732s-.147-.128-.718-.122-1.257.285-1.371.642-1.3,1.031.065,1.934A14.34,14.34,0,0,0,16.13,26.36a3.6,3.6,0,0,0,1.358,0,1.842,1.842,0,0,0,.657-.3,1.792,1.792,0,0,1-2.04.5,13.75,13.75,0,0,1-3.244-1.607l.174-.109,0-.634.017-.514-.694.065-.049-.426,1.347-.157-.074-1.2s.033-.237.726-.22,1.616.04,1.648.073S16.13,22.732,16.13,22.732Z"/><path class="cls-2" d="M10.141,20s-2.214.122-2.853.771-1,1.613-.737,3.6c.251,1.913,1.267,4.425,4.137,3.533,2.925-.91,1.738-5.684,1.738-5.684Z"/><path class="cls-5" d="M28.44,26.554c-.049,0-.1.015-.144.017a3.253,3.253,0,0,0-.6.029,4.091,4.091,0,0,0-3.117,4.335c0,.045-.011.087-.011.132,0,2.493,1.732,4.514,3.87,4.514.048,0,.092-.015.139-.017a3.312,3.312,0,0,0,.612-.029A4.1,4.1,0,0,0,32.3,31.154c0-.03.008-.057.008-.087C32.312,28.575,30.579,26.554,28.44,26.554Z"/><path class="cls-6" d="M28.666,26.985c-.045,0-.086.013-.131.015a2.986,2.986,0,0,0-.541.026,3.7,3.7,0,0,0-2.819,3.921c0,.041-.01.079-.01.12a3.825,3.825,0,0,0,3.5,4.083c.043,0,.083-.013.125-.015a2.947,2.947,0,0,0,.554-.026,3.706,3.706,0,0,0,2.816-3.963c0-.027.007-.052.007-.079A3.826,3.826,0,0,0,28.666,26.985Z"/><path class="cls-5" d="M30.368,28.573l-1.147,1.52s-.2.365-.47.365a.682.682,0,0,1-.469-.255l-1.2-1.63s-.167-.231,0-.389a2.026,2.026,0,0,1,1.451-.631C29.347,27.553,30.66,28.05,30.368,28.573Z"/><path class="cls-5" d="M30.365,33.555l-1.213-1.607s-.21-.385-.5-.385a.723.723,0,0,0-.5.27l-1.268,1.722s-.176.245,0,.412a2.538,2.538,0,0,0,1.655.639C29.406,34.606,30.674,34.109,30.365,33.555Z"/><path class="cls-5" d="M26.606,28.787l1.538,1.579a.93.93,0,0,1,.37.645,1.032,1.032,0,0,1-.259.646l-1.649,1.65s-.234.23-.394,0a3.962,3.962,0,0,1-.621-2.153C25.591,30.036,26.077,28.385,26.606,28.787Z"/><path class="cls-5" d="M30.674,28.8l-1.528,1.568a.923.923,0,0,0-.366.64,1.031,1.031,0,0,0,.256.642l1.638,1.639s.232.228.392,0a3.947,3.947,0,0,0,.618-2.139C31.684,30.043,31.2,28.4,30.674,28.8Z"/><ellipse class="cls-7" cx="28.52" cy="31.189" rx="0.864" ry="1.324" transform="translate(-1.692 1.636) rotate(-3.19)"/><ellipse class="cls-5" cx="28.507" cy="31.203" rx="0.373" ry="0.613" transform="translate(-1.692 1.635) rotate(-3.19)"/><ellipse class="cls-5" cx="28.466" cy="30.218" rx="0.14" ry="0.181"/><ellipse class="cls-5" cx="29.117" cy="30.859" rx="0.14" ry="0.181" transform="translate(-9.051 12.331) rotate(-20.771)"/><ellipse class="cls-5" cx="27.92" cy="30.832" rx="0.181" ry="0.14" transform="translate(-10.336 47.162) rotate(-70.953)"/><ellipse class="cls-5" cx="29.117" cy="31.569" rx="0.181" ry="0.14" transform="translate(-9.272 50.822) rotate(-73.948)"/><ellipse class="cls-5" cx="27.971" cy="31.551" rx="0.14" ry="0.181" transform="translate(-8.027 9.596) rotate(-17.063)"/><ellipse class="cls-5" cx="28.53" cy="32.189" rx="0.14" ry="0.181"/><path class="cls-7" d="M8.86,26.8c-.534.095-1.181-.836-1.446-2.079S7.369,22.391,7.9,22.3s1.182.836,1.446,2.079S9.394,26.7,8.86,26.8Z"/><path class="cls-2" d="M8.412,22.981l-.106.631s-.011.148-.065.158-.115-.083-.115-.083L7.755,23.1a.224.224,0,0,1-.032-.151.364.364,0,0,1,.282-.206C8.168,22.711,8.428,22.768,8.412,22.981Z"/><path class="cls-2" d="M9.039,25.991l-.353-.55s-.069-.135-.123-.125-.073.115-.073.115l-.109.675a.222.222,0,0,0,.032.151.39.39,0,0,0,.345.1C8.92,26.325,9.14,26.184,9.039,25.991Z"/><path class="cls-2" d="M7.552,23.914l.369.474a.426.426,0,0,1,.107.2.539.539,0,0,1,0,.22l-.167.592s-.024.083-.066.012a2.94,2.94,0,0,1-.215-.7C7.5,24.348,7.434,23.8,7.552,23.914Z"/><path class="cls-2" d="M8.882,23.681l-.153.565a.4.4,0,0,0-.018.224.564.564,0,0,0,.088.205l.393.494s.055.069.067-.012a2.882,2.882,0,0,0-.081-.72C9.1,24.069,8.944,23.533,8.882,23.681Z"/><path class="cls-5" d="M9.51,24.38c-.267-1.389-.989-2.433-1.612-2.33-.007,0-.013.007-.021.008s-.017,0-.025,0c-.516.09-.779.965-.678,2.066a5.49,5.49,0,0,0,.08.627c.267,1.389.989,2.433,1.612,2.33.005,0,.01,0,.015-.006s.011,0,.015,0c.349-.061.579-.485.664-1.089A4.752,4.752,0,0,0,9.51,24.38Z"/><path class="cls-8" d="M9.4,24.38C9.159,23.137,8.513,22.2,7.956,22.3a.108.108,0,0,0-.019.008c-.008,0-.016,0-.023,0-.462.08-.7.863-.607,1.848a4.982,4.982,0,0,0,.072.561c.239,1.243.885,2.177,1.442,2.085l.014,0s.009,0,.014,0c.311-.054.517-.434.593-.974A4.261,4.261,0,0,0,9.4,24.38Z"/><path class="cls-5" d="M8.615,23.09l-.17.892s-.018.211-.1.224-.162-.119-.162-.119l-.518-.842a.307.307,0,0,1-.042-.214c.032-.095.118-.378.352-.416S8.643,22.788,8.615,23.09Z"/><path class="cls-5" d="M9.142,25.837l-.52-.829s-.1-.2-.184-.189-.115.173-.115.173L8.141,26a.326.326,0,0,0,.043.227.672.672,0,0,0,.545.274C8.977,26.462,9.289,26.127,9.142,25.837Z"/><path class="cls-5" d="M7.553,23.386l.611.8a.7.7,0,0,1,.175.338.88.88,0,0,1-.007.368l-.3.988s-.043.138-.113.019a3.851,3.851,0,0,1-.408-1.158C7.393,24.122,7.358,23.189,7.553,23.386Z"/><path class="cls-5" d="M8.727,23.2l-.274.937a.667.667,0,0,0-.038.371.9.9,0,0,0,.142.341l.646.826s.091.115.113-.018a3.743,3.743,0,0,0-.049-1.209C9.15,23.838,8.836,22.957,8.727,23.2Z"/><ellipse class="cls-7" cx="8.359" cy="24.62" rx="0.252" ry="0.743" transform="translate(-4.999 2.314) rotate(-12.162)"/><ellipse class="cls-5" cx="8.357" cy="24.628" rx="0.109" ry="0.344" transform="translate(-5.022 2.326) rotate(-12.216)"/><ellipse class="cls-5" cx="8.496" cy="24.41" rx="0.042" ry="0.1" transform="translate(-6.499 3.358) rotate(-16.271)"/><ellipse class="cls-5" cx="8.148" cy="24.451" rx="0.042" ry="0.099" transform="translate(-2.73 1.086) rotate(-6.534)"/><ellipse class="cls-5" cx="8.572" cy="24.801" rx="0.041" ry="0.1" transform="translate(-3.058 1.279) rotate(-7.243)"/><ellipse class="cls-5" cx="8.239" cy="24.845" rx="0.041" ry="0.1" transform="translate(-6.298 3.077) rotate(-15.389)"/><ellipse class="cls-5" cx="8.468" cy="25.171" rx="0.041" ry="0.102" transform="translate(-4.721 2.121) rotate(-11.184)"/><path class="cls-5" d="M13.894,22.672s1.655-.264,1.98.324.359,2.048.62,2.461,2.216.511,2.963-.076,2.661,1.1,2.922,1.534a1.961,1.961,0,0,1,.229.99l.25-1.85-.109-.935-2.634-1.893s-1.978-.827-2.4-.979-2.088-.664-2.088-.664l-1.6-.359S12.621,21.769,13.894,22.672Z"/><path class="cls-9" d="M9.282,19.909s.533,2.371.674,2.959.794.489,1.871.37a11.948,11.948,0,0,0,1.219-.163l1.61-.175-.316-1.686S8.618,19.115,9.282,19.909Z"/><path class="cls-9" d="M5.36,18.5l-.082,2.758s.88.43.93-2.086S5.38,17.815,5.36,18.5Z"/><path class="cls-4" d="M10.507,20.609l2.469.849L12.889,22.8l-.348-1.251s-.7-.435-.675,0,.055,1.153.055,1.153-.033-1.131-.348-1.414-.707-.5-.653.228l.054.729a3.2,3.2,0,0,0-.935-1.632c-.7-.533-.3-.609-.3-.609Z"/><path class="cls-2" d="M47.864,21.808a10.313,10.313,0,0,1-.1,1.615,1.606,1.606,0,0,1-1.1,1.42c-.944.375-.77.342-.77.342a16.188,16.188,0,0,0,.128-1.616,2.027,2.027,0,0,1,.849-1.387A2.857,2.857,0,0,1,47.864,21.808Z"/><path class="cls-10" d="M1.449,17.461a17.588,17.588,0,0,0-.207-2.719,10.172,10.172,0,0,1,0-1.73c-.01-.087.131-.131,1.926-.131s13.3-.413,13.783-.446a20.5,20.5,0,0,1,2.241.229s1.343-5.341,1.6-6.353.67-2.962,1.983-3.386,2.007.122,4.235.114a39.814,39.814,0,0,1,7.538.294c3.3.506,6.813,1.044,9.163,2.505A66.019,66.019,0,0,1,53.677,13.9a19.071,19.071,0,0,1,1.876,2.088,4,4,0,0,1,.343,2.219c-.049.49.016,2.04-.065,2.4a4.118,4.118,0,0,1-.376,1,.243.243,0,0,0,.037.343c.082.062.09.275-.09.66,0,0-.1.094.307.188a2.455,2.455,0,0,1,1.167.52c.315.3.173,1.917-1.176,3.636a.338.338,0,0,0-.042.261c.049.11-.067,2.35-4.984,6.027s-6.527,2.5-8.4,2-3.884-1.328-5.287-1.774a8.7,8.7,0,0,0-2.643-.4S33.323,32,33.214,31.788a.761.761,0,0,1-.1-.37s-.283.153-.576-.642a26.168,26.168,0,0,0-1.48-3.568c-.739-1.381-1.795-1.631-4.275-2.48s-2.959-.544-3.111.587-.74.262-.936,1.556c0,0,.087-.848-1.468-1.24a2.347,2.347,0,0,1-1.806-1.675l.076,1.229s-.468.13-.674.2a8.876,8.876,0,0,1-1.948-.675c-.511-.206-.729-1.218-.99-1.914s-.239-.5-1.109-.762-6.114-1.958-6.114-1.958-1.022-1.366-2.143-.781C6.562,19.291,1.447,17.581,1.449,17.461Z"/><path class="cls-2" d="M55.848,22.8c-.327-.067-.351-.05-.433-.128a9.52,9.52,0,0,1-3.607,2.989c-2.611,1.362-3.77,2.231-7.291,2.784a15.365,15.365,0,0,1-2.705.258.941.941,0,0,0-.931.659c-.21.665-.515,1.619-.65,2-.218.609-.036.653,1.1.935s3.6,1.219,5.882.131c.794-.378,1.506-.693,2.139-.977a10.248,10.248,0,0,1-.1,1.244c-.081.359,2.481-1.959,2.481-1.959l.112-.616c.036-.028.078-.056.111-.085.8-.718,3.289-2.273,3.929-3.339a6.163,6.163,0,0,0,1.13-2.623C57.193,22.957,56.175,22.87,55.848,22.8Z"/><path class="cls-2" d="M41.989,21.568a8.91,8.91,0,0,0,3.358.129c1.112-.181,2.207-.481,3.309-.739a7.8,7.8,0,0,1,1.689-.306.507.507,0,0,1,.368.264,1.1,1.1,0,0,1,.095.431,4.959,4.959,0,0,1-.045.854c-.078.564-.157,1.122-.28,1.681a2.585,2.585,0,0,1-1.024,1.349,9.117,9.117,0,0,1-3.141,1.3,10.739,10.739,0,0,1-3.364.556,4.12,4.12,0,0,1-.858-.123,1.238,1.238,0,0,1-.762-.473,2.086,2.086,0,0,1-.07-.884l.063-.85.181-1.691.106-.844a2.622,2.622,0,0,1,.083-.42C41.729,21.693,41.827,21.466,41.989,21.568Zm-.008.016c-.141-.086-.219.116-.248.232a2.5,2.5,0,0,0-.062.415l-.074.847-.138,1.692-.042.846a2.081,2.081,0,0,0,.068.791,2.03,2.03,0,0,0,1.478.507,10.61,10.61,0,0,0,3.313-.539A9.577,9.577,0,0,0,49.4,25.152a2.494,2.494,0,0,0,1.015-1.289,12.131,12.131,0,0,0,.277-1.669,5.046,5.046,0,0,0,.027-.841c-.008-.275-.115-.568-.394-.6a8.174,8.174,0,0,0-1.637.336,28.128,28.128,0,0,1-3.325.727A8.052,8.052,0,0,1,41.981,21.584Z"/><path class="cls-2" d="M54.949,20.9a13.576,13.576,0,0,0,.245-1.714s-.366.031-.649.554c-.248.457-.506.883-.845.883-.217,0-.263-.091-.511-.191a1.233,1.233,0,0,0-.712.006l.034-.018-.087.029c-.363.088-.751.235-1.119.3-.009,0-.015.007-.023.009-.28.064-.417.105-.477.112s-.079-.049-.272-.155-.248-.014-.248-.014.4.009.47.55a9.178,9.178,0,0,1-.284,2.544c-.222,1.1-1.643,1.777-1.643,1.777s-.967.414-2,.755a20.543,20.543,0,0,0,2.8-.937c.132-.061.232-.106.332-.15l-.006,0s3.354-1.071,4.988-2.963a.429.429,0,0,0,.076-.4A2.143,2.143,0,0,1,54.949,20.9Z"/><path class="cls-2" d="M46.827,26.323c-.889.245-1.6.413-1.6.413A9.728,9.728,0,0,0,46.827,26.323Z"/><path class="cls-2" d="M24.794,4.956a78.455,78.455,0,0,0-1.207,8.616l14.278,2.571.179-2.7a82.9,82.9,0,0,0-5.918-7.037C30.261,4.7,30.277,5.022,24.794,4.956Z"/><path class="cls-11" d="M24.936,5.114a84,84,0,0,0-1.088,8.507s11.373,1.9,12.45,1.993,1.469-.426,1.567-1.977v-.114a75,75,0,0,0-5.907-7.277C30.032,4.467,28.145,5.272,24.936,5.114Z"/><path class="cls-12" d="M42.238,22.041a6.64,6.64,0,0,0,2.487.237.216.216,0,0,1,.232.221l-.211,3.455a.209.209,0,0,1-.19.2,8.655,8.655,0,0,1-1.771-.016c-.808-.123-1.086-.278-1.135-.457a22.248,22.248,0,0,1,.321-3.5A.2.2,0,0,1,42.238,22.041Z"/><path class="cls-13" d="M42.266,22.521s.44.315,2.346.266c0,0-.08.391-.689.431a3.3,3.3,0,0,1-1.248-.129A.866.866,0,0,1,42.266,22.521Z"/><path class="cls-14" d="M42.221,22.677s-.06,2.677,0,2.872.451.408,1.218.343c0,0-.682.212-.963-.653A10.722,10.722,0,0,1,42.221,22.677Z"/><path class="cls-15" d="M55.15,19.291a7.439,7.439,0,0,1,.539-.557c.1-.063.215.2.186.574a5.266,5.266,0,0,1-.387,1.781,2.278,2.278,0,0,1-.376.332s-.126.216-.136-.055,0-1.177,0-1.177S54.951,19.489,55.15,19.291Z"/><path class="cls-2" d="M41.707,26.187a2.63,2.63,0,0,0,1.674.44c.6-.023,1.206-.144,1.81-.216a16.377,16.377,0,0,0,3.514-.987,16.445,16.445,0,0,1-3.5,1.076c-.606.087-1.2.222-1.82.262a2.737,2.737,0,0,1-1.8-.447.088.088,0,0,1-.017-.125.089.089,0,0,1,.125-.018l0,0Z"/><path class="cls-2" d="M45.077,22.229c1.405-.363,2.821-.674,4.23-1.012l.531-.116a.875.875,0,0,1,.565,0,1.155,1.155,0,0,1,.266,1.046,8.591,8.591,0,0,1-.533,2.109,10.572,10.572,0,0,0,.467-2.114c.02-.341.029-.765-.241-.969-.308-.1-.681.082-1.029.137C47.913,21.618,46.5,21.95,45.077,22.229Z"/><path class="cls-15" d="M44.857,26.061a1.236,1.236,0,0,0,.75-.276,7.045,7.045,0,0,0,.294-2.267c.041-.694.63-1.642,2.415-2.066l-3.239.789S44.963,24.966,44.857,26.061Z"/><path class="cls-15" d="M49.529,22.054c.412-.056.7-.123.758-.234a1.138,1.138,0,0,0,0-.454s-.141.281-1.131.351c0,.1,0,.224,0,.374C49.232,22.087,49.346,22.078,49.529,22.054Z"/><path class="cls-15" d="M49.146,22.376c0,.12-.008.246-.014.375.083-.005.189-.013.353-.034.435-.055.739-.123.8-.234a1.084,1.084,0,0,0,0-.454S50.141,22.3,49.146,22.376Z"/><path class="cls-15" d="M49.417,23.389c.412-.056.7-.123.759-.234a2.213,2.213,0,0,0,.109-.454s-.23.269-1.176.346c-.009.128-.02.255-.032.376C49.156,23.418,49.258,23.41,49.417,23.389Z"/><path class="cls-15" d="M49.35,24.177a.745.745,0,0,0,.607-.336c.056-.11.174-.371.174-.371s-.187.29-1.094.367a2.963,2.963,0,0,1-.081.379A3.445,3.445,0,0,0,49.35,24.177Z"/><path class="cls-15" d="M47.053,22.134a1.5,1.5,0,0,1,.334-.12A.682.682,0,0,1,47.569,22a.171.171,0,0,1,.163.119v.008a.043.043,0,0,1-.036.048.042.042,0,0,1-.044-.024c-.026-.057-.026-.078-.09-.081a.668.668,0,0,0-.167,0,1.5,1.5,0,0,0-.332.089.013.013,0,0,1-.011-.023Z"/><path class="cls-15" d="M47.834,22.824l-.029.71a.093.093,0,1,1-.185-.007v-.006l0-.011.071-.687v-.009a.07.07,0,0,1,.14.01Z"/><path class="cls-15" d="M47.645,24.264a1.559,1.559,0,0,1-.565.5.124.124,0,0,1-.13-.212l0,0a1.553,1.553,0,0,0,.488-.417l0,0a.119.119,0,0,1,.2.13Z"/><path class="cls-15" d="M46.407,25.033c-.148.038-.3.061-.446.088a.012.012,0,0,1-.014-.01.014.014,0,0,1,.007-.014c.135-.07.265-.143.4-.2l.006,0a.074.074,0,1,1,.059.136Z"/><path class="cls-2" d="M38.774,34.085s4.037,1.333,5.325,1.656,3.478-.2,5.634-1.833a22.709,22.709,0,0,0,4.828-4.344s-4.1,4.889-8.391,4.933S40.016,33.063,38.774,34.085Z"/><path class="cls-2" d="M54.108,19.531c0,.462-.183.836-.408.836s-.409-.374-.409-.836.081-.835.306-.835S54.108,19.07,54.108,19.531Z"/><path class="cls-2" d="M50.777,20.434,52,20.16a2.606,2.606,0,0,1,1.25-.11,2.554,2.554,0,0,0-1.217.231l-1.2.4a.125.125,0,0,1-.079-.238l.012,0Z"/><path class="cls-2" d="M54.234,19.8a2.527,2.527,0,0,1,.38-.62,1.086,1.086,0,0,1,.63-.362l.006,0,0,0a4.823,4.823,0,0,0-.576.408,2.915,2.915,0,0,0-.429.57l-.007,0Z"/><path class="cls-2" d="M22.978,4.509h1.1a23.5,23.5,0,0,0-1.022,4.239c-.468,2.817-.653,4.612-.653,4.612s-.043.141-.239.109-1.621-.4-1.621-.4a51.581,51.581,0,0,1,1.283-5.428A19.447,19.447,0,0,1,22.978,4.509Z"/><path class="cls-11" d="M23.141,4.842h.6s-.979,3.7-1.207,5.581-.338,2.73-.338,2.73l-1.414-.272s.838-3.753,1.48-5.635S23.141,4.842,23.141,4.842Z"/><path class="cls-2" d="M21.686,6.454c.25-.653.5-1.309.761-1.957l.012-.03h.033c2.01-.067,4.021-.12,6.033-.113a6.11,6.11,0,0,1,2.956.506,10.863,10.863,0,0,1,2.188,2.078c1.3,1.538,2.551,3.112,3.828,4.667.642.775,1.255,1.573,1.883,2.358a8.81,8.81,0,0,1,1.659,2.5l-.017,0a3.734,3.734,0,0,0-.776-1.268l-.966-1.159c-.64-.774-1.3-1.537-1.922-2.322C36.1,10.147,34.818,8.6,33.575,7.018a10.413,10.413,0,0,0-2.127-2.1,5.607,5.607,0,0,0-2.923-.457c-2.009.06-4.019.1-6.03.108l.045-.031c-.269.646-.555,1.285-.838,1.926Z"/><path class="cls-3" d="M51.25,21.271a8.87,8.87,0,0,1,1.769-.323c.193.016.55.172.754.187.366.025.589-.421.736-.672a4.765,4.765,0,0,1,.6-.789,7.8,7.8,0,0,0-.581.958c-.155.354-.384.7-.69.694a7.093,7.093,0,0,1-.9-.188A12.54,12.54,0,0,0,51.25,21.271Z"/><path class="cls-5" d="M40.285,31.734a16.188,16.188,0,0,1,.914-2.17c.185-.147.446-.145,2.284.327a9.605,9.605,0,0,0,6.022-.65,31.8,31.8,0,0,0,4.9-2.861A9.4,9.4,0,0,0,56.1,25.049a3.481,3.481,0,0,0,.612-.807c.087-.166.357-.539.265-.745a2.76,2.76,0,0,1-.133,1.35,6.476,6.476,0,0,1-1.362,2.36,16.02,16.02,0,0,1-2.717,2.314,20.878,20.878,0,0,1-1.783,1.163c-.661.382-1.353.669-2.049.984a20.49,20.49,0,0,1-2.157.881,7.074,7.074,0,0,1-2.311.38,10.957,10.957,0,0,1-2.211-.4,7.431,7.431,0,0,1-1.824-.49C40.285,31.962,40.211,31.938,40.285,31.734Z"/><path class="cls-3" d="M51.164,22.735a3.626,3.626,0,0,0,.516-.227l.5-.22a4.479,4.479,0,0,1,1.04-.359c.061-.01.122-.017.184-.021a2.3,2.3,0,0,0,.362-.025.687.687,0,0,0,.489-.439,2.3,2.3,0,0,1,.567-.659,6.111,6.111,0,0,0-.479.817.855.855,0,0,1-.373.429,1.812,1.812,0,0,1-.7.075,3.743,3.743,0,0,0-.966.238Z"/><path class="cls-3" d="M50.869,24.212s1.67-1.142,2.28-1.422a1.7,1.7,0,0,1,.55-.119c.2-.012.369-.182.466-.456s.577-.455.577-.455a1.833,1.833,0,0,0-.489.613c-.156.353-.3.475-.486.489a3.364,3.364,0,0,0-.7.119A21.28,21.28,0,0,0,50.869,24.212Z"/><path class="cls-2" d="M49.235,24.886a2.243,2.243,0,0,0,1.089-1.517,5.148,5.148,0,0,0,.208-1.516,1.035,1.035,0,0,0-.076-.428.472.472,0,0,0-.526-.248c-.5.076-1,.2-1.5.317-.1.022-.2.04-.293.067-.156.045-.113.141-.113.3a12.039,12.039,0,0,1-.067,1.315,6.553,6.553,0,0,1-.123.724,2.037,2.037,0,0,1-.235.627,1.8,1.8,0,0,1-.9.6c-.076.031-.151.062-.217.086l-.068.025c-.278.1-.475.143-.6.189-.005.048-.014.07-.02.109a.588.588,0,0,1-.395.528,7.689,7.689,0,0,1-1.308.233c-.123.008-.245.017-.368.016a5.889,5.889,0,0,1-2.041-.3,2.77,2.77,0,0,0,1.569.452,8.3,8.3,0,0,0,1.643-.2,13.611,13.611,0,0,0,4.606-1.416c.094-.057.187-.117.278-.18Z"/><path class="cls-2" d="M55.246,19.093a3.434,3.434,0,0,1,.584-.436,4.6,4.6,0,0,1-.046,2.128,2.843,2.843,0,0,1-.672,1.244,2.917,2.917,0,0,1-.136-.583c-.006-.2.6-.425.676-1.1s.236-1.608-.007-1.5A1.906,1.906,0,0,0,55.246,19.093Z"/><g class="cls-16"><path class="cls-9" d="M24.38,4.511c-.291,1.836-.575,3.671-.828,5.508-.13.918-.189,1.843-.262,2.77a2.446,2.446,0,0,1-.117.7c-.155.088-.245-.012-.362.02a.482.482,0,0,0-.3.1,1.2,1.2,0,0,0-.225.618l-.164.687,0-.014c-.124,1.136-.221,2.275-.3,3.412-.034.569-.059,1.139-.045,1.705l.044.853.03.426.015.212.01.1,0,.02s0,.008,0,0l-.006-.009c0,.02.008-.045-.105-.037-.078.047-.045.046-.054.046-.013.036,0-.009,0-.014l.184.025a1.8,1.8,0,0,0,.408,1.784,8.191,8.191,0,0,0,1.681,1.061l-.008.018a6.983,6.983,0,0,1-1.753-.989,1.374,1.374,0,0,1-.512-.886,2.776,2.776,0,0,1,0-1.032l.185.025a.262.262,0,0,1-.016.092c-.01,0,.022,0-.058.05-.116.008-.111-.057-.11-.04l-.01-.021-.009-.029-.006-.033-.015-.111-.021-.215-.028-.43-.041-.86c-.012-.577.016-1.15.053-1.722.072-1.144.21-2.281.372-3.414h0l0-.013.175-.665a1.251,1.251,0,0,1,.267-.66c.2-.176.522-.078.666-.1a2.152,2.152,0,0,0,.093-.665c.047-.926.079-1.858.187-2.783a50.8,50.8,0,0,1,.956-5.494Z"/></g><g class="cls-16"><path class="cls-9" d="M34.442,7.153c1.443,1.724,2.829,3.5,4.247,5.243.687.893,1.4,1.752,2.061,2.676a2.479,2.479,0,0,1,.372,1.653l-.14,1.68v.008l0,.007-.1.158,0,0,0-.011L40.4,22.635l-.238,2.032-.078,1.018-.024.508v.251l.006.122c-.014.018.049.125-.024.05l.042.121-.179.385.008-.03c-.018.985-.02,1.958.033,2.954a3.949,3.949,0,0,1-.054.757c-.044.257-.156.491-.207.716s-.083.481-.164.73a.774.774,0,0,1-.556.567,3.167,3.167,0,0,1-1.49-.263c-.469-.164-.925-.351-1.392-.506a12.883,12.883,0,0,0-2.888-.6l0-.02a11.545,11.545,0,0,1,2.922.506c.474.146.937.324,1.4.476a3.069,3.069,0,0,0,1.4.229c.457-.107.453-.7.573-1.168a3.675,3.675,0,0,0,.259-1.425c-.049-.979-.045-1.982-.023-2.973v-.014l.008-.017.18-.385.041.121c-.1-.11-.045-.089-.067-.128l-.008-.07-.006-.134v-.26l.026-.515L40,24.651l.274-2.031.549-4.059v0l0-.006,0,0,.093-.162-.005.014L41,16.715a2.336,2.336,0,0,0-.369-1.568c-.654-.9-1.392-1.76-2.081-2.644-1.371-1.779-2.774-3.534-4.12-5.337Z"/></g><path class="cls-15" d="M41.644,30.265c.888.129,1.765.35,2.636.523a5.449,5.449,0,0,0,2.61-.1,22.472,22.472,0,0,0,2.507-.918c.829-.34,1.673-.646,2.493-1.007-.781.445-1.6.813-2.418,1.184a19.1,19.1,0,0,1-2.518.983,5.441,5.441,0,0,1-2.712.044C43.362,30.767,42.515,30.484,41.644,30.265Z"/><path class="cls-4" d="M32.869,4.782c1.614,1.7,7.484,8.27,9.156,10.619s.881,1.6,4.2,1.273,6.551-.852,7.408-1.376,1.223-.362.153-1.326a71.257,71.257,0,0,0-8.771-7.25C41.475,4.475,33.386,4.189,33.061,4.233S32.358,4.243,32.869,4.782Z"/><path class="cls-2" d="M33.008,4.777c1.6,1.688,7.4,8.094,9.05,10.422s.871,1.588,4.156,1.261,6.521-.712,7.369-1.232,1.208-.357.151-1.313A71.267,71.267,0,0,0,45.018,6.7c-3.5-2.228-11.5-2.51-11.82-2.467S32.5,4.243,33.008,4.777Z"/><path class="cls-11" d="M33.377,4.842c.3.283,4.9,5.158,6.614,7.279s3.09,3.879,3.221,4.022,1.2.122,3.894-.139a51.075,51.075,0,0,0,6.331-.871c.544-.217.786-.307.566-.718s-7.2-6.81-10.139-8.2S33.2,4.646,33.2,4.646Z"/><path class="cls-15" d="M52.159,28.323,52,30.8a26.3,26.3,0,0,0,2.758-2.383c.718-.832.718-1.093.718-1.093l.388-1.767A31.709,31.709,0,0,1,52.159,28.323Z"/><polygon class="cls-2" points="51.996 30.804 51.621 30.804 52.159 28.323 51.996 30.804"/><path class="cls-15" d="M55.86,25.949a2.771,2.771,0,0,0,.738-.875A3.789,3.789,0,0,0,57.014,24a2.393,2.393,0,0,1-.286,1.149A1.98,1.98,0,0,1,55.86,25.949Z"/><g class="cls-16"><path class="cls-9" d="M31.778,25.186a17.239,17.239,0,0,1,1.609,2.257,13.283,13.283,0,0,1,.667,1.226c.212.425.347.871.567,1.228A3.25,3.25,0,0,0,36.7,31.3c.866.275,1.762.5,2.633.814a26.306,26.306,0,0,1-2.735-.444,5.074,5.074,0,0,1-1.351-.473,2.805,2.805,0,0,1-1.058-1.044c-.25-.436-.379-.882-.564-1.284-.175-.418-.38-.823-.574-1.237C32.646,26.809,32.208,26,31.778,25.186Z"/></g><g class="cls-16"><path class="cls-2" d="M32.3,25.977a14.219,14.219,0,0,1,1.061,1.582,13.8,13.8,0,0,1,.792,1.732,3.568,3.568,0,0,0,1.049,1.5,5.731,5.731,0,0,0,1.71.757,4.748,4.748,0,0,1-1.8-.633,3.579,3.579,0,0,1-1.141-1.546,16.976,16.976,0,0,0-.744-1.74C32.934,27.072,32.623,26.521,32.3,25.977Z"/></g><path class="cls-4" d="M19.17,20.126c.014.11.068.376.068.487a2.3,2.3,0,0,1-.068.373l20.038,5.337,2.024.515s-4.554-1.619-5.809-2.088c-1.572-.588-15.3-4.4-15.6-4.463s-.653-.783-.653-.783S19.151,19.972,19.17,20.126Z"/><path class="cls-4" d="M19.768,14.29s9.922,1.8,13.3,2.448,7.648,1.667,9.128,1.919a11,11,0,0,0,2.523.161,4.426,4.426,0,0,1-2.105-.59c-1.126-.625-.783-.886-.163-.968,0,0-3.574.587-9.905-.9s-10.574-3.15-12.32-2.97C20.225,13.393,19.866,13.474,19.768,14.29Z"/><path class="cls-4" d="M38.11,13.567s2.132,1.86,2.578,3.155a7.137,7.137,0,0,1-1.371-.218c-1.284-.25-1.371-.361-1.371-.361s1.615.4,2.122-.085-1.832-1.4-2.028-.642S38.11,13.567,38.11,13.567Z"/><path class="cls-4" d="M25.219,3.036a15.156,15.156,0,0,0-2.046.24,1.7,1.7,0,0,0-.864,1.129c-.223.655-1.944,6.42-2.2,7.965s-.566,1.94-.718,3.244a19.709,19.709,0,0,0-.226,3.044c.052.609-.089,1.155-.012,1.61a4.917,4.917,0,0,1-.024,1.2c-.021.478.283,1.613.338,2.491l.076,1.229-.674.2s-.022-6.4.087-8.333a35.1,35.1,0,0,1,1.436-7.332c.826-2.872,1.408-5.253,2.056-6.065S23.53,3.115,25.219,3.036Z"/><path class="cls-2" d="M46.052,16.723s-.567-.034-.436.374.734.767.9,0,.685-.637.685-.637-.015-1.513,3.053-3.161l.4-.167a2.633,2.633,0,0,0-1.518.247,25.274,25.274,0,0,0-2.545,1.662,17.227,17.227,0,0,1,2.749-1.474c1.175-.435-1.55.691-2.382,2.42l-.093.278A1.014,1.014,0,0,0,46.052,16.723Z"/><path class="cls-2" d="M50.827,16.251s-.215-.028-.166.3.637.594.7-.029.408-.419.408-.419a2.588,2.588,0,0,1,.629-2.6l.1-.3a1.083,1.083,0,0,0-.528.307,7.36,7.36,0,0,0-.937,1.374,7.553,7.553,0,0,1,1.041-1.2c.444-.354-.587.562-.9,1.968l-.035.225S50.972,15.851,50.827,16.251Z"/><g class="cls-16"><path class="cls-9" d="M20.041,17.173a4.269,4.269,0,0,1,.457.076.407.407,0,0,1,.28.361,4.29,4.29,0,0,1,.023.926c-.01.307-.009.615-.042.923a1.164,1.164,0,0,1-.12.451c-.079.161-.291.164-.431.133a1.816,1.816,0,0,1-.461-.09.494.494,0,0,1-.271-.395,7.29,7.29,0,0,1-.045-.927,5.629,5.629,0,0,1,0-.927.782.782,0,0,1,.162-.438A.469.469,0,0,1,20.041,17.173Zm0,.01a.452.452,0,0,0-.417.106.722.722,0,0,0-.125.421c-.013.3.027.609.03.917a7.394,7.394,0,0,0,.038.913.435.435,0,0,0,.214.344,1.851,1.851,0,0,0,.437.105c.146.033.311.038.39-.1a.884.884,0,0,0,.114-.432c.02-.3,0-.613,0-.921s.028-.616,0-.916C20.726,17.259,20.322,17.236,20.04,17.183Z"/></g><path class="cls-2" d="M22.269,4.274c-.542,1.7-1.054,3.407-1.548,5.118s-.862,3.464-1.256,5.2a43.979,43.979,0,0,0-.354,5.324,17.981,17.981,0,0,0,.086,2.657,5.147,5.147,0,0,0,.824,2.5L20,25.071a5.038,5.038,0,0,1-.938-2.484,13.456,13.456,0,0,1-.149-2.681,33.3,33.3,0,0,1,.437-5.339c.478-1.726.775-3.482,1.224-5.214A44.4,44.4,0,0,1,22.25,4.268Z"/><path class="cls-4" d="M19.54,25.185l-.674.2,0-2.891s.146,1.6.212,1.917A1.05,1.05,0,0,0,19.54,25.185Z"/><path class="cls-4" d="M16.832,24.006a1.139,1.139,0,0,0,.151.39,5.83,5.83,0,0,0,1.162.389v-.229l-.63-.6Z"/><path class="cls-2" d="M16.8,23l1.346.4v1.249l-.637-.425-.595.009S16.766,24.219,16.8,23Z"/><path class="cls-4" d="M1.406,13.317s-.022,1,0,1.174.239,1.534.239,1.741.065.272.228.174.142-.076,0-.381a3.856,3.856,0,0,1-.228-1.6c.043-.6.218-.457.218-.457l15.73,3.514-.044-1.023L1.558,13.317S1.408,13.218,1.406,13.317Z"/><path class="cls-4" d="M1.657,14.426c.044-.6.218-.457.218-.457l.026.006a.872.872,0,0,1-.157-.439.417.417,0,0,1,.036-.178l-.21-.041s-.15-.1-.152,0c0,0-.022,1,0,1.174s.239,1.534.239,1.741.066.272.229.174.141-.076,0-.381A3.854,3.854,0,0,1,1.657,14.426Z"/><path class="cls-2" d="M1.509,13.351c.054.027.111.052.164.081l.018.01-.009.023a.419.419,0,0,0-.023.322.534.534,0,0,1-.007.376,2.3,2.3,0,0,0,.008.707c.062.475.087.951.176,1.42l-.009,0a2.425,2.425,0,0,1-.185-.7,5.989,5.989,0,0,1-.047-.72c.008-.244-.015-.474,0-.728a.608.608,0,0,0-.01-.331.486.486,0,0,1,.056-.373l.009.032c-.049-.035-.095-.077-.143-.115Z"/><path class="cls-4" d="M17.549,16.46,1.811,13.345s-.349-.072-.36-.071c-.072.006.193.213.193.213l-.035.328s9.178,1.8,11.351,2.158a30.54,30.54,0,0,0,3.627.51c.139,0,.288.006.443,0,.46-.014.549.681.549.681Z"/><path class="cls-2" d="M1.482,13.281,16.6,16.275,1.463,13.38a.051.051,0,0,1-.04-.059.05.05,0,0,1,.058-.04Z"/><g class="cls-16"><path class="cls-9" d="M40.256,27.393a33.053,33.053,0,0,0,3.921.439,10.169,10.169,0,0,0,3.806-.839,34.789,34.789,0,0,0,3.6-1.62c.586-.3,1.16-.623,1.716-.974a5.454,5.454,0,0,0,1.528-1.228,9.718,9.718,0,0,1-3.166,2.348,34.5,34.5,0,0,1-3.585,1.707,10.353,10.353,0,0,1-3.9.771A21.346,21.346,0,0,1,40.256,27.393Z"/></g><g class="cls-16"><path class="cls-9" d="M2.087,16.427a25.9,25.9,0,0,1,3.9.889,24.5,24.5,0,0,0,3.834,1.133A44.934,44.934,0,0,1,17.5,20.687l-.013.048a44.912,44.912,0,0,1-7.734-2.022,24.6,24.6,0,0,0-3.871-1,25.949,25.949,0,0,1-3.8-1.24Z"/></g><g class="cls-16"><path class="cls-9" d="M1.835,16.81c1.34.363,2.673.75,3.99,1.19s2.628.893,3.964,1.272,2.658.8,3.983,1.212,2.636.866,3.943,1.335l-.006.019c-1.339-.365-2.674-.747-4-1.168s-2.646-.838-3.957-1.294-2.646-.84-3.977-1.232-2.644-.843-3.95-1.315Z"/></g><g class="cls-16"><path class="cls-9" d="M2.537,14.421q4.622.824,9.154,2.039Q7.069,15.64,2.537,14.421Z"/></g><polygon class="cls-4" points="2.287 13.099 18.485 16.107 18.485 15.971 16.788 15.612 16.81 12.62 2 13.045 2.287 13.099"/><g class="cls-16"><path class="cls-9" d="M4.06,13.374c.577-.078,1.153.009,1.73-.022a11.473,11.473,0,0,1,1.729.022v.01a11.343,11.343,0,0,1-1.729.023c-.577-.031-1.153.056-1.73-.023Z"/></g><g class="cls-16"><path class="cls-9" d="M8.506,13.305c.574-.091,1.153-.016,1.728-.059a11.353,11.353,0,0,1,1.73-.015v.01a11.468,11.468,0,0,1-1.728.059c-.577-.018-1.152.081-1.73.015Z"/></g><g class="cls-16"><path class="cls-9" d="M12.622,13.207a16.483,16.483,0,0,1,1.95-.054c.65-.034,1.3-.071,1.95-.069h.047l0,.042c-.007.128-.006.256-.024.385h-.01c-.028-.127-.037-.255-.054-.383l.045.042c-.65.03-1.3.022-1.951.015a16.284,16.284,0,0,1-1.951.03Z"/></g><g class="cls-16"><path class="cls-9" d="M16.375,13.436a11.109,11.109,0,0,1-1.98.067c-.33-.011-.659.026-.989.045s-.659.042-.989.048l.081-.083c0,.489-.029.978-.075,1.467h-.016c-.046-.489-.076-.978-.076-1.467v-.082l.082,0c.33-.008.66-.007.99,0s.661.028.991,0a11.1,11.1,0,0,1,1.98-.017Z"/></g><g class="cls-16"><path class="cls-9" d="M7.97,14.156c-.011-.131-.032-.261-.034-.392v-.039l.04,0c.342-.02.683-.078,1.027-.068.343-.007.686,0,1.029-.014.684-.051,1.366-.137,2.052-.15h.088l0,.083c-.014.449-.028.9-.074,1.347H12.08c-.045-.449-.06-.9-.073-1.347l.085.081c-.684.051-1.372.029-2.058.042-.342.014-.683.058-1.025.083-.342.041-.686.016-1.029.027l.04-.041c0,.131-.023.261-.034.392Z"/></g><polygon class="cls-4" points="18.485 16.107 18.485 15.971 16.788 15.612 15.751 15.599 18.485 16.107"/><path class="cls-4" d="M18.485,15.971s.435-2.513.614-3.166l-2.031-.22a15.367,15.367,0,0,1,1.885.351c.09.1-.074.627-.294.636a2.33,2.33,0,0,1-.506-.059s.685.059.6.377.008,1.2-.351,1.175a4.8,4.8,0,0,1-.637-.085s.686.059.694.239-.176.547-.862.483-.8-1.424-.8-1.424l-.009,1.334Z"/><path class="cls-4" d="M18.485,15.971s.435-2.513.614-3.166l-2.031-.22a15.367,15.367,0,0,1,1.885.351c.09.1-.074.627-.294.636a2.33,2.33,0,0,1-.506-.059s.685.059.6.377.008,1.2-.351,1.175a4.8,4.8,0,0,1-.637-.085s.686.059.694.239-.176.547-.862.483-.8-1.424-.8-1.424l-.009,1.334Z"/><g class="cls-16"><path class="cls-9" d="M17.011,12.911a3.363,3.363,0,0,1,1.109.164A3.367,3.367,0,0,1,17.011,12.911Z"/></g><g class="cls-16"><path class="cls-9" d="M17.011,13.346a3.389,3.389,0,0,1,1.109.163A3.34,3.34,0,0,1,17.011,13.346Z"/></g><g class="cls-16"><path class="cls-9" d="M17.179,15.329a3.344,3.344,0,0,1,1.109.163A3.362,3.362,0,0,1,17.179,15.329Z"/></g><g class="cls-16"><path class="cls-9" d="M17.068,12.707a13.076,13.076,0,0,1-.057,2.212A12.973,12.973,0,0,1,17.068,12.707Z"/></g><g class="cls-16"><path class="cls-9" d="M16.816,12.675a12.961,12.961,0,0,1-.057,2.211A13.062,13.062,0,0,1,16.816,12.675Z"/></g><path class="cls-2" d="M36.665,12.193a3.636,3.636,0,0,0-1.362,0c-.408.164-.62.767-.743,1.926a6.027,6.027,0,0,0-.089,1.778c.073.3.289.237,1.079.237s1.45.114,1.515-.465S37.22,12.324,36.665,12.193Z"/><path class="cls-2" d="M37.757,16.838c-.083-.2-.365-.248-.591-.257a1.309,1.309,0,0,1-.325.915,1.606,1.606,0,0,0,.145-1.08,4.477,4.477,0,0,0-.194-.6c.369-.669-1.093.5-.94,1.389.011.064.026.113.04.168,0,0,0,.007,0,.011.013.578.331.988.97.8A1.307,1.307,0,0,0,37.757,16.838Z"/><path class="cls-9" d="M36.7,12.316a1.6,1.6,0,0,0-1.055.182c-.249.2-.262.629-.313.983-.05.37-.081.746-.119,1.119s-.077.748-.088,1.126a9.116,9.116,0,0,1,.009-2.269,4.905,4.905,0,0,1,.105-.567.794.794,0,0,1,.322-.52A1.43,1.43,0,0,1,36.7,12.316Z"/><path class="cls-4" d="M24.729,16.107c-.174-.017-1.164-.18-1.61-.3s-.324.589-.324.589a2.4,2.4,0,0,0,.114.828,9.463,9.463,0,0,0,1.7.369c.332.086.329-.9.333-1.134C24.973,16.165,24.9,16.123,24.729,16.107Z"/><path class="cls-4" d="M22.8,16.4s-.122-.709.324-.589,1.436.282,1.61.3.244.058.214.353-1.356.055-1.356.055Z"/><path class="cls-4" d="M22.8,16.431s-.122-.709.324-.589,1.436.282,1.61.3.244.059.214.354-1.356.055-1.356.055Z"/><path class="cls-4" d="M22.785,16.468s-.121-.709.325-.59,1.436.283,1.61.3.244.059.213.354-1.355.054-1.355.054Z"/><path class="cls-4" d="M22.785,16.5s-.121-.709.325-.589,1.436.282,1.61.3.244.058.213.353-1.355.055-1.355.055Z"/><path class="cls-2" d="M23.163,15.971c.951.17,1.338.446,1.566.392s.218-.132.218-.132a2.056,2.056,0,0,1-.087.69c-.1.16-.544-.156-1.273-.243s-.849.011-.783-.62C22.8,16.058,22.749,15.9,23.163,15.971Z"/><path class="cls-4" d="M46.475,18.981c4.656-.528,7.9-1.438,8.877-2.077l.413-.313s-.839.611-1.657,1.151a3.864,3.864,0,0,0-.613.72s-1.3-.048-1.738-.01C50.439,18.566,46.475,18.981,46.475,18.981Z"/><path class="cls-15" d="M58.148,13.442l-.119.715c-.036.112-.031.248-.128.34a.669.669,0,0,1-.325.16.65.65,0,0,0,.306-.177c.083-.085.07-.219.1-.335Z"/><path class="cls-5" d="M58.631,10.947c.047.087-.258-.295-.319.19s-.467,1.753-.062,2.056-.347.369-.577.249-.246-.566-.068-1.144a5.8,5.8,0,0,1,.543-1.47C58.317,10.67,58.5,10.711,58.631,10.947Z"/><path class="cls-2" d="M55.765,14.4l1.33,1.445s.326.269.481.171-.146-1.036-1.052-1.665S55.553,14.174,55.765,14.4Z"/><path class="cls-3" d="M55.827,14.452a2.681,2.681,0,0,0,.159.866,1.507,1.507,0,0,0,1.355.651,2.543,2.543,0,0,0-.617-.931C56.2,14.46,55.787,14.2,55.827,14.452Z"/><ellipse class="cls-5" cx="2.259" cy="18.976" rx="0.113" ry="0.295" transform="translate(-0.716 0.099) rotate(-2.169)"/></g></g></svg>