<svg id="Layer_1" data-name="Layer 1" xmlns="http://www.w3.org/2000/svg" viewBox="0 0 2 2"><defs><style>.cls-1{fill:#233254;}.cls-2{fill:#fff;}</style></defs><title>Icon to from</title><circle class="cls-1" cx="1" cy="1.661" r="0.309"/><circle class="cls-2" cx="1" cy="1.661" r="0.243"/><path class="cls-1" d="M1,.03A.558.558,0,0,0,.436.582,2.8,2.8,0,0,0,1,1.67s.2-.263.28-.386a1.5,1.5,0,0,0,.282-.7A.558.558,0,0,0,1,.03ZM.59.594A.028.028,0,0,1,.562.622.027.027,0,0,1,.534.594.456.456,0,0,1,.542.5.028.028,0,0,1,.589.487.027.027,0,0,1,.6.515.527.527,0,0,0,.59.594ZM.647.383A.028.028,0,0,1,.622.4.029.029,0,0,1,.6.383.028.028,0,0,1,.6.354.48.48,0,0,1,1.013.115a.027.027,0,0,1,.028.028.028.028,0,0,1-.028.028A.423.423,0,0,0,.647.383Zm.366.465A.254.254,0,1,1,1.267.594.254.254,0,0,1,1.013.848Z"/></svg>