<svg id="Design" xmlns="http://www.w3.org/2000/svg" viewBox="0 0 15 15"><defs><style>.cls-1{fill-rule:evenodd;}</style></defs><title>145</title><path d="M11.719,4.838a3.5,3.5,0,0,1-.859.245c.139-.023.343-.273.424-.375a1.576,1.576,0,0,0,.286-.52c.007-.015.013-.034,0-.045a.045.045,0,0,0-.045,0,4.439,4.439,0,0,1-1.02.39.07.07,0,0,1-.071-.019.768.768,0,0,0-.089-.091,1.82,1.82,0,0,0-.494-.3A1.736,1.736,0,0,0,9.091,4a1.828,1.828,0,0,0-.719.2,1.861,1.861,0,0,0-.58.474,1.766,1.766,0,0,0-.346.694,1.884,1.884,0,0,0-.019.733c.006.04,0,.046-.035.04A5.44,5.44,0,0,1,3.887,4.362c-.041-.046-.063-.046-.1,0a1.777,1.777,0,0,0,.3,2.1c.069.065.139.13.215.19a1.812,1.812,0,0,1-.676-.19c-.041-.026-.061-.011-.065.035a1.065,1.065,0,0,0,.011.2A1.8,1.8,0,0,0,4.686,8.135a1.012,1.012,0,0,0,.225.069,1.987,1.987,0,0,1-.664.02c-.048-.009-.067.015-.048.062A1.867,1.867,0,0,0,5.593,9.453c.063.011.126.011.189.026,0,.006-.007.006-.011.011a2.208,2.208,0,0,1-.952.5,3.43,3.43,0,0,1-1.445.185c-.078-.012-.094-.011-.116,0s0,.031.023.052c.1.065.2.122.3.178a4.744,4.744,0,0,0,.966.387,5.148,5.148,0,0,0,5-1.169A5.243,5.243,0,0,0,10.928,5.8c0-.055.065-.086.1-.115a3.389,3.389,0,0,0,.677-.707.2.2,0,0,0,.042-.136V4.838C11.751,4.816,11.754,4.822,11.719,4.838Z"/><path class="cls-1" d="M5.774,10.971Z"/><path class="cls-1" d="M6.06,10.979c0-.015.151,0,0,0C6.06,10.971,6.079,10.979,6.06,10.979Z"/><path class="cls-1" d="M9.067,4.009a.032.032,0,0,1-.035,0Z"/><path d="M7.5.506A6.994,6.994,0,1,0,14.494,7.5,7,7,0,0,0,7.5.506Zm0,13.725A6.731,6.731,0,1,1,14.231,7.5,6.738,6.738,0,0,1,7.5,14.231Z"/></svg>